<svg width="470" height="156" viewBox="0 0 470 156" fill="none" xmlns="http://www.w3.org/2000/svg">
<path d="M134.681 116.36H105.782V153.722H84.6255V116.36H0V101.17L77.7285 1.73462H101.17L26.6993 97.6999H85.0909V64.696H105.486V97.6999H134.681V116.36Z" fill="url(#paint0_linear_705_1164)"/>
<path d="M172.532 77.7285C172.532 28.2226 199.019 0 234.647 0C270.274 0 296.55 28.2226 296.55 77.7285C296.55 127.234 270.02 155.457 234.647 155.457C199.273 155.457 172.532 127.234 172.532 77.7285ZM274.802 77.7285C274.802 38.8431 258.3 19.3369 234.647 19.3369C210.994 19.3369 194.28 38.8431 194.28 77.7285C194.28 116.614 210.782 136.12 234.647 136.12C258.511 136.12 274.802 116.572 274.802 77.7285Z" fill="url(#paint1_linear_705_1164)"/>
<path d="M469.082 116.36H440.183V153.722H419.026V116.36H334.401V101.17L412.129 1.73462H435.613L361.143 97.6999H419.534V64.696H439.929V97.6999H468.828L469.082 116.36Z" fill="url(#paint2_linear_705_1164)"/>
<defs>
<linearGradient id="paint0_linear_705_1164" x1="6.01891" y1="-9.73612" x2="87.2912" y2="75.633" gradientUnits="userSpaceOnUse">
<stop stop-color="#CC6922"/>
<stop offset="1" stop-color="#FF4D4D"/>
</linearGradient>
<linearGradient id="paint1_linear_705_1164" x1="178.074" y1="-11.7326" x2="261.173" y2="66.8502" gradientUnits="userSpaceOnUse">
<stop stop-color="#CC6922"/>
<stop offset="1" stop-color="#FF4D4D"/>
</linearGradient>
<linearGradient id="paint2_linear_705_1164" x1="340.42" y1="-9.73612" x2="421.692" y2="75.633" gradientUnits="userSpaceOnUse">
<stop stop-color="#CC6922"/>
<stop offset="1" stop-color="#FF4D4D"/>
</linearGradient>
</defs>
</svg>
