<svg width="1145" height="927" viewBox="0 0 1145 927" fill="none" xmlns="http://www.w3.org/2000/svg">
<g filter="url(#filter0_f_638_89)">
<ellipse cx="572.535" cy="463.626" rx="283.503" ry="441.89" transform="rotate(67 572.535 463.626)" fill="url(#paint0_radial_638_89)"/>
</g>
<g filter="url(#filter1_df_638_89)">
<path d="M545.5 738.019C740.287 755.396 901 725.326 901 709.67C901 694.013 741.837 681.32 545.5 681.32C349.163 681.32 190 694.013 190 709.67C190 721.949 267.496 743.301 404.443 747.24C442.115 748.324 503.142 738.019 545.5 738.019Z" fill="#F5F5F5" fill-opacity="0.9" shape-rendering="crispEdges"/>
</g>
<path d="M404.059 639.304C390.119 610.399 400.474 570.476 425.036 560.328C453.641 548.62 458.619 600.941 496.34 607.575C534.061 614.209 553.398 588.996 563.085 556.814C569.112 536.774 562.704 489.685 588.735 489.685C608.339 489.685 608.72 517.8 598.918 536.813C588.201 557.603 586.732 590.497 595.905 601.771C605.078 613.044 624.377 585.758 644.172 587.851C663.967 589.944 653.993 632.591 661.526 640.212C669.059 647.833 632.31 684.162 545.827 690.973C485.47 695.732 427.763 688.426 404.059 639.304Z" fill="url(#paint1_linear_638_89)"/>
<g opacity="0.5" filter="url(#filter2_i_638_89)">
<path d="M404.059 639.304C390.119 610.399 400.474 570.476 425.036 560.328C453.641 548.62 458.619 600.941 496.34 607.575C534.061 614.209 553.398 588.996 563.085 556.814C569.112 536.774 562.704 489.685 588.735 489.685C608.339 489.685 608.72 517.8 598.918 536.813C588.201 557.603 586.732 590.497 595.905 601.771C605.078 613.044 624.377 585.758 644.172 587.851C663.967 589.944 653.993 632.591 661.526 640.212C669.059 647.833 632.31 684.162 545.827 690.973C485.47 695.732 427.763 688.426 404.059 639.304Z" fill="white" fill-opacity="0.67"/>
</g>
<path opacity="0.2" d="M592.969 493.239C589.326 486.783 577.884 493.101 575.253 504.296C572.621 515.49 599.395 504.552 592.969 493.239Z" fill="white" fill-opacity="0.67"/>
<path opacity="0.2" d="M408.274 606.568C407.015 597.763 409.227 579.657 419.716 568.917C432.779 555.59 447.692 560.072 457.856 584.712C457.856 584.712 445.289 562.579 433.523 565.817C422.614 568.818 411.973 580.921 414.643 607.279C416.054 620.547 409.532 615.473 408.274 606.568Z" fill="white" fill-opacity="0.67"/>
<path opacity="0.2" d="M654.089 610.399C654.089 610.399 653.574 593.932 643.276 590.971C632.978 588.009 612.096 603.627 612.096 603.627C612.096 603.627 629.393 591.464 638.489 592.432C647.586 593.399 647.338 614.821 650.465 615.335C653.593 615.848 654.356 613.183 654.089 610.399Z" fill="white" fill-opacity="0.67"/>
<path d="M406.881 625.246C406.881 625.246 426.314 636.441 432.95 634.091C439.587 631.742 440.922 611.07 460.945 610.142C480.969 609.214 505.455 628.365 516.249 628.879C527.043 629.392 547.181 596.637 567.052 602.995C586.923 609.352 587.171 621.337 597.736 620.547C608.301 619.757 616.272 607.852 627.409 612.472C638.546 617.092 651.381 647.379 614.861 663.51C578.342 679.64 442.085 684.359 406.881 625.246Z" fill="url(#paint2_linear_638_89)"/>
<path opacity="0.4" d="M406.881 625.246C406.881 625.246 426.314 636.441 432.95 634.091C439.587 631.742 440.922 611.07 460.945 610.142C480.969 609.214 505.455 628.365 516.249 628.879C527.043 629.392 547.181 596.637 567.052 602.995C586.923 609.352 587.171 621.337 597.736 620.547C608.301 619.757 616.272 607.852 627.409 612.472C638.546 617.092 651.381 647.379 614.861 663.51C578.342 679.64 442.085 684.359 406.881 625.246Z" fill="white" fill-opacity="0.67"/>
<path d="M300.012 688.427C300.012 688.427 307.64 665.306 329.685 668.683C351.73 672.059 351.063 680.529 357.852 671.585C364.641 662.641 371.43 663.312 395.058 668.327C418.686 673.342 472.94 681.496 557.517 678.752C642.093 676.008 695.509 657.646 708 657.962C720.491 658.278 711.928 665.543 718.47 669.196C725.011 672.849 736.567 657.903 751.652 684.122C766.736 710.342 509.746 710.303 509.746 710.303C509.746 710.303 307.545 707.618 300.012 688.427Z" fill="url(#paint3_linear_638_89)"/>
<g opacity="0.5" filter="url(#filter3_i_638_89)">
<path d="M300.012 688.427C300.012 688.427 307.64 665.306 329.685 668.683C351.73 672.059 351.063 680.529 357.852 671.585C364.641 662.641 371.43 663.312 395.058 668.327C418.686 673.342 472.941 681.496 557.517 678.752C642.093 676.008 695.509 657.646 708 657.962C720.491 658.278 711.928 665.543 718.47 669.196C725.011 672.849 736.567 657.903 751.652 684.122C766.736 710.342 509.746 710.303 509.746 710.303C509.746 710.303 307.545 707.618 300.012 688.427Z" fill="white" fill-opacity="0.67"/>
</g>
<g opacity="0.2" filter="url(#filter4_i_638_89)">
<path d="M317.232 673.382C324.002 668.505 342.501 674.053 350.796 679.305C359.092 684.557 373.432 688.21 373.432 688.21C373.432 688.21 364.946 695.08 350.796 684.261C336.646 673.441 317.232 673.382 317.232 673.382Z" fill="url(#paint4_linear_638_89)" fill-opacity="0.67"/>
</g>
<path opacity="0.2" d="M364.507 671.407C366.814 669.579 369.65 668.611 372.555 668.663C375.442 668.613 378.324 668.932 381.136 669.611C386.787 670.925 392.218 673.1 397.251 676.067C406.639 682.596 417.054 687.38 428.03 690.204C433.497 691.593 439.055 692.569 444.659 693.126C450.264 693.639 455.895 693.778 461.517 693.54C467.238 693.264 472.845 692.948 478.49 692.356L495.481 690.5C501.202 689.947 506.923 689.552 512.74 689.532C518.556 689.512 524.182 689.769 529.903 690.302C532.783 690.539 535.624 690.914 538.485 691.23L546.99 692.395L563.905 695.1C575.196 696.814 586.576 697.822 597.984 698.121C609.364 698.657 620.764 697.742 631.929 695.396C626.453 697.125 620.825 698.289 615.128 698.871C609.445 699.542 603.724 699.937 597.965 700.056C586.492 700.208 575.024 699.549 563.638 698.081C541.021 694.843 518.461 691.566 495.92 694.35C484.63 695.534 473.169 696.916 461.689 697.193C450.123 697.598 438.561 696.268 427.363 693.244C421.767 691.688 416.327 689.586 411.115 686.966C408.521 685.662 405.985 684.201 403.487 682.661C400.988 681.121 398.643 679.384 396.316 677.785C391.558 674.651 386.379 672.262 380.946 670.697C378.23 669.899 375.432 669.442 372.612 669.334C369.761 669.046 366.9 669.777 364.507 671.407Z" fill="url(#paint5_linear_638_89)" fill-opacity="0.67"/>
<path opacity="0.2" d="M735.728 670.736C734.546 666.649 720.853 671.506 718.565 674.25C716.277 676.995 737.025 675.218 735.728 670.736Z" fill="url(#paint6_linear_638_89)" fill-opacity="0.67"/>
<path opacity="0.2" d="M709.354 659.798C712.997 657.824 707.829 668.742 702.565 667.577C697.302 666.412 699.533 664.912 703.69 663.727C707.848 662.543 706.875 661.161 709.354 659.798Z" fill="url(#paint7_linear_638_89)" fill-opacity="0.67"/>
<path d="M339.907 527.08C361.151 505.007 378.238 565.146 392.293 592.432C410.638 627.971 434.934 651.368 454.462 640.252C473.989 629.136 456.864 562.817 482.056 557.979C507.248 553.142 495.119 624.437 526.318 631.032C557.517 637.626 566.537 574.505 588.678 575.749C610.818 576.993 599.738 620.271 610.799 631.032C621.86 641.792 694.289 570.142 699.323 518.492C704.358 466.842 736.548 484.355 732.524 507.85C728.5 531.345 685.249 573.301 674.169 607.003C663.09 640.706 722.455 607.319 745.587 619.857C768.72 632.394 675.886 691.092 548.802 691.092C421.718 691.092 341.223 660.746 333.175 640.252C325.127 619.758 389.699 650.598 392.521 635.395C398.433 603.489 320.627 547.12 339.907 527.08Z" fill="url(#paint8_linear_638_89)"/>
<g opacity="0.6" filter="url(#filter5_i_638_89)">
<path d="M678.079 670.065C636.315 684.024 592.688 691.08 548.802 690.974C482.056 690.974 428.068 682.622 390.767 671.724C357.108 661.852 336.989 650.006 333.175 640.252C325.127 619.778 389.699 650.598 392.521 635.395C398.433 603.489 320.627 547.12 339.907 527.08C361.151 505.007 378.238 565.146 392.293 592.432C410.638 627.971 434.934 651.368 454.462 640.252C473.989 629.136 456.864 562.817 482.056 557.979C507.248 553.142 495.119 624.437 526.318 631.032C557.517 637.626 566.537 574.505 588.678 575.749C610.818 576.993 599.738 620.271 610.799 631.032C621.86 641.792 694.289 570.142 699.323 518.492C704.358 466.842 736.548 484.355 732.524 507.85C728.5 531.345 685.249 573.301 674.169 607.003C663.09 640.706 722.455 607.319 745.587 619.857C759.623 627.34 731.056 651.881 678.079 670.065Z" fill="white" fill-opacity="0.67"/>
</g>
<path opacity="0.2" d="M347.783 648.939C346.825 647.758 345.946 646.511 345.151 645.207C344.756 644.546 344.442 643.836 344.217 643.094C344.071 642.705 344.029 642.282 344.092 641.869C344.156 641.457 344.324 641.069 344.579 640.745C345.177 640.192 345.934 639.859 346.734 639.797C347.479 639.689 348.232 639.649 348.984 639.679C350.48 639.753 351.97 639.918 353.447 640.172C359.291 641.331 365.071 642.814 370.762 644.615C376.331 646.372 382.204 647.715 387.716 646.313C395.63 644.338 397.155 636.855 399.387 629.945C400.092 627.793 401.961 625.621 404.135 625.996C405.092 626.258 405.961 626.784 406.652 627.516C410.466 630.853 413.193 635.059 417.37 637.685C422.358 641.037 427.528 644.089 432.855 646.826C437.969 649.351 443.551 650.699 449.217 650.775C452.019 650.765 454.809 650.414 457.532 649.728C460.112 649.093 462.519 647.858 464.569 646.115C468.669 642.64 471.033 637.211 472.731 631.584C473.589 628.76 474.314 625.819 475.076 622.837C475.8 619.711 476.776 616.653 477.994 613.696C478.708 612 479.716 610.454 480.969 609.135C482.454 607.623 484.405 606.701 486.48 606.529C488.479 606.368 490.478 606.851 492.201 607.911C493.705 608.851 495.056 610.031 496.206 611.406C498.224 613.892 500.012 616.569 501.546 619.402L505.951 627.418C508.656 632.63 511.919 637.511 515.677 641.969C519.193 646.167 523.967 649.024 529.236 650.084C534.467 650.841 539.774 649.421 543.996 646.135C548.619 642.724 552.826 638.747 556.525 634.289C560.473 629.807 564.249 625.068 568.768 620.646C571.121 618.244 573.857 616.281 576.854 614.841C578.589 614.075 580.461 613.698 582.346 613.735C584.532 613.759 586.635 614.608 588.258 616.124C589.679 617.589 590.676 619.435 591.138 621.455C591.544 623.119 591.806 624.817 591.92 626.529C592.148 629.767 592.129 632.847 592.225 635.848C592.241 638.694 592.567 641.529 593.197 644.299C593.406 645.434 593.84 646.513 594.47 647.468C595.1 648.422 595.913 649.232 596.859 649.847C600.52 652.216 606.089 649.689 610.933 646.846C615.887 643.733 620.628 640.269 625.121 636.48C629.717 632.709 634.217 628.76 638.794 624.831C643.361 620.778 648.149 617.001 653.135 613.518C654.484 612.615 655.9 611.823 657.369 611.149C658.208 610.78 659.084 610.509 659.981 610.339C661.163 610.081 662.395 610.227 663.49 610.754C664.407 611.234 665.219 611.904 665.875 612.723C666.531 613.541 667.017 614.491 667.304 615.512C667.715 617.337 667.715 619.235 667.304 621.06C666.675 624.318 665.626 627.181 665.397 629.827C665.237 630.944 665.403 632.085 665.874 633.104C666.396 633.991 667.219 634.646 668.181 634.94C670.856 635.424 673.592 635.424 676.267 634.94C679.128 634.545 681.988 633.992 684.906 633.38C690.627 632.156 696.348 630.735 702.203 629.432C708.057 628.129 713.816 626.845 719.709 625.878C722.646 625.404 725.621 625.009 728.615 624.812C731.644 624.533 734.695 624.659 737.692 625.187C739.248 625.458 740.738 626.041 742.078 626.904C742.464 627.163 742.796 627.499 743.055 627.892C743.314 628.286 743.494 628.728 743.585 629.195C743.687 630.108 743.478 631.03 742.994 631.801C741.168 634.333 738.865 636.456 736.224 638.04C731.162 641.262 725.871 644.08 720.396 646.471C725.696 643.811 730.796 640.742 735.652 637.29C738.098 635.7 740.217 633.627 741.888 631.189C742.197 630.655 742.331 630.031 742.269 629.412C742.11 628.841 741.74 628.359 741.239 628.069C740.036 627.357 738.706 626.9 737.33 626.727C734.462 626.352 731.559 626.352 728.691 626.727C715.742 628.129 703.137 633.301 691.314 638.79C682.236 643.015 672.091 646.688 662.498 643.924C661.276 643.632 660.13 643.066 659.142 642.265C656.129 639.521 657.006 633.973 653.955 631.288C650.904 628.602 646.918 630.261 643.619 631.9C632.692 637.388 623.71 645.286 613.412 651.643C610.698 653.385 607.782 654.765 604.735 655.75C603.042 656.284 601.278 656.53 599.509 656.481C597.618 656.365 595.771 655.833 594.094 654.921C592.401 653.984 590.959 652.628 589.898 650.972C587.095 646.688 586.675 641.1 583.758 636.618C583.32 635.871 582.766 635.204 582.117 634.644C581.107 633.928 579.927 633.511 578.704 633.44C572.163 632.709 565.87 636.243 560.663 640.449C553.55 646.214 547.181 653.026 538.161 655.553C534.9 656.483 531.482 656.659 528.149 656.066C524.891 655.467 521.768 654.248 518.938 652.473C518.938 651.545 511.729 646.806 510.68 645.859C507.591 643.015 504.826 639.718 501.946 636.618C501.128 635.693 500.242 634.835 499.296 634.052C493.956 629.906 488.597 631.86 484.669 636.638C482.285 639.541 480.359 642.838 477.899 645.681C465.637 659.817 446.204 657.942 431.177 650.439C420.516 645.108 404.192 625.779 398.395 646.155C397.613 648.958 396.488 651.92 393.875 653.223C391.657 654.089 389.225 654.179 386.953 653.48C380.849 652.159 374.869 650.283 369.084 647.872L364.355 646.056C359.454 644.082 354.057 640.844 348.812 640.547C347.414 640.264 345.963 640.517 344.731 641.258C344.506 641.524 344.353 641.847 344.289 642.194C344.226 642.541 344.253 642.9 344.369 643.233C344.558 643.963 344.833 644.666 345.189 645.325C345.977 646.587 346.843 647.794 347.783 648.939Z" fill="url(#paint9_linear_638_89)" fill-opacity="0.67"/>
<path opacity="0.2" d="M356.078 565.876C356.078 565.876 335.33 540.071 341.757 530.337C348.183 520.604 360.999 529.192 364.012 539.735C367.025 550.279 355.602 548.956 352.264 548.443C348.927 547.929 356.078 565.876 356.078 565.876Z" fill="url(#paint10_linear_638_89)" fill-opacity="0.67"/>
<path opacity="0.2" d="M487.739 562.816C485.642 555.55 474.524 564.376 473.78 573.359C473.036 582.343 491.878 577.209 487.739 562.816Z" fill="url(#paint11_linear_638_89)" fill-opacity="0.67"/>
<path opacity="0.2" d="M481.046 587.891C480.493 584.594 487.892 582.955 490.276 587.891C492.659 592.827 482.762 598.118 481.046 587.891Z" fill="url(#paint12_linear_638_89)" fill-opacity="0.67"/>
<path opacity="0.2" d="M717.078 487.789C724.534 485.716 728.024 497.543 720.892 506.921C713.759 516.299 709.945 494.759 708.82 497.325C707.695 499.892 702.413 510.041 702.413 519.044C702.375 519.004 701.612 492.054 717.078 487.789Z" fill="url(#paint13_linear_638_89)" fill-opacity="0.67"/>
<path d="M678.079 670.065C636.315 684.024 592.688 691.08 548.802 690.974C482.056 690.974 428.068 682.622 390.767 671.724C396.85 672.494 403.525 672.573 408.14 670.539C418.705 665.86 426.257 666.59 436.059 673.659C445.861 680.727 463.215 685.683 482.838 684.162C502.461 682.642 497.922 674.054 520.978 677.963C544.034 681.872 541.078 688.486 568.196 688.427C595.314 688.368 610.151 675.653 626.704 672.119C640.682 669.118 646.327 678.851 678.079 670.065Z" fill="url(#paint14_linear_638_89)"/>
<g opacity="0.5" filter="url(#filter6_i_638_89)">
<path d="M678.079 670.065C636.315 684.024 592.688 691.08 548.802 690.974C482.056 690.974 428.068 682.622 390.767 671.724C396.85 672.494 403.525 672.573 408.14 670.539C418.705 665.86 426.257 666.59 436.059 673.659C445.861 680.727 463.215 685.683 482.838 684.162C502.461 682.642 497.922 674.054 520.978 677.963C544.034 681.872 541.078 688.486 568.196 688.427C595.314 688.368 610.151 675.653 626.704 672.119C640.682 669.118 646.327 678.851 678.079 670.065Z" fill="white" fill-opacity="0.67"/>
</g>
<path d="M781.401 686.867C778.578 686.116 776.154 684.246 774.652 681.66C773.149 679.074 772.69 675.98 773.373 673.046C774.517 668.505 773.811 664.497 763.227 663.806C752.643 663.115 744.5 669.927 736.72 675.435C730.274 680.016 723.981 683.688 716.448 681.358C705.006 677.903 701.897 669.769 692.324 665.761C688.514 664.248 684.467 663.478 680.386 663.49C678.152 663.456 675.918 663.541 673.693 663.747C646.708 666.215 620.391 697.311 577.636 701.477C534.881 705.643 482.571 697.844 442.848 688.9C403.124 679.956 390.119 689.019 372.955 693.126C360.77 696.087 336.188 689.828 316.431 682.76C309.49 680.331 302.673 677.537 296.007 674.389C277.623 665.465 270.358 671.783 269.461 678.239C268.565 684.695 282.62 691.605 263.397 698.081L263.073 698.2L261.738 698.614C234.734 707.183 218.487 713.343 218.487 713.343H865.329C865.329 713.343 831.956 700.826 781.401 686.867Z" fill="url(#paint15_linear_638_89)"/>
<g opacity="0.7" filter="url(#filter7_i_638_89)">
<path d="M781.401 686.867C778.578 686.116 776.154 684.246 774.652 681.66C773.15 679.074 772.69 675.98 773.373 673.046C774.517 668.505 773.811 664.497 763.227 663.806C752.643 663.115 744.5 669.927 736.72 675.435C730.274 680.016 723.981 683.688 716.448 681.358C705.006 677.903 701.898 669.769 692.324 665.761C688.514 664.248 684.467 663.478 680.386 663.49C678.152 663.456 675.918 663.541 673.693 663.747C646.708 666.215 620.391 697.311 577.636 701.477C534.881 705.643 482.571 697.844 442.848 688.9C403.124 679.956 390.119 689.019 372.955 693.126C360.77 696.087 336.188 689.828 316.431 682.76C309.49 680.331 302.673 677.537 296.007 674.389C277.623 665.465 270.358 671.783 269.461 678.239C268.565 684.695 282.62 691.605 263.397 698.081L263.073 698.2L261.738 698.614C234.735 707.183 179.488 708.041 218.487 713.343C257.486 718.646 823.987 718.646 865.329 713.343C906.672 708.041 831.956 700.826 781.401 686.867Z" fill="white" fill-opacity="0.67"/>
</g>
<path opacity="0.5" d="M273.599 680.43C273.514 679.775 273.561 679.108 273.738 678.472C273.916 677.836 274.219 677.246 274.629 676.738C275.596 675.776 276.858 675.196 278.195 675.1C280.762 674.91 283.341 675.171 285.823 675.87C290.629 677.229 295.282 679.108 299.707 681.477C304.016 683.57 308.536 685.426 313.056 687.104C317.575 688.782 322.152 690.46 326.767 691.941C335.959 694.764 345.342 697.588 354.495 698.358C359.162 698.703 363.846 698.703 368.512 698.358C373.162 697.936 377.768 697.104 382.281 695.87C391.472 693.461 401.16 690.204 411.363 689.335C421.37 688.86 431.397 689.522 441.265 691.309C460.736 694.35 479.653 699.365 498.723 703.748C488.94 703.235 479.234 701.774 469.546 700.668C459.858 699.562 450.19 698.2 440.559 697.232C435.734 696.759 431.024 696.443 426.142 696.226C421.45 695.963 416.745 696.069 412.068 696.541C407.413 697.233 402.797 698.189 398.242 699.404C393.627 700.628 389.012 702.149 384.149 703.353C379.209 704.653 374.168 705.499 369.084 705.88C363.999 706.226 358.894 706.114 353.828 705.545C348.791 704.906 343.811 703.857 338.934 702.405C334.128 701.043 329.399 699.424 324.803 697.647C315.479 694.256 306.431 690.103 297.742 685.228C295.53 683.945 293.642 682.622 291.506 681.437C289.42 680.235 287.26 679.173 285.042 678.259C282.898 677.272 280.609 676.665 278.272 676.462C277.15 676.365 276.027 676.642 275.068 677.252C274.628 677.651 274.27 678.138 274.018 678.685C273.765 679.231 273.623 679.825 273.599 680.43Z" fill="url(#paint16_linear_638_89)" fill-opacity="0.67"/>
<path opacity="0.5" d="M571.591 707.243C580.394 706.301 589.087 704.469 597.546 701.774C601.76 700.51 605.956 699.128 610.075 697.568C612.153 696.818 614.213 696.068 616.254 695.219C618.294 694.37 620.335 693.58 622.356 692.672C630.431 689.191 638.307 685.236 645.946 680.825C653.574 676.383 662.098 671.625 671.633 670.026C676.484 669.134 681.453 669.201 686.279 670.223C691.114 671.316 695.667 673.471 699.629 676.541C700.601 677.272 701.536 678.061 702.451 678.871L704.911 681.082C706.449 682.395 708.11 683.546 709.869 684.518C711.601 685.514 713.455 686.264 715.381 686.749C717.288 687.281 719.261 687.52 721.235 687.459C725.297 687.399 729.261 686.161 732.677 683.886C734.336 682.76 736.224 681.28 738.036 679.937C739.848 678.594 741.85 677.272 743.757 675.988C747.598 673.496 751.724 671.506 756.038 670.065C758.197 669.344 760.431 668.893 762.694 668.722C764.948 668.478 767.225 668.831 769.311 669.749C767.185 669.132 764.944 669.071 762.789 669.571C760.649 670.001 758.559 670.663 756.553 671.546C752.57 673.405 748.802 675.723 745.321 678.456C743.566 679.799 741.85 681.201 740.191 682.662C738.532 684.123 736.968 685.623 735.08 687.262C731.232 690.41 726.606 692.373 721.731 692.928C719.262 693.179 716.772 693.073 714.332 692.613C711.901 692.175 709.535 691.412 707.295 690.342C705.046 689.291 702.927 687.965 700.983 686.393L698.313 684.182C697.493 683.53 696.673 682.918 695.834 682.326C692.534 680.017 688.821 678.415 684.913 677.615C681.006 676.814 676.983 676.832 673.083 677.666C669.013 678.501 665.037 679.771 661.221 681.457C659.314 682.306 657.407 683.254 655.5 684.261L649.474 687.558C641.481 691.868 633.195 695.57 624.683 698.634C622.547 699.404 620.392 700.135 618.237 700.786C616.082 701.438 613.908 702.109 611.734 702.761C607.386 703.926 602.981 704.893 598.556 705.762C589.677 707.537 580.603 708.035 571.591 707.243Z" fill="url(#paint17_linear_638_89)" fill-opacity="0.67"/>
<path opacity="0.5" d="M808.863 700.49C802.646 698.516 796.429 696.443 790.098 695.041C786.964 694.259 783.776 693.738 780.562 693.481C779.781 693.481 779.018 693.481 778.255 693.481C777.513 693.534 776.775 693.627 776.043 693.758C774.712 693.908 773.442 694.419 772.362 695.239C771.959 695.805 771.626 696.422 771.371 697.075C770.899 698.003 770.25 698.823 769.464 699.483C768.026 700.618 766.431 701.523 764.734 702.169C761.471 703.519 757.966 704.132 754.455 703.965C750.946 703.768 747.8 702.919 744.71 702.662C743.19 702.496 741.66 702.457 740.134 702.544C738.646 702.674 737.176 702.965 735.747 703.412C729.759 705.17 723.962 708.388 717.593 710.599C715.957 711.149 714.288 711.585 712.596 711.902C710.808 712.189 708.988 712.189 707.199 711.902C703.854 711.225 700.635 709.999 697.664 708.27C694.727 706.729 691.943 705.11 688.987 703.906C686.148 702.612 683.04 702.076 679.948 702.346C673.712 703.037 667.819 706.433 662.575 710.343C664.938 707.98 667.57 705.925 670.413 704.222C673.275 702.415 676.417 701.133 679.7 700.431C683.113 699.884 686.604 700.244 689.845 701.478C692.94 702.635 695.976 703.953 698.942 705.426C701.709 706.861 704.665 707.865 707.714 708.408C710.71 708.643 713.718 708.135 716.487 706.927C722.456 704.775 728.215 701.517 734.756 699.483C736.457 698.992 738.201 698.675 739.962 698.536C741.686 698.445 743.415 698.504 745.13 698.713C748.524 699.049 751.747 699.878 754.665 700.115C757.683 700.35 760.715 699.905 763.552 698.812C764.904 698.338 766.188 697.673 767.366 696.838C767.874 696.463 768.297 695.978 768.605 695.416C769.014 694.524 769.547 693.699 770.188 692.968C771.719 691.744 773.561 691.009 775.49 690.855C776.369 690.74 777.254 690.674 778.141 690.658C778.999 690.658 779.876 690.658 780.715 690.875C784.063 691.338 787.367 692.09 790.593 693.126C796.831 695.167 802.934 697.627 808.863 700.49Z" fill="url(#paint18_linear_638_89)" fill-opacity="0.67"/>
<path d="M500.726 503.782C515.276 503.466 533.374 523.526 526.966 540.624C522.885 551.522 508.506 548.936 500.497 545.165C485.164 537.958 476.85 504.295 500.726 503.782Z" fill="url(#paint19_linear_638_89)"/>
<path d="M501.184 445.32C512.016 445.32 508.812 465.637 496.664 462.517C484.516 459.398 491.63 445.32 501.184 445.32Z" fill="url(#paint20_linear_638_89)"/>
<path d="M665.645 465.124C659.352 458.608 672.186 443.05 679.223 454.087C686.26 465.124 675.199 475.015 665.645 465.124Z" fill="url(#paint21_linear_638_89)"/>
<path d="M257.256 595.295C260.956 583.291 281.399 602.067 279.378 607.279C277.356 612.492 253.728 606.746 257.256 595.295Z" fill="url(#paint22_linear_638_89)"/>
<path d="M823.012 576.025C834.34 585.68 796.314 602.66 792.843 600.291C789.372 597.921 814.526 568.74 823.012 576.025Z" fill="url(#paint23_linear_638_89)"/>
<path d="M395.573 517.188C402.114 509.291 408.083 529.173 397.804 530.2C387.525 531.226 389.032 525.007 395.573 517.188Z" fill="url(#paint24_linear_638_89)"/>
<g opacity="0.7" filter="url(#filter8_i_638_89)">
<path d="M500.726 503.782C515.276 503.466 533.374 523.526 526.966 540.624C522.885 551.522 508.506 548.936 500.497 545.165C485.164 537.958 476.85 504.295 500.726 503.782Z" fill="white" fill-opacity="0.67"/>
</g>
<g opacity="0.7" filter="url(#filter9_i_638_89)">
<path d="M257.256 595.295C260.956 583.291 281.399 602.067 279.378 607.279C277.356 612.492 253.728 606.746 257.256 595.295Z" fill="white" fill-opacity="0.67"/>
</g>
<g opacity="0.7" filter="url(#filter10_i_638_89)">
<path d="M823.012 576.025C834.34 585.68 796.314 602.66 792.843 600.291C789.372 597.921 814.526 568.74 823.012 576.025Z" fill="white" fill-opacity="0.67"/>
</g>
<g opacity="0.6" filter="url(#filter11_i_638_89)">
<path d="M665.645 465.124C659.352 458.608 672.186 443.05 679.223 454.087C686.26 465.124 675.199 475.015 665.645 465.124Z" fill="white" fill-opacity="0.67"/>
</g>
<g opacity="0.6" filter="url(#filter12_i_638_89)">
<path d="M395.573 517.188C402.114 509.291 408.083 529.173 397.804 530.2C387.525 531.226 389.032 525.007 395.573 517.188Z" fill="white" fill-opacity="0.67"/>
</g>
<g opacity="0.5" filter="url(#filter13_i_638_89)">
<path d="M501.184 445.32C512.016 445.32 508.812 465.637 496.664 462.517C484.516 459.398 491.63 445.32 501.184 445.32Z" fill="white" fill-opacity="0.67"/>
</g>
<path opacity="0.2" d="M493.384 508.995C498.647 501.63 515.277 512.766 515.277 519.005C515.277 525.244 485.47 520.051 493.384 508.995Z" fill="url(#paint25_linear_638_89)"/>
<path opacity="0.2" d="M503.644 541.67C498.457 538.373 518.9 533.082 522.943 536.853C526.986 540.624 518.481 550.97 503.644 541.67Z" fill="url(#paint26_linear_638_89)" fill-opacity="0.67"/>
<path opacity="0.2" d="M494.147 457.561C492.812 454.62 504.311 453.336 503.682 457.561C503.053 461.787 496.149 461.984 494.147 457.561Z" fill="url(#paint27_linear_638_89)" fill-opacity="0.67"/>
<path opacity="0.2" d="M670.928 454.087C672.396 448.262 680.749 456.653 678.727 459.714C676.706 462.774 670.012 457.759 670.928 454.087Z" fill="url(#paint28_linear_638_89)" fill-opacity="0.67"/>
<path opacity="0.2" d="M397.747 517.188C401.103 516.675 396.012 524.474 394.505 523.96C392.998 523.447 394.429 517.702 397.747 517.188Z" fill="url(#paint29_linear_638_89)" fill-opacity="0.67"/>
<path opacity="0.2" d="M260.785 593.735C263.931 591.149 266.029 600.073 261.776 600.29C257.524 600.507 258.039 595.986 260.785 593.735Z" fill="url(#paint30_linear_638_89)"/>
<path opacity="0.2" d="M798.927 593.478C798.393 595.808 820.781 580.171 818.55 577.861C816.319 575.551 800.452 587.042 798.927 593.478Z" fill="url(#paint31_linear_638_89)" fill-opacity="0.67"/>
<path d="M557.313 146.32C557.313 146.32 389.339 371.286 515.32 429.391C528.49 435.452 542.816 438.591 557.313 438.591C571.811 438.591 586.137 435.452 599.307 429.391C725.288 371.286 557.313 146.32 557.313 146.32Z" fill="url(#paint32_linear_638_89)"/>
<path opacity="0.6" d="M557.313 146.32C557.313 146.32 389.339 371.286 515.32 429.391C528.49 435.452 542.816 438.591 557.313 438.591C571.811 438.591 586.137 435.452 599.307 429.391C725.288 371.286 557.313 146.32 557.313 146.32Z" fill="url(#paint33_linear_638_89)"/>
<path d="M557.313 148.727C557.313 148.727 638.894 253.28 631.799 348.637C624.704 443.993 534.628 434.564 500.969 404.065C418.724 329.598 557.313 148.727 557.313 148.727Z" fill="url(#paint34_linear_638_89)"/>
<path opacity="0.7" d="M557.313 148.727C557.313 148.727 418.724 329.598 500.969 404.065C534.628 434.6 624.686 444.011 631.799 348.637C638.912 253.262 557.313 148.727 557.313 148.727Z" fill="url(#paint35_linear_638_89)"/>
<path d="M557.313 153.774C557.313 153.774 625.063 285.287 609.814 355.498C594.565 425.709 498.615 416.19 483.546 358.713C462.783 279.306 557.313 153.774 557.313 153.774Z" fill="url(#paint36_linear_638_89)"/>
<path d="M556.307 411.286C586.321 411.286 605.575 402.773 609.078 405.898C613.981 410.316 592.912 434.923 556.307 434.923C523.582 434.923 500.34 410.586 502.98 404.712C505.62 398.839 527.246 411.286 556.307 411.286Z" fill="url(#paint37_linear_638_89)"/>
<path opacity="0.8" d="M557.313 153.774C557.313 153.774 625.063 285.287 609.814 355.498C594.565 425.709 498.615 416.19 483.546 358.713C462.783 279.306 557.313 153.774 557.313 153.774Z" fill="url(#paint38_linear_638_89)"/>
<path opacity="0.8" d="M556.307 411.286C586.321 411.286 605.575 402.773 609.078 405.898C613.981 410.316 592.912 434.923 556.307 434.923C523.582 434.923 500.34 410.586 502.98 404.712C505.62 398.839 527.246 411.286 556.307 411.286Z" fill="url(#paint39_linear_638_89)"/>
<path opacity="0.5" d="M543.07 336.747C595.75 331.879 602.719 391.96 547.847 397.025C492.976 402.09 500.16 340.752 543.07 336.747Z" fill="url(#paint40_linear_638_89)"/>
<path opacity="0.4" d="M532.167 333.657C552.266 334.609 557.906 299.531 532.167 306.571C513.631 311.636 516.721 332.939 532.167 333.657Z" fill="url(#paint41_linear_638_89)"/>
<path opacity="0.5" d="M554.116 413.747C568.773 414.86 578.526 411.609 579.262 415.651C579.998 419.692 572.077 430.558 549.644 426.248C530.712 422.602 528.988 411.861 554.116 413.747Z" fill="url(#paint42_linear_638_89)"/>
<defs>
<filter id="filter0_f_638_89" x="0.854126" y="0.678711" width="1143.36" height="925.895" filterUnits="userSpaceOnUse" color-interpolation-filters="sRGB">
<feFlood flood-opacity="0" result="BackgroundImageFix"/>
<feBlend mode="normal" in="SourceGraphic" in2="BackgroundImageFix" result="shape"/>
<feGaussianBlur stdDeviation="75" result="effect1_foregroundBlur_638_89"/>
</filter>
<filter id="filter1_df_638_89" x="167" y="658.32" width="757" height="112" filterUnits="userSpaceOnUse" color-interpolation-filters="sRGB">
<feFlood flood-opacity="0" result="BackgroundImageFix"/>
<feColorMatrix in="SourceAlpha" type="matrix" values="0 0 0 0 0 0 0 0 0 0 0 0 0 0 0 0 0 0 127 0" result="hardAlpha"/>
<feOffset dy="4"/>
<feGaussianBlur stdDeviation="9"/>
<feComposite in2="hardAlpha" operator="out"/>
<feColorMatrix type="matrix" values="0 0 0 0 0 0 0 0 0 0 0 0 0 0 0 0 0 0 0.25 0"/>
<feBlend mode="normal" in2="BackgroundImageFix" result="effect1_dropShadow_638_89"/>
<feBlend mode="normal" in="SourceGraphic" in2="effect1_dropShadow_638_89" result="shape"/>
<feGaussianBlur stdDeviation="11.5" result="effect2_foregroundBlur_638_89"/>
</filter>
<filter id="filter2_i_638_89" x="397.797" y="489.685" width="265.686" height="211.525" filterUnits="userSpaceOnUse" color-interpolation-filters="sRGB">
<feFlood flood-opacity="0" result="BackgroundImageFix"/>
<feBlend mode="normal" in="SourceGraphic" in2="BackgroundImageFix" result="shape"/>
<feColorMatrix in="SourceAlpha" type="matrix" values="0 0 0 0 0 0 0 0 0 0 0 0 0 0 0 0 0 0 127 0" result="hardAlpha"/>
<feOffset dx="1" dy="10"/>
<feGaussianBlur stdDeviation="4.5"/>
<feComposite in2="hardAlpha" operator="arithmetic" k2="-1" k3="1"/>
<feColorMatrix type="matrix" values="0 0 0 0 0 0 0 0 0 0 0 0 0 0 0 0 0 0 0.51 0"/>
<feBlend mode="normal" in2="shape" result="effect1_innerShadow_638_89"/>
</filter>
<filter id="filter3_i_638_89" x="300.012" y="657.958" width="457.279" height="56.345" filterUnits="userSpaceOnUse" color-interpolation-filters="sRGB">
<feFlood flood-opacity="0" result="BackgroundImageFix"/>
<feBlend mode="normal" in="SourceGraphic" in2="BackgroundImageFix" result="shape"/>
<feColorMatrix in="SourceAlpha" type="matrix" values="0 0 0 0 0 0 0 0 0 0 0 0 0 0 0 0 0 0 127 0" result="hardAlpha"/>
<feOffset dx="5" dy="4"/>
<feGaussianBlur stdDeviation="5"/>
<feComposite in2="hardAlpha" operator="arithmetic" k2="-1" k3="1"/>
<feColorMatrix type="matrix" values="0 0 0 0 0.0768924 0 0 0 0 0.136211 0 0 0 0 0.179167 0 0 0 0.73 0"/>
<feBlend mode="normal" in2="shape" result="effect1_innerShadow_638_89"/>
</filter>
<filter id="filter4_i_638_89" x="317.232" y="671.5" width="56.1999" height="22.8599" filterUnits="userSpaceOnUse" color-interpolation-filters="sRGB">
<feFlood flood-opacity="0" result="BackgroundImageFix"/>
<feBlend mode="normal" in="SourceGraphic" in2="BackgroundImageFix" result="shape"/>
<feColorMatrix in="SourceAlpha" type="matrix" values="0 0 0 0 0 0 0 0 0 0 0 0 0 0 0 0 0 0 127 0" result="hardAlpha"/>
<feOffset dy="4"/>
<feGaussianBlur stdDeviation="3"/>
<feComposite in2="hardAlpha" operator="arithmetic" k2="-1" k3="1"/>
<feColorMatrix type="matrix" values="0 0 0 0 1 0 0 0 0 0.9125 0 0 0 0 0.9125 0 0 0 0.25 0"/>
<feBlend mode="normal" in2="shape" result="effect1_innerShadow_638_89"/>
</filter>
<filter id="filter5_i_638_89" x="332.481" y="484.933" width="422.66" height="215.042" filterUnits="userSpaceOnUse" color-interpolation-filters="sRGB">
<feFlood flood-opacity="0" result="BackgroundImageFix"/>
<feBlend mode="normal" in="SourceGraphic" in2="BackgroundImageFix" result="shape"/>
<feColorMatrix in="SourceAlpha" type="matrix" values="0 0 0 0 0 0 0 0 0 0 0 0 0 0 0 0 0 0 127 0" result="hardAlpha"/>
<feOffset dx="6" dy="9"/>
<feGaussianBlur stdDeviation="5.5"/>
<feComposite in2="hardAlpha" operator="arithmetic" k2="-1" k3="1"/>
<feColorMatrix type="matrix" values="0 0 0 0 0 0 0 0 0 0 0 0 0 0 0 0 0 0 0.45 0"/>
<feBlend mode="normal" in2="shape" result="effect1_innerShadow_638_89"/>
</filter>
<filter id="filter6_i_638_89" x="390.767" y="667.575" width="294.312" height="27.4004" filterUnits="userSpaceOnUse" color-interpolation-filters="sRGB">
<feFlood flood-opacity="0" result="BackgroundImageFix"/>
<feBlend mode="normal" in="SourceGraphic" in2="BackgroundImageFix" result="shape"/>
<feColorMatrix in="SourceAlpha" type="matrix" values="0 0 0 0 0 0 0 0 0 0 0 0 0 0 0 0 0 0 127 0" result="hardAlpha"/>
<feOffset dx="13" dy="4"/>
<feGaussianBlur stdDeviation="3.5"/>
<feComposite in2="hardAlpha" operator="arithmetic" k2="-1" k3="1"/>
<feColorMatrix type="matrix" values="0 0 0 0 0 0 0 0 0 0 0 0 0 0 0 0 0 0 0.25 0"/>
<feBlend mode="normal" in2="shape" result="effect1_innerShadow_638_89"/>
</filter>
<filter id="filter7_i_638_89" x="204.992" y="663.483" width="688.34" height="65.8376" filterUnits="userSpaceOnUse" color-interpolation-filters="sRGB">
<feFlood flood-opacity="0" result="BackgroundImageFix"/>
<feBlend mode="normal" in="SourceGraphic" in2="BackgroundImageFix" result="shape"/>
<feColorMatrix in="SourceAlpha" type="matrix" values="0 0 0 0 0 0 0 0 0 0 0 0 0 0 0 0 0 0 127 0" result="hardAlpha"/>
<feOffset dx="23" dy="12"/>
<feGaussianBlur stdDeviation="8"/>
<feComposite in2="hardAlpha" operator="arithmetic" k2="-1" k3="1"/>
<feColorMatrix type="matrix" values="0 0 0 0 0.0244444 0 0 0 0 0.135667 0 0 0 0 0.183333 0 0 0 0.47 0"/>
<feBlend mode="normal" in2="shape" result="effect1_innerShadow_638_89"/>
</filter>
<filter id="filter8_i_638_89" x="485.755" y="503.778" width="51.5388" height="46.6423" filterUnits="userSpaceOnUse" color-interpolation-filters="sRGB">
<feFlood flood-opacity="0" result="BackgroundImageFix"/>
<feBlend mode="normal" in="SourceGraphic" in2="BackgroundImageFix" result="shape"/>
<feColorMatrix in="SourceAlpha" type="matrix" values="0 0 0 0 0 0 0 0 0 0 0 0 0 0 0 0 0 0 127 0" result="hardAlpha"/>
<feOffset dx="9" dy="2"/>
<feGaussianBlur stdDeviation="4.5"/>
<feComposite in2="hardAlpha" operator="arithmetic" k2="-1" k3="1"/>
<feColorMatrix type="matrix" values="0 0 0 0 0 0 0 0 0 0 0 0 0 0 0 0 0 0 0.25 0"/>
<feBlend mode="normal" in2="shape" result="effect1_innerShadow_638_89"/>
</filter>
<filter id="filter9_i_638_89" x="256.898" y="591.356" width="28.6201" height="21.8604" filterUnits="userSpaceOnUse" color-interpolation-filters="sRGB">
<feFlood flood-opacity="0" result="BackgroundImageFix"/>
<feBlend mode="normal" in="SourceGraphic" in2="BackgroundImageFix" result="shape"/>
<feColorMatrix in="SourceAlpha" type="matrix" values="0 0 0 0 0 0 0 0 0 0 0 0 0 0 0 0 0 0 127 0" result="hardAlpha"/>
<feOffset dx="6" dy="4"/>
<feGaussianBlur stdDeviation="3.5"/>
<feComposite in2="hardAlpha" operator="arithmetic" k2="-1" k3="1"/>
<feColorMatrix type="matrix" values="0 0 0 0 0 0 0 0 0 0 0 0 0 0 0 0 0 0 0.25 0"/>
<feBlend mode="normal" in2="shape" result="effect1_innerShadow_638_89"/>
</filter>
<filter id="filter10_i_638_89" x="792.516" y="574.861" width="32.5957" height="29.6541" filterUnits="userSpaceOnUse" color-interpolation-filters="sRGB">
<feFlood flood-opacity="0" result="BackgroundImageFix"/>
<feBlend mode="normal" in="SourceGraphic" in2="BackgroundImageFix" result="shape"/>
<feColorMatrix in="SourceAlpha" type="matrix" values="0 0 0 0 0 0 0 0 0 0 0 0 0 0 0 0 0 0 127 0" result="hardAlpha"/>
<feOffset dy="4"/>
<feGaussianBlur stdDeviation="3.5"/>
<feComposite in2="hardAlpha" operator="arithmetic" k2="-1" k3="1"/>
<feColorMatrix type="matrix" values="0 0 0 0 0 0 0 0 0 0 0 0 0 0 0 0 0 0 0.42 0"/>
<feBlend mode="normal" in2="shape" result="effect1_innerShadow_638_89"/>
</filter>
<filter id="filter11_i_638_89" x="663.958" y="450.239" width="17.4902" height="22.9539" filterUnits="userSpaceOnUse" color-interpolation-filters="sRGB">
<feFlood flood-opacity="0" result="BackgroundImageFix"/>
<feBlend mode="normal" in="SourceGraphic" in2="BackgroundImageFix" result="shape"/>
<feColorMatrix in="SourceAlpha" type="matrix" values="0 0 0 0 0 0 0 0 0 0 0 0 0 0 0 0 0 0 127 0" result="hardAlpha"/>
<feOffset dy="4"/>
<feGaussianBlur stdDeviation="5"/>
<feComposite in2="hardAlpha" operator="arithmetic" k2="-1" k3="1"/>
<feColorMatrix type="matrix" values="0 0 0 0 0 0 0 0 0 0 0 0 0 0 0 0 0 0 0.66 0"/>
<feBlend mode="normal" in2="shape" result="effect1_innerShadow_638_89"/>
</filter>
<filter id="filter12_i_638_89" x="390.378" y="515.339" width="12.9683" height="18.9722" filterUnits="userSpaceOnUse" color-interpolation-filters="sRGB">
<feFlood flood-opacity="0" result="BackgroundImageFix"/>
<feBlend mode="normal" in="SourceGraphic" in2="BackgroundImageFix" result="shape"/>
<feColorMatrix in="SourceAlpha" type="matrix" values="0 0 0 0 0 0 0 0 0 0 0 0 0 0 0 0 0 0 127 0" result="hardAlpha"/>
<feOffset dy="4"/>
<feGaussianBlur stdDeviation="7.5"/>
<feComposite in2="hardAlpha" operator="arithmetic" k2="-1" k3="1"/>
<feColorMatrix type="matrix" values="0 0 0 0 0 0 0 0 0 0 0 0 0 0 0 0 0 0 0.28 0"/>
<feBlend mode="normal" in2="shape" result="effect1_innerShadow_638_89"/>
</filter>
<filter id="filter13_i_638_89" x="490.236" y="445.32" width="17.5453" height="21.5227" filterUnits="userSpaceOnUse" color-interpolation-filters="sRGB">
<feFlood flood-opacity="0" result="BackgroundImageFix"/>
<feBlend mode="normal" in="SourceGraphic" in2="BackgroundImageFix" result="shape"/>
<feColorMatrix in="SourceAlpha" type="matrix" values="0 0 0 0 0 0 0 0 0 0 0 0 0 0 0 0 0 0 127 0" result="hardAlpha"/>
<feOffset dy="4"/>
<feGaussianBlur stdDeviation="2.5"/>
<feComposite in2="hardAlpha" operator="arithmetic" k2="-1" k3="1"/>
<feColorMatrix type="matrix" values="0 0 0 0 0 0 0 0 0 0 0 0 0 0 0 0 0 0 0.51 0"/>
<feBlend mode="normal" in2="shape" result="effect1_innerShadow_638_89"/>
</filter>
<radialGradient id="paint0_radial_638_89" cx="0" cy="0" r="1" gradientUnits="userSpaceOnUse" gradientTransform="translate(607.369 504.397) rotate(89.3525) scale(465.253 400.235)">
<stop stop-color="#8AC7FF" stop-opacity="0.61"/>
<stop offset="1" stop-color="#4187AE" stop-opacity="0"/>
</radialGradient>
<linearGradient id="paint1_linear_638_89" x1="530.141" y1="489.685" x2="530.141" y2="692.21" gradientUnits="userSpaceOnUse">
<stop stop-color="#0B78D3"/>
<stop offset="1" stop-color="#D5ECFF"/>
</linearGradient>
<linearGradient id="paint2_linear_638_89" x1="522.944" y1="602.176" x2="522.944" y2="674.079" gradientUnits="userSpaceOnUse">
<stop stop-color="#0B78D3"/>
<stop offset="1" stop-color="#D5ECFF"/>
</linearGradient>
<linearGradient id="paint3_linear_638_89" x1="526.151" y1="657.958" x2="526.151" y2="710.303" gradientUnits="userSpaceOnUse">
<stop stop-color="#0B78D3"/>
<stop offset="1" stop-color="#D5ECFF"/>
</linearGradient>
<linearGradient id="paint4_linear_638_89" x1="345.332" y1="671.5" x2="345.332" y2="690.36" gradientUnits="userSpaceOnUse">
<stop stop-color="white"/>
<stop offset="1" stop-color="white" stop-opacity="0"/>
</linearGradient>
<linearGradient id="paint5_linear_638_89" x1="498.218" y1="668.658" x2="498.218" y2="700.077" gradientUnits="userSpaceOnUse">
<stop stop-color="white"/>
<stop offset="1" stop-color="white" stop-opacity="0"/>
</linearGradient>
<linearGradient id="paint6_linear_638_89" x1="727.088" y1="669.163" x2="727.088" y2="675.556" gradientUnits="userSpaceOnUse">
<stop stop-color="white"/>
<stop offset="1" stop-color="white" stop-opacity="0"/>
</linearGradient>
<linearGradient id="paint7_linear_638_89" x1="705.031" y1="659.559" x2="705.031" y2="667.665" gradientUnits="userSpaceOnUse">
<stop stop-color="white"/>
<stop offset="1" stop-color="white" stop-opacity="0"/>
</linearGradient>
<linearGradient id="paint8_linear_638_89" x1="540.808" y1="484.933" x2="540.808" y2="691.092" gradientUnits="userSpaceOnUse">
<stop stop-color="#0B78D3"/>
<stop offset="1" stop-color="#D5ECFF"/>
</linearGradient>
<linearGradient id="paint9_linear_638_89" x1="543.837" y1="606.499" x2="543.837" y2="656.487" gradientUnits="userSpaceOnUse">
<stop stop-color="white"/>
<stop offset="1" stop-color="white" stop-opacity="0"/>
</linearGradient>
<linearGradient id="paint10_linear_638_89" x1="352.517" y1="526.08" x2="352.517" y2="565.876" gradientUnits="userSpaceOnUse">
<stop stop-color="white"/>
<stop offset="1" stop-color="white" stop-opacity="0"/>
</linearGradient>
<linearGradient id="paint11_linear_638_89" x1="481.046" y1="560.132" x2="481.046" y2="577.818" gradientUnits="userSpaceOnUse">
<stop stop-color="white"/>
<stop offset="1" stop-color="white" stop-opacity="0"/>
</linearGradient>
<linearGradient id="paint12_linear_638_89" x1="485.83" y1="584.773" x2="485.83" y2="593.741" gradientUnits="userSpaceOnUse">
<stop stop-color="white"/>
<stop offset="1" stop-color="white" stop-opacity="0"/>
</linearGradient>
<linearGradient id="paint13_linear_638_89" x1="713.591" y1="487.55" x2="713.591" y2="519.044" gradientUnits="userSpaceOnUse">
<stop stop-color="white"/>
<stop offset="1" stop-color="white" stop-opacity="0"/>
</linearGradient>
<linearGradient id="paint14_linear_638_89" x1="534.423" y1="667.575" x2="534.423" y2="690.975" gradientUnits="userSpaceOnUse">
<stop stop-color="#0B78D3"/>
<stop offset="1" stop-color="#D5ECFF"/>
</linearGradient>
<linearGradient id="paint15_linear_638_89" x1="541.908" y1="663.483" x2="541.908" y2="713.343" gradientUnits="userSpaceOnUse">
<stop stop-color="#0B78D3"/>
<stop offset="1" stop-color="#D5ECFF"/>
</linearGradient>
<linearGradient id="paint16_linear_638_89" x1="386.141" y1="675.04" x2="386.141" y2="706.076" gradientUnits="userSpaceOnUse">
<stop stop-color="white"/>
<stop offset="1" stop-color="white" stop-opacity="0"/>
</linearGradient>
<linearGradient id="paint17_linear_638_89" x1="670.451" y1="668.647" x2="670.451" y2="707.608" gradientUnits="userSpaceOnUse">
<stop stop-color="white"/>
<stop offset="1" stop-color="white" stop-opacity="0"/>
</linearGradient>
<linearGradient id="paint18_linear_638_89" x1="735.719" y1="690.658" x2="735.719" y2="712.117" gradientUnits="userSpaceOnUse">
<stop stop-color="white"/>
<stop offset="1" stop-color="white" stop-opacity="0"/>
</linearGradient>
<linearGradient id="paint19_linear_638_89" x1="507.025" y1="503.778" x2="507.025" y2="548.42" gradientUnits="userSpaceOnUse">
<stop stop-color="#0B78D3"/>
<stop offset="1" stop-color="#D5ECFF"/>
</linearGradient>
<linearGradient id="paint20_linear_638_89" x1="499.009" y1="445.32" x2="499.009" y2="462.843" gradientUnits="userSpaceOnUse">
<stop stop-color="#0B78D3"/>
<stop offset="1" stop-color="#D5ECFF"/>
</linearGradient>
<linearGradient id="paint21_linear_638_89" x1="672.703" y1="450.239" x2="672.703" y2="469.193" gradientUnits="userSpaceOnUse">
<stop stop-color="#0B78D3"/>
<stop offset="1" stop-color="#D5ECFF"/>
</linearGradient>
<linearGradient id="paint22_linear_638_89" x1="268.208" y1="591.356" x2="268.208" y2="609.216" gradientUnits="userSpaceOnUse">
<stop stop-color="#0B78D3"/>
<stop offset="1" stop-color="#D5ECFF"/>
</linearGradient>
<linearGradient id="paint23_linear_638_89" x1="808.814" y1="574.861" x2="808.814" y2="600.515" gradientUnits="userSpaceOnUse">
<stop stop-color="#0B78D3"/>
<stop offset="1" stop-color="#D5ECFF"/>
</linearGradient>
<linearGradient id="paint24_linear_638_89" x1="396.862" y1="515.339" x2="396.862" y2="530.311" gradientUnits="userSpaceOnUse">
<stop stop-color="#0B78D3"/>
<stop offset="1" stop-color="#D5ECFF"/>
</linearGradient>
<linearGradient id="paint25_linear_638_89" x1="503.662" y1="506.564" x2="503.662" y2="521.685" gradientUnits="userSpaceOnUse">
<stop stop-color="white"/>
<stop offset="1" stop-color="white" stop-opacity="0"/>
</linearGradient>
<linearGradient id="paint26_linear_638_89" x1="513.377" y1="535.551" x2="513.377" y2="545.445" gradientUnits="userSpaceOnUse">
<stop stop-color="white"/>
<stop offset="1" stop-color="white" stop-opacity="0"/>
</linearGradient>
<linearGradient id="paint27_linear_638_89" x1="498.873" y1="454.853" x2="498.873" y2="460.805" gradientUnits="userSpaceOnUse">
<stop stop-color="white"/>
<stop offset="1" stop-color="white" stop-opacity="0"/>
</linearGradient>
<linearGradient id="paint28_linear_638_89" x1="674.942" y1="452.078" x2="674.942" y2="460.661" gradientUnits="userSpaceOnUse">
<stop stop-color="white"/>
<stop offset="1" stop-color="white" stop-opacity="0"/>
</linearGradient>
<linearGradient id="paint29_linear_638_89" x1="396.388" y1="517.164" x2="396.388" y2="523.985" gradientUnits="userSpaceOnUse">
<stop stop-color="white"/>
<stop offset="1" stop-color="white" stop-opacity="0"/>
</linearGradient>
<linearGradient id="paint30_linear_638_89" x1="261.412" y1="593.265" x2="261.412" y2="600.298" gradientUnits="userSpaceOnUse">
<stop stop-color="white"/>
<stop offset="1" stop-color="white" stop-opacity="0"/>
</linearGradient>
<linearGradient id="paint31_linear_638_89" x1="808.812" y1="577.559" x2="808.812" y2="593.714" gradientUnits="userSpaceOnUse">
<stop stop-color="white"/>
<stop offset="1" stop-color="white" stop-opacity="0"/>
</linearGradient>
<linearGradient id="paint32_linear_638_89" x1="557.313" y1="146.32" x2="557.313" y2="438.591" gradientUnits="userSpaceOnUse">
<stop stop-color="#F7FBFF"/>
<stop offset="1" stop-color="#6CA1CD" stop-opacity="0"/>
</linearGradient>
<linearGradient id="paint33_linear_638_89" x1="557.313" y1="146.32" x2="557" y2="441.82" gradientUnits="userSpaceOnUse">
<stop stop-color="#F7FBFF"/>
<stop offset="1" stop-color="#6CA1CD" stop-opacity="0"/>
</linearGradient>
<linearGradient id="paint34_linear_638_89" x1="553.564" y1="148.727" x2="553.564" y2="425.193" gradientUnits="userSpaceOnUse">
<stop stop-color="#F7FBFF"/>
<stop offset="1" stop-color="#6CA1CD" stop-opacity="0"/>
</linearGradient>
<linearGradient id="paint35_linear_638_89" x1="553.565" y1="148.727" x2="553.565" y2="425.214" gradientUnits="userSpaceOnUse">
<stop stop-color="#F7FBFF"/>
<stop offset="1" stop-color="#6CA1CD" stop-opacity="0"/>
</linearGradient>
<linearGradient id="paint36_linear_638_89" x1="546.308" y1="153.774" x2="546.308" y2="405.018" gradientUnits="userSpaceOnUse">
<stop stop-color="#F7FBFF"/>
<stop offset="1" stop-color="#6CA1CD" stop-opacity="0"/>
</linearGradient>
<linearGradient id="paint37_linear_638_89" x1="556.278" y1="403.138" x2="556.278" y2="434.923" gradientUnits="userSpaceOnUse">
<stop stop-color="#F7FBFF"/>
<stop offset="1" stop-color="#6CA1CD" stop-opacity="0"/>
</linearGradient>
<linearGradient id="paint38_linear_638_89" x1="546.308" y1="153.774" x2="546.308" y2="405.018" gradientUnits="userSpaceOnUse">
<stop stop-color="#F7FBFF"/>
<stop offset="1" stop-color="#6CA1CD" stop-opacity="0"/>
</linearGradient>
<linearGradient id="paint39_linear_638_89" x1="556.2" y1="402.695" x2="556.278" y2="434.923" gradientUnits="userSpaceOnUse">
<stop stop-color="#193C5C"/>
<stop offset="1" stop-color="white" stop-opacity="0"/>
</linearGradient>
<linearGradient id="paint40_linear_638_89" x1="559.124" y1="258.911" x2="547.348" y2="397.322" gradientUnits="userSpaceOnUse">
<stop stop-color="#3E69D7"/>
<stop offset="0.545488" stop-color="#9D9D9D" stop-opacity="0.454512"/>
<stop offset="1" stop-color="white" stop-opacity="0"/>
</linearGradient>
<linearGradient id="paint41_linear_638_89" x1="534.409" y1="305.637" x2="534.409" y2="333.676" gradientUnits="userSpaceOnUse">
<stop stop-color="#ACE1FF"/>
<stop offset="1" stop-color="#DADADA" stop-opacity="0"/>
</linearGradient>
<linearGradient id="paint42_linear_638_89" x1="557.325" y1="413.526" x2="557.325" y2="427.241" gradientUnits="userSpaceOnUse">
<stop stop-color="#6DB1D7"/>
<stop offset="1" stop-color="white" stop-opacity="0"/>
</linearGradient>
</defs>
</svg>
