<svg width="1040" height="927" viewBox="0 0 1040 927" fill="none" xmlns="http://www.w3.org/2000/svg">
<g filter="url(#filter0_f_103_1934)">
<ellipse cx="572.535" cy="463.306" rx="283.503" ry="441.89" transform="rotate(67 572.535 463.306)" fill="url(#paint0_radial_103_1934)"/>
</g>
<g filter="url(#filter1_d_103_1934)">
<g filter="url(#filter2_df_103_1934)">
<path d="M545.5 737.699C740.287 755.075 901 725.006 901 709.349C901 693.692 741.837 681 545.5 681C349.163 681 190 693.692 190 709.349C190 721.628 267.496 742.98 404.443 746.92C442.115 748.004 503.142 737.699 545.5 737.699Z" fill="#F5F5F5" fill-opacity="0.9" shape-rendering="crispEdges"/>
</g>
</g>
<path d="M404.059 638.983C390.119 610.078 400.474 570.156 425.036 560.008C453.641 548.3 458.619 600.621 496.34 607.255C534.061 613.889 553.398 588.676 563.085 556.493C569.112 536.453 562.704 489.364 588.735 489.364C608.339 489.364 608.72 517.48 598.918 536.493C588.201 557.283 586.732 590.176 595.905 601.45C605.078 612.724 624.377 585.438 644.172 587.531C663.967 589.624 653.993 632.27 661.526 639.891C669.059 647.513 632.31 683.841 545.827 690.653C485.47 695.411 427.763 688.106 404.059 638.983Z" fill="url(#paint1_linear_103_1934)"/>
<g opacity="0.5" filter="url(#filter3_i_103_1934)">
<path d="M404.059 638.983C390.119 610.078 400.474 570.156 425.036 560.008C453.641 548.3 458.619 600.621 496.34 607.255C534.061 613.889 553.398 588.676 563.085 556.493C569.112 536.453 562.704 489.364 588.735 489.364C608.339 489.364 608.72 517.48 598.918 536.493C588.201 557.283 586.732 590.176 595.905 601.45C605.078 612.724 624.377 585.438 644.172 587.531C663.967 589.624 653.993 632.27 661.526 639.891C669.059 647.513 632.31 683.841 545.827 690.653C485.47 695.411 427.763 688.106 404.059 638.983Z" fill="white" fill-opacity="0.67"/>
</g>
<path opacity="0.2" d="M592.969 492.919C589.326 486.462 577.884 492.78 575.253 503.975C572.621 515.17 599.395 504.232 592.969 492.919Z" fill="white" fill-opacity="0.67"/>
<path opacity="0.2" d="M408.274 606.248C407.015 597.442 409.227 579.337 419.716 568.596C432.779 555.269 447.692 559.751 457.856 584.392C457.856 584.392 445.289 562.259 433.523 565.497C422.614 568.498 411.973 580.601 414.643 606.959C416.054 620.227 409.532 615.153 408.274 606.248Z" fill="white" fill-opacity="0.67"/>
<path opacity="0.2" d="M654.089 610.078C654.089 610.078 653.574 593.612 643.276 590.65C632.978 587.689 612.096 603.306 612.096 603.306C612.096 603.306 629.393 591.144 638.489 592.112C647.586 593.079 647.338 614.501 650.465 615.014C653.593 615.528 654.356 612.862 654.089 610.078Z" fill="white" fill-opacity="0.67"/>
<path d="M406.881 624.926C406.881 624.926 426.314 636.12 432.95 633.771C439.587 631.421 440.922 610.75 460.945 609.822C480.969 608.894 505.455 628.045 516.249 628.558C527.043 629.072 547.181 596.317 567.052 602.674C586.923 609.032 587.171 621.016 597.736 620.227C608.301 619.437 616.272 607.531 627.409 612.151C638.546 616.771 651.381 647.058 614.861 663.189C578.342 679.32 442.085 684.039 406.881 624.926Z" fill="url(#paint2_linear_103_1934)"/>
<path opacity="0.4" d="M406.881 624.926C406.881 624.926 426.314 636.12 432.95 633.771C439.587 631.421 440.922 610.75 460.945 609.822C480.969 608.894 505.455 628.045 516.249 628.558C527.043 629.072 547.181 596.317 567.052 602.674C586.923 609.032 587.171 621.016 597.736 620.227C608.301 619.437 616.272 607.531 627.409 612.151C638.546 616.771 651.381 647.058 614.861 663.189C578.342 679.32 442.085 684.039 406.881 624.926Z" fill="white" fill-opacity="0.67"/>
<path d="M300.012 688.106C300.012 688.106 307.64 664.986 329.685 668.362C351.73 671.739 351.063 680.209 357.852 671.265C364.641 662.321 371.43 662.992 395.058 668.007C418.686 673.022 472.94 681.176 557.517 678.432C642.093 675.687 695.509 657.326 708 657.641C720.491 657.957 711.928 665.223 718.469 668.876C725.011 672.528 736.567 657.582 751.652 683.802C766.736 710.022 509.746 709.982 509.746 709.982C509.746 709.982 307.545 707.297 300.012 688.106Z" fill="url(#paint3_linear_103_1934)"/>
<g opacity="0.5" filter="url(#filter4_i_103_1934)">
<path d="M300.012 688.106C300.012 688.106 307.64 664.986 329.685 668.362C351.73 671.739 351.063 680.209 357.852 671.265C364.641 662.321 371.43 662.992 395.058 668.007C418.686 673.022 472.941 681.176 557.517 678.432C642.093 675.687 695.509 657.326 708 657.641C720.491 657.957 711.928 665.223 718.47 668.876C725.011 672.528 736.567 657.582 751.652 683.802C766.736 710.022 509.746 709.982 509.746 709.982C509.746 709.982 307.545 707.297 300.012 688.106Z" fill="white" fill-opacity="0.67"/>
</g>
<g opacity="0.2" filter="url(#filter5_i_103_1934)">
<path d="M317.232 673.062C324.002 668.185 342.501 673.733 350.796 678.985C359.092 684.237 373.432 687.889 373.432 687.889C373.432 687.889 364.946 694.76 350.796 683.94C336.646 673.121 317.232 673.062 317.232 673.062Z" fill="url(#paint4_linear_103_1934)" fill-opacity="0.67"/>
</g>
<path opacity="0.2" d="M364.507 671.087C366.814 669.258 369.65 668.291 372.555 668.343C375.442 668.293 378.324 668.611 381.136 669.29C386.787 670.604 392.218 672.78 397.251 675.747C406.639 682.276 417.054 687.06 428.03 689.883C433.497 691.273 439.055 692.249 444.659 692.805C450.264 693.319 455.895 693.457 461.517 693.22C467.238 692.944 472.845 692.628 478.49 692.035L495.481 690.179C501.202 689.627 506.923 689.232 512.74 689.212C518.556 689.192 524.182 689.449 529.903 689.982C532.783 690.219 535.624 690.594 538.485 690.91L546.99 692.075L563.905 694.78C575.196 696.493 586.576 697.502 597.984 697.801C609.364 698.337 620.764 697.422 631.929 695.076C626.453 696.805 620.825 697.969 615.128 698.551C609.445 699.222 603.724 699.617 597.965 699.735C586.492 699.888 575.024 699.228 563.638 697.761C541.021 694.523 518.461 691.246 495.92 694.029C484.63 695.214 473.169 696.596 461.689 696.873C450.123 697.278 438.561 695.948 427.363 692.924C421.767 691.368 416.327 689.266 411.115 686.645C408.521 685.342 405.985 683.881 403.487 682.341C400.988 680.801 398.643 679.064 396.316 677.464C391.558 674.33 386.379 671.942 380.946 670.376C378.23 669.579 375.432 669.122 372.612 669.014C369.761 668.725 366.9 669.457 364.507 671.087V671.087Z" fill="url(#paint5_linear_103_1934)" fill-opacity="0.67"/>
<path opacity="0.2" d="M735.728 670.416C734.546 666.329 720.853 671.186 718.565 673.93C716.277 676.674 737.025 674.897 735.728 670.416Z" fill="url(#paint6_linear_103_1934)" fill-opacity="0.67"/>
<path opacity="0.2" d="M709.354 659.478C712.997 657.504 707.829 668.422 702.565 667.257C697.302 666.092 699.533 664.592 703.69 663.407C707.848 662.222 706.875 660.84 709.354 659.478Z" fill="url(#paint7_linear_103_1934)" fill-opacity="0.67"/>
<path d="M339.907 526.76C361.151 504.686 378.238 564.826 392.293 592.112C410.638 627.651 434.934 651.048 454.462 639.932C473.989 628.816 456.864 562.496 482.056 557.659C507.248 552.822 495.119 624.117 526.318 630.711C557.517 637.306 566.537 574.185 588.678 575.429C610.818 576.672 599.738 619.951 610.799 630.711C621.86 641.472 694.289 569.821 699.323 518.171C704.358 466.521 736.548 484.034 732.524 507.529C728.5 531.025 685.249 572.98 674.169 606.683C663.09 640.386 722.455 606.999 745.587 619.536C768.72 632.074 675.886 690.772 548.802 690.772C421.718 690.772 341.223 660.426 333.175 639.932C325.127 619.438 389.699 650.278 392.521 635.075C398.433 603.169 320.627 546.8 339.907 526.76Z" fill="url(#paint8_linear_103_1934)"/>
<g opacity="0.6" filter="url(#filter6_i_103_1934)">
<path d="M678.079 669.745C636.315 683.704 592.688 690.76 548.802 690.654C482.056 690.654 428.068 682.302 390.767 671.403C357.108 661.532 336.989 649.685 333.175 639.932C325.127 619.457 389.699 650.278 392.521 635.075C398.433 603.169 320.627 546.8 339.907 526.76C361.151 504.686 378.238 564.826 392.293 592.112C410.638 627.651 434.934 651.048 454.462 639.932C473.989 628.816 456.864 562.496 482.056 557.659C507.248 552.822 495.119 624.117 526.318 630.711C557.517 637.306 566.537 574.185 588.678 575.429C610.818 576.672 599.738 619.951 610.799 630.711C621.86 641.472 694.289 569.821 699.323 518.171C704.358 466.521 736.548 484.034 732.524 507.529C728.5 531.025 685.249 572.98 674.169 606.683C663.09 640.386 722.455 606.999 745.587 619.536C759.623 627.019 731.056 651.561 678.079 669.745Z" fill="white" fill-opacity="0.67"/>
</g>
<path opacity="0.2" d="M347.783 648.618C346.825 647.437 345.946 646.191 345.151 644.887C344.756 644.225 344.442 643.516 344.217 642.774C344.071 642.384 344.029 641.961 344.092 641.549C344.156 641.136 344.324 640.748 344.579 640.425C345.177 639.872 345.934 639.539 346.734 639.477C347.479 639.369 348.232 639.329 348.984 639.358C350.48 639.433 351.97 639.598 353.447 639.852C359.291 641.011 365.071 642.494 370.762 644.294C376.331 646.052 382.204 647.394 387.716 645.992C395.63 644.018 397.155 636.535 399.387 629.625C400.092 627.473 401.961 625.301 404.135 625.676C405.092 625.938 405.961 626.463 406.652 627.196C410.466 630.533 413.193 634.738 417.37 637.364C422.358 640.716 427.528 643.768 432.855 646.506C437.969 649.031 443.551 650.378 449.217 650.454C452.019 650.445 454.809 650.093 457.532 649.408C460.112 648.773 462.519 647.537 464.569 645.795C468.669 642.32 471.033 636.89 472.731 631.263C473.589 628.44 474.314 625.498 475.076 622.517C475.8 619.391 476.776 616.333 477.994 613.375C478.708 611.68 479.716 610.134 480.969 608.815C482.454 607.303 484.405 606.38 486.48 606.209C488.479 606.048 490.478 606.53 492.201 607.591C493.705 608.531 495.056 609.71 496.206 611.085C498.224 613.572 500.012 616.249 501.546 619.081L505.951 627.097C508.656 632.31 511.919 637.191 515.677 641.649C519.193 645.847 523.967 648.704 529.236 649.763C534.467 650.52 539.774 649.1 543.996 645.815C548.619 642.404 552.826 638.426 556.525 633.968C560.473 629.487 564.249 624.748 568.768 620.325C571.121 617.924 573.857 615.96 576.854 614.521C578.589 613.755 580.461 613.378 582.346 613.415C584.532 613.438 586.635 614.288 588.258 615.804C589.679 617.268 590.676 619.115 591.138 621.135C591.544 622.799 591.806 624.497 591.92 626.209C592.148 629.447 592.129 632.527 592.225 635.528C592.241 638.374 592.567 641.209 593.197 643.978C593.406 645.114 593.84 646.193 594.47 647.147C595.1 648.102 595.913 648.912 596.859 649.526C600.52 651.896 606.089 649.369 610.933 646.525C615.887 643.413 620.628 639.949 625.121 636.16C629.717 632.389 634.217 628.44 638.794 624.511C643.361 620.458 648.149 616.681 653.135 613.198C654.484 612.295 655.9 611.503 657.369 610.829C658.208 610.46 659.084 610.188 659.981 610.019C661.163 609.761 662.394 609.906 663.49 610.434C664.407 610.914 665.219 611.584 665.875 612.402C666.531 613.221 667.017 614.171 667.304 615.192C667.715 617.017 667.715 618.915 667.304 620.74C666.675 623.998 665.626 626.861 665.397 629.506C665.237 630.624 665.403 631.765 665.874 632.784C666.396 633.671 667.219 634.326 668.181 634.62C670.856 635.104 673.592 635.104 676.267 634.62C679.128 634.225 681.988 633.672 684.906 633.06C690.627 631.836 696.348 630.414 702.203 629.111C708.057 627.808 713.816 626.525 719.709 625.557C722.646 625.084 725.621 624.689 728.615 624.491C731.644 624.213 734.695 624.339 737.692 624.866C739.248 625.138 740.738 625.721 742.078 626.584C742.464 626.843 742.796 627.179 743.055 627.572C743.314 627.965 743.494 628.408 743.585 628.874C743.687 629.788 743.478 630.71 742.994 631.481C741.168 634.013 738.865 636.136 736.224 637.72C731.162 640.942 725.871 643.76 720.396 646.15C725.696 643.491 730.796 640.422 735.652 636.969C738.097 635.38 740.217 633.307 741.888 630.869C742.197 630.334 742.331 629.711 742.269 629.092C742.11 628.521 741.74 628.038 741.239 627.749C740.036 627.036 738.706 626.58 737.33 626.406C734.462 626.031 731.559 626.031 728.691 626.406C715.742 627.808 703.137 632.981 691.314 638.47C682.236 642.695 672.091 646.367 662.498 643.603C661.276 643.312 660.13 642.746 659.142 641.945C656.129 639.2 657.006 633.652 653.955 630.967C650.904 628.282 646.918 629.941 643.619 631.579C632.692 637.068 623.71 644.966 613.412 651.323C610.698 653.065 607.782 654.444 604.735 655.43C603.042 655.963 601.278 656.21 599.509 656.16C597.618 656.044 595.771 655.513 594.094 654.601C592.401 653.664 590.959 652.307 589.898 650.652C587.095 646.367 586.675 640.78 583.758 636.298C583.32 635.551 582.766 634.883 582.117 634.324C581.107 633.607 579.927 633.191 578.704 633.119C572.163 632.389 565.87 635.923 560.663 640.128C553.55 645.894 547.181 652.705 538.161 655.232C534.9 656.163 531.482 656.338 528.149 655.746C524.891 655.146 521.768 653.928 518.938 652.152C518.938 651.224 511.729 646.486 510.68 645.538C507.591 642.695 504.826 639.398 501.946 636.298C501.128 635.373 500.242 634.514 499.296 633.731C493.956 629.585 488.597 631.54 484.669 636.318C482.285 639.22 480.359 642.517 477.899 645.361C465.637 659.497 446.204 657.622 431.177 650.119C420.516 644.788 404.192 625.459 398.395 645.834C397.613 648.638 396.488 651.6 393.875 652.903C391.657 653.769 389.225 653.859 386.953 653.159C380.849 651.839 374.869 649.962 369.084 647.552L364.355 645.736C359.454 643.761 354.057 640.523 348.812 640.227C347.414 639.944 345.963 640.196 344.731 640.938C344.506 641.203 344.353 641.527 344.289 641.874C344.226 642.221 344.253 642.58 344.369 642.912C344.558 643.642 344.833 644.345 345.189 645.005C345.977 646.266 346.843 647.473 347.783 648.618V648.618Z" fill="url(#paint9_linear_103_1934)" fill-opacity="0.67"/>
<path opacity="0.2" d="M356.078 565.556C356.078 565.556 335.33 539.751 341.757 530.017C348.183 520.283 360.999 528.872 364.012 539.415C367.025 549.958 355.602 548.636 352.264 548.122C348.927 547.609 356.078 565.556 356.078 565.556Z" fill="url(#paint10_linear_103_1934)" fill-opacity="0.67"/>
<path opacity="0.2" d="M487.739 562.496C485.642 555.23 474.524 564.055 473.78 573.039C473.036 582.022 491.878 576.889 487.739 562.496Z" fill="url(#paint11_linear_103_1934)" fill-opacity="0.67"/>
<path opacity="0.2" d="M481.046 587.571C480.493 584.273 487.892 582.635 490.276 587.571C492.659 592.507 482.762 597.798 481.046 587.571Z" fill="url(#paint12_linear_103_1934)" fill-opacity="0.67"/>
<path opacity="0.2" d="M717.078 487.469C724.534 485.396 728.024 497.222 720.892 506.601C713.759 515.979 709.945 494.438 708.82 497.005C707.695 499.572 702.413 509.72 702.413 518.723C702.375 518.684 701.612 491.734 717.078 487.469Z" fill="url(#paint13_linear_103_1934)" fill-opacity="0.67"/>
<path d="M678.079 669.745C636.315 683.703 592.688 690.76 548.802 690.654C482.056 690.654 428.068 682.302 390.767 671.403C396.85 672.173 403.525 672.252 408.14 670.219C418.705 665.539 426.257 666.27 436.059 673.338C445.861 680.407 463.215 685.362 482.838 683.842C502.461 682.322 497.922 673.733 520.978 677.642C544.034 681.552 541.078 688.166 568.196 688.107C595.314 688.047 610.151 675.332 626.704 671.798C640.682 668.797 646.327 678.531 678.079 669.745Z" fill="url(#paint14_linear_103_1934)"/>
<g opacity="0.5" filter="url(#filter7_i_103_1934)">
<path d="M678.079 669.745C636.315 683.703 592.688 690.76 548.802 690.654C482.056 690.654 428.068 682.302 390.767 671.403C396.85 672.173 403.525 672.252 408.14 670.219C418.705 665.539 426.257 666.27 436.059 673.338C445.861 680.407 463.215 685.362 482.838 683.842C502.461 682.322 497.922 673.733 520.978 677.642C544.034 681.552 541.078 688.166 568.196 688.107C595.314 688.047 610.151 675.332 626.704 671.798C640.682 668.797 646.327 678.531 678.079 669.745Z" fill="white" fill-opacity="0.67"/>
</g>
<path d="M781.401 686.547C778.578 685.796 776.154 683.925 774.652 681.339C773.149 678.753 772.69 675.66 773.373 672.726C774.517 668.185 773.811 664.177 763.227 663.486C752.643 662.795 744.5 669.606 736.72 675.115C730.274 679.695 723.981 683.368 716.448 681.038C705.006 677.583 701.897 669.448 692.324 665.44C688.514 663.928 684.467 663.158 680.386 663.17C678.152 663.135 675.918 663.221 673.693 663.426C646.708 665.894 620.391 696.991 577.636 701.157C534.881 705.323 482.571 697.524 442.848 688.58C403.124 679.636 390.119 688.699 372.955 692.805C360.77 695.767 336.188 689.508 316.431 682.44C309.49 680.011 302.673 677.217 296.007 674.068C277.623 665.144 270.358 671.462 269.461 677.918C268.565 684.375 282.62 691.285 263.397 697.761L263.073 697.88L261.738 698.294C234.734 706.863 218.487 713.023 218.487 713.023H865.329C865.329 713.023 831.956 700.505 781.401 686.547Z" fill="url(#paint15_linear_103_1934)"/>
<g opacity="0.7" filter="url(#filter8_i_103_1934)">
<path d="M781.401 686.547C778.578 685.796 776.154 683.925 774.652 681.339C773.15 678.753 772.69 675.66 773.373 672.726C774.517 668.185 773.811 664.177 763.227 663.486C752.643 662.795 744.5 669.606 736.72 675.115C730.274 679.695 723.981 683.368 716.448 681.038C705.006 677.583 701.898 669.448 692.324 665.44C688.514 663.928 684.467 663.158 680.386 663.17C678.152 663.135 675.918 663.221 673.693 663.426C646.708 665.894 620.391 696.991 577.636 701.157C534.881 705.323 482.571 697.524 442.848 688.58C403.124 679.636 390.119 688.699 372.955 692.805C360.77 695.767 336.188 689.508 316.431 682.44C309.49 680.011 302.673 677.217 296.007 674.068C277.623 665.144 270.358 671.462 269.461 677.918C268.565 684.375 282.62 691.285 263.397 697.761L263.073 697.88L261.738 698.294C234.735 706.863 179.488 707.721 218.487 713.023C257.486 718.326 823.987 718.326 865.329 713.023C906.672 707.721 831.956 700.505 781.401 686.547Z" fill="white" fill-opacity="0.67"/>
</g>
<path opacity="0.5" d="M273.599 680.11C273.514 679.454 273.561 678.787 273.738 678.152C273.916 677.516 274.219 676.925 274.629 676.418C275.596 675.456 276.858 674.876 278.195 674.779C280.762 674.59 283.341 674.85 285.823 675.549C290.629 676.908 295.282 678.788 299.707 681.157C304.016 683.249 308.536 685.105 313.056 686.784C317.575 688.462 322.152 690.14 326.767 691.621C335.959 694.444 345.342 697.268 354.495 698.038C359.162 698.383 363.846 698.383 368.512 698.038C373.162 697.615 377.768 696.783 382.281 695.55C391.472 693.141 401.16 689.883 411.363 689.015C421.37 688.54 431.397 689.202 441.265 690.989C460.735 694.03 479.653 699.044 498.723 703.428C488.94 702.914 479.234 701.453 469.546 700.348C459.858 699.242 450.19 697.88 440.559 696.912C435.734 696.438 431.024 696.122 426.142 695.905C421.45 695.643 416.745 695.748 412.068 696.221C407.413 696.913 402.797 697.868 398.242 699.084C393.627 700.308 389.012 701.828 384.149 703.033C379.209 704.333 374.168 705.179 369.084 705.56C363.999 705.906 358.894 705.793 353.828 705.224C348.791 704.586 343.811 703.536 338.934 702.085C334.128 700.723 329.399 699.104 324.803 697.327C315.479 693.935 306.431 689.783 297.742 684.908C295.53 683.625 293.642 682.302 291.506 681.117C289.42 679.915 287.26 678.853 285.042 677.938C282.898 676.952 280.609 676.344 278.272 676.142C277.15 676.045 276.027 676.321 275.068 676.931C274.628 677.33 274.27 677.818 274.018 678.364C273.765 678.911 273.623 679.505 273.599 680.11V680.11Z" fill="url(#paint16_linear_103_1934)" fill-opacity="0.67"/>
<path opacity="0.5" d="M571.591 706.922C580.394 705.98 589.087 704.149 597.546 701.453C601.76 700.19 605.956 698.808 610.075 697.248C612.153 696.498 614.213 695.747 616.254 694.898C618.294 694.049 620.335 693.26 622.356 692.351C630.431 688.871 638.307 684.916 645.946 680.505C653.574 676.063 662.098 671.304 671.633 669.705C676.484 668.814 681.453 668.881 686.279 669.903C691.114 670.996 695.667 673.15 699.629 676.221C700.601 676.951 701.536 677.741 702.451 678.55L704.911 680.762C706.449 682.075 708.11 683.226 709.869 684.197C711.601 685.194 713.455 685.944 715.381 686.428C717.288 686.961 719.261 687.2 721.235 687.139C725.297 687.079 729.261 685.841 732.677 683.565C734.336 682.44 736.224 680.959 738.036 679.617C739.848 678.274 741.85 676.951 743.757 675.668C747.599 673.175 751.724 671.186 756.038 669.745C758.197 669.023 760.431 668.572 762.694 668.402C764.948 668.157 767.225 668.511 769.311 669.429C767.185 668.812 764.944 668.751 762.789 669.251C760.649 669.681 758.559 670.343 756.553 671.226C752.57 673.085 748.802 675.403 745.321 678.136C743.566 679.478 741.85 680.88 740.191 682.341C738.532 683.802 736.968 685.303 735.08 686.942C731.232 690.089 726.606 692.053 721.731 692.608C719.262 692.859 716.772 692.753 714.332 692.292C711.901 691.854 709.535 691.091 707.295 690.022C705.046 688.971 702.927 687.645 700.983 686.073L698.313 683.862C697.493 683.21 696.673 682.598 695.834 682.006C692.534 679.697 688.821 678.095 684.913 677.294C681.006 676.494 676.983 676.512 673.083 677.346C669.013 678.181 665.037 679.451 661.221 681.137C659.314 681.986 657.407 682.934 655.5 683.941L649.474 687.238C641.481 691.548 633.195 695.25 624.683 698.314C622.547 699.084 620.392 699.815 618.237 700.466C616.082 701.118 613.908 701.789 611.734 702.441C607.386 703.605 602.981 704.573 598.556 705.442C589.677 707.217 580.603 707.715 571.591 706.922V706.922Z" fill="url(#paint17_linear_103_1934)" fill-opacity="0.67"/>
<path opacity="0.5" d="M808.863 700.17C802.646 698.196 796.429 696.123 790.098 694.721C786.964 693.939 783.776 693.418 780.562 693.161C779.781 693.161 779.018 693.161 778.255 693.161C777.513 693.214 776.775 693.306 776.043 693.437C774.712 693.588 773.442 694.099 772.362 694.918C771.959 695.485 771.626 696.102 771.371 696.754C770.899 697.683 770.25 698.502 769.464 699.163C768.026 700.298 766.431 701.203 764.734 701.848C761.471 703.199 757.966 703.811 754.455 703.645C750.946 703.448 747.8 702.599 744.71 702.342C743.19 702.176 741.66 702.136 740.134 702.223C738.646 702.354 737.176 702.645 735.747 703.092C729.759 704.849 723.962 708.068 717.593 710.279C715.957 710.829 714.288 711.264 712.596 711.582C710.808 711.868 708.988 711.868 707.199 711.582C703.854 710.905 700.635 709.678 697.664 707.949C694.727 706.409 691.943 704.79 688.987 703.586C686.148 702.292 683.04 701.755 679.948 702.026C673.712 702.717 667.819 706.113 662.575 710.022C664.938 707.66 667.57 705.605 670.413 703.902C673.275 702.095 676.417 700.813 679.7 700.111C683.113 699.564 686.604 699.924 689.845 701.157C692.94 702.315 695.976 703.633 698.942 705.106C701.709 706.54 704.665 707.545 707.714 708.087C710.71 708.323 713.718 707.815 716.487 706.607C722.456 704.454 728.215 701.197 734.756 699.163C736.457 698.672 738.201 698.354 739.962 698.215C741.686 698.125 743.415 698.184 745.13 698.393C748.524 698.729 751.747 699.558 754.665 699.795C757.683 700.029 760.715 699.585 763.552 698.492C764.904 698.017 766.188 697.353 767.366 696.517C767.874 696.143 768.297 695.658 768.605 695.096C769.014 694.204 769.547 693.379 770.188 692.648C771.719 691.423 773.561 690.689 775.49 690.535C776.369 690.42 777.254 690.354 778.141 690.338C778.999 690.338 779.876 690.338 780.715 690.555C784.063 691.017 787.367 691.77 790.593 692.806C796.831 694.846 802.934 697.306 808.863 700.17V700.17Z" fill="url(#paint18_linear_103_1934)" fill-opacity="0.67"/>
<path d="M500.726 503.461C515.276 503.146 533.374 523.205 526.966 540.303C522.885 551.202 508.506 548.616 500.497 544.845C485.164 537.638 476.85 503.975 500.726 503.461Z" fill="url(#paint19_linear_103_1934)"/>
<path d="M501.184 445C512.016 445 508.812 465.316 496.664 462.197C484.516 459.077 491.63 445 501.184 445Z" fill="url(#paint20_linear_103_1934)"/>
<path d="M665.645 464.803C659.352 458.288 672.186 442.73 679.223 453.767C686.26 464.803 675.199 474.695 665.645 464.803Z" fill="url(#paint21_linear_103_1934)"/>
<path d="M257.256 594.975C260.956 582.97 281.399 601.747 279.378 606.959C277.356 612.171 253.728 606.426 257.256 594.975Z" fill="url(#paint22_linear_103_1934)"/>
<path d="M823.012 575.705C834.34 585.36 796.314 602.339 792.843 599.97C789.372 597.601 814.526 568.42 823.012 575.705Z" fill="url(#paint23_linear_103_1934)"/>
<path d="M395.573 516.868C402.114 508.971 408.083 528.853 397.804 529.879C387.525 530.906 389.032 524.687 395.573 516.868Z" fill="url(#paint24_linear_103_1934)"/>
<g opacity="0.7" filter="url(#filter9_i_103_1934)">
<path d="M500.726 503.461C515.276 503.146 533.374 523.205 526.966 540.303C522.885 551.202 508.506 548.616 500.497 544.845C485.164 537.638 476.85 503.975 500.726 503.461Z" fill="white" fill-opacity="0.67"/>
</g>
<g opacity="0.7" filter="url(#filter10_i_103_1934)">
<path d="M257.256 594.975C260.956 582.97 281.399 601.747 279.378 606.959C277.356 612.171 253.728 606.426 257.256 594.975Z" fill="white" fill-opacity="0.67"/>
</g>
<g opacity="0.7" filter="url(#filter11_i_103_1934)">
<path d="M823.012 575.705C834.34 585.36 796.314 602.339 792.843 599.97C789.372 597.601 814.526 568.42 823.012 575.705Z" fill="white" fill-opacity="0.67"/>
</g>
<g opacity="0.6" filter="url(#filter12_i_103_1934)">
<path d="M665.645 464.803C659.352 458.288 672.186 442.73 679.223 453.767C686.26 464.803 675.199 474.695 665.645 464.803Z" fill="white" fill-opacity="0.67"/>
</g>
<g opacity="0.6" filter="url(#filter13_i_103_1934)">
<path d="M395.573 516.868C402.114 508.971 408.083 528.853 397.804 529.879C387.525 530.906 389.032 524.687 395.573 516.868Z" fill="white" fill-opacity="0.67"/>
</g>
<g opacity="0.5" filter="url(#filter14_i_103_1934)">
<path d="M501.184 445C512.016 445 508.812 465.316 496.664 462.197C484.516 459.077 491.63 445 501.184 445Z" fill="white" fill-opacity="0.67"/>
</g>
<path opacity="0.2" d="M493.384 508.674C498.647 501.31 515.277 512.445 515.277 518.684C515.277 524.924 485.47 519.731 493.384 508.674Z" fill="url(#paint25_linear_103_1934)"/>
<path opacity="0.2" d="M503.644 541.35C498.457 538.053 518.9 532.762 522.943 536.533C526.986 540.304 518.481 550.65 503.644 541.35Z" fill="url(#paint26_linear_103_1934)" fill-opacity="0.67"/>
<path opacity="0.2" d="M494.147 457.241C492.812 454.299 504.311 453.016 503.682 457.241C503.053 461.466 496.149 461.664 494.147 457.241Z" fill="url(#paint27_linear_103_1934)" fill-opacity="0.67"/>
<path opacity="0.2" d="M670.928 453.766C672.396 447.942 680.749 456.333 678.727 459.393C676.706 462.454 670.012 457.439 670.928 453.766Z" fill="url(#paint28_linear_103_1934)" fill-opacity="0.67"/>
<path opacity="0.2" d="M397.747 516.868C401.103 516.355 396.012 524.154 394.505 523.64C392.998 523.127 394.429 517.381 397.747 516.868Z" fill="url(#paint29_linear_103_1934)" fill-opacity="0.67"/>
<path opacity="0.2" d="M260.785 593.415C263.931 590.829 266.029 599.753 261.776 599.97C257.524 600.187 258.039 595.666 260.785 593.415Z" fill="url(#paint30_linear_103_1934)"/>
<path opacity="0.2" d="M798.927 593.158C798.393 595.488 820.781 579.85 818.55 577.54C816.319 575.23 800.452 586.721 798.927 593.158Z" fill="url(#paint31_linear_103_1934)" fill-opacity="0.67"/>
<g filter="url(#filter15_i_103_1934)">
<path d="M557.313 146C557.313 146 389.339 370.966 515.32 429.071C528.49 435.132 542.816 438.271 557.313 438.271C571.811 438.271 586.137 435.132 599.307 429.071C725.288 370.966 557.313 146 557.313 146Z" fill="url(#paint32_linear_103_1934)"/>
<path opacity="0.6" d="M557.313 146C557.313 146 389.339 370.966 515.32 429.071C528.49 435.132 542.816 438.271 557.313 438.271C571.811 438.271 586.137 435.132 599.307 429.071C725.288 370.966 557.313 146 557.313 146Z" fill="url(#paint33_linear_103_1934)"/>
<path d="M557.313 148.407C557.313 148.407 638.894 252.96 631.799 348.316C624.704 443.673 534.628 434.243 500.969 403.745C418.724 329.277 557.313 148.407 557.313 148.407Z" fill="url(#paint34_linear_103_1934)"/>
<path opacity="0.7" d="M557.313 148.407C557.313 148.407 418.724 329.277 500.969 403.745C534.628 434.279 624.686 443.691 631.799 348.316C638.912 252.942 557.313 148.407 557.313 148.407Z" fill="url(#paint35_linear_103_1934)"/>
<path d="M557.313 153.454C557.313 153.454 625.063 284.967 609.814 355.178C594.565 425.389 498.615 415.869 483.546 358.393C462.783 278.986 557.313 153.454 557.313 153.454Z" fill="url(#paint36_linear_103_1934)"/>
<path d="M556.307 410.966C586.321 410.966 605.575 402.452 609.078 405.578C613.981 409.996 592.912 434.603 556.307 434.603C523.582 434.603 500.34 410.266 502.98 404.392C505.62 398.519 527.246 410.966 556.307 410.966Z" fill="url(#paint37_linear_103_1934)"/>
<path opacity="0.8" d="M557.313 153.454C557.313 153.454 625.063 284.967 609.814 355.178C594.565 425.389 498.615 415.869 483.546 358.393C462.783 278.986 557.313 153.454 557.313 153.454Z" fill="url(#paint38_linear_103_1934)"/>
<path opacity="0.8" d="M556.307 410.966C586.321 410.966 605.575 402.452 609.078 405.578C613.981 409.996 592.912 434.603 556.307 434.603C523.582 434.603 500.34 410.266 502.98 404.392C505.62 398.519 527.246 410.966 556.307 410.966Z" fill="url(#paint39_linear_103_1934)"/>
<path opacity="0.5" d="M543.07 336.426C595.75 331.559 602.719 391.639 547.848 396.704C492.976 401.77 500.16 340.432 543.07 336.426Z" fill="url(#paint40_linear_103_1934)"/>
<path opacity="0.4" d="M532.167 333.337C552.266 334.288 557.906 299.21 532.167 306.251C513.631 311.316 516.721 332.618 532.167 333.337Z" fill="url(#paint41_linear_103_1934)"/>
<path opacity="0.5" d="M554.116 413.426C568.773 414.54 578.526 411.289 579.262 415.33C579.998 419.372 572.077 430.238 549.644 425.927C530.712 422.281 528.988 411.54 554.116 413.426Z" fill="url(#paint42_linear_103_1934)"/>
</g>
<defs>
<filter id="filter0_f_103_1934" x="0.854126" y="0.358398" width="1143.36" height="925.896" filterUnits="userSpaceOnUse" color-interpolation-filters="sRGB">
<feFlood flood-opacity="0" result="BackgroundImageFix"/>
<feBlend mode="normal" in="SourceGraphic" in2="BackgroundImageFix" result="shape"/>
<feGaussianBlur stdDeviation="75" result="effect1_foregroundBlur_103_1934"/>
</filter>
<filter id="filter1_d_103_1934" x="171" y="666" width="749" height="104" filterUnits="userSpaceOnUse" color-interpolation-filters="sRGB">
<feFlood flood-opacity="0" result="BackgroundImageFix"/>
<feColorMatrix in="SourceAlpha" type="matrix" values="0 0 0 0 0 0 0 0 0 0 0 0 0 0 0 0 0 0 127 0" result="hardAlpha"/>
<feOffset dy="4"/>
<feGaussianBlur stdDeviation="9.5"/>
<feComposite in2="hardAlpha" operator="out"/>
<feColorMatrix type="matrix" values="0 0 0 0 0 0 0 0 0 0 0 0 0 0 0 0 0 0 0.29 0"/>
<feBlend mode="normal" in2="BackgroundImageFix" result="effect1_dropShadow_103_1934"/>
<feBlend mode="normal" in="SourceGraphic" in2="effect1_dropShadow_103_1934" result="shape"/>
</filter>
<filter id="filter2_df_103_1934" x="167" y="658" width="757" height="112" filterUnits="userSpaceOnUse" color-interpolation-filters="sRGB">
<feFlood flood-opacity="0" result="BackgroundImageFix"/>
<feColorMatrix in="SourceAlpha" type="matrix" values="0 0 0 0 0 0 0 0 0 0 0 0 0 0 0 0 0 0 127 0" result="hardAlpha"/>
<feOffset dy="4"/>
<feGaussianBlur stdDeviation="9"/>
<feComposite in2="hardAlpha" operator="out"/>
<feColorMatrix type="matrix" values="0 0 0 0 0 0 0 0 0 0 0 0 0 0 0 0 0 0 0.25 0"/>
<feBlend mode="normal" in2="BackgroundImageFix" result="effect1_dropShadow_103_1934"/>
<feBlend mode="normal" in="SourceGraphic" in2="effect1_dropShadow_103_1934" result="shape"/>
<feGaussianBlur stdDeviation="11.5" result="effect2_foregroundBlur_103_1934"/>
</filter>
<filter id="filter3_i_103_1934" x="397.797" y="489.364" width="265.686" height="211.525" filterUnits="userSpaceOnUse" color-interpolation-filters="sRGB">
<feFlood flood-opacity="0" result="BackgroundImageFix"/>
<feBlend mode="normal" in="SourceGraphic" in2="BackgroundImageFix" result="shape"/>
<feColorMatrix in="SourceAlpha" type="matrix" values="0 0 0 0 0 0 0 0 0 0 0 0 0 0 0 0 0 0 127 0" result="hardAlpha"/>
<feOffset dx="1" dy="10"/>
<feGaussianBlur stdDeviation="4.5"/>
<feComposite in2="hardAlpha" operator="arithmetic" k2="-1" k3="1"/>
<feColorMatrix type="matrix" values="0 0 0 0 0 0 0 0 0 0 0 0 0 0 0 0 0 0 0.51 0"/>
<feBlend mode="normal" in2="shape" result="effect1_innerShadow_103_1934"/>
</filter>
<filter id="filter4_i_103_1934" x="300.012" y="657.637" width="457.279" height="56.345" filterUnits="userSpaceOnUse" color-interpolation-filters="sRGB">
<feFlood flood-opacity="0" result="BackgroundImageFix"/>
<feBlend mode="normal" in="SourceGraphic" in2="BackgroundImageFix" result="shape"/>
<feColorMatrix in="SourceAlpha" type="matrix" values="0 0 0 0 0 0 0 0 0 0 0 0 0 0 0 0 0 0 127 0" result="hardAlpha"/>
<feOffset dx="5" dy="4"/>
<feGaussianBlur stdDeviation="5"/>
<feComposite in2="hardAlpha" operator="arithmetic" k2="-1" k3="1"/>
<feColorMatrix type="matrix" values="0 0 0 0 0.0768924 0 0 0 0 0.136211 0 0 0 0 0.179167 0 0 0 0.73 0"/>
<feBlend mode="normal" in2="shape" result="effect1_innerShadow_103_1934"/>
</filter>
<filter id="filter5_i_103_1934" x="317.232" y="671.18" width="56.1999" height="22.8599" filterUnits="userSpaceOnUse" color-interpolation-filters="sRGB">
<feFlood flood-opacity="0" result="BackgroundImageFix"/>
<feBlend mode="normal" in="SourceGraphic" in2="BackgroundImageFix" result="shape"/>
<feColorMatrix in="SourceAlpha" type="matrix" values="0 0 0 0 0 0 0 0 0 0 0 0 0 0 0 0 0 0 127 0" result="hardAlpha"/>
<feOffset dy="4"/>
<feGaussianBlur stdDeviation="3"/>
<feComposite in2="hardAlpha" operator="arithmetic" k2="-1" k3="1"/>
<feColorMatrix type="matrix" values="0 0 0 0 1 0 0 0 0 0.9125 0 0 0 0 0.9125 0 0 0 0.25 0"/>
<feBlend mode="normal" in2="shape" result="effect1_innerShadow_103_1934"/>
</filter>
<filter id="filter6_i_103_1934" x="332.481" y="484.613" width="422.66" height="215.042" filterUnits="userSpaceOnUse" color-interpolation-filters="sRGB">
<feFlood flood-opacity="0" result="BackgroundImageFix"/>
<feBlend mode="normal" in="SourceGraphic" in2="BackgroundImageFix" result="shape"/>
<feColorMatrix in="SourceAlpha" type="matrix" values="0 0 0 0 0 0 0 0 0 0 0 0 0 0 0 0 0 0 127 0" result="hardAlpha"/>
<feOffset dx="6" dy="9"/>
<feGaussianBlur stdDeviation="5.5"/>
<feComposite in2="hardAlpha" operator="arithmetic" k2="-1" k3="1"/>
<feColorMatrix type="matrix" values="0 0 0 0 0 0 0 0 0 0 0 0 0 0 0 0 0 0 0.45 0"/>
<feBlend mode="normal" in2="shape" result="effect1_innerShadow_103_1934"/>
</filter>
<filter id="filter7_i_103_1934" x="390.767" y="667.254" width="294.312" height="27.4004" filterUnits="userSpaceOnUse" color-interpolation-filters="sRGB">
<feFlood flood-opacity="0" result="BackgroundImageFix"/>
<feBlend mode="normal" in="SourceGraphic" in2="BackgroundImageFix" result="shape"/>
<feColorMatrix in="SourceAlpha" type="matrix" values="0 0 0 0 0 0 0 0 0 0 0 0 0 0 0 0 0 0 127 0" result="hardAlpha"/>
<feOffset dx="13" dy="4"/>
<feGaussianBlur stdDeviation="3.5"/>
<feComposite in2="hardAlpha" operator="arithmetic" k2="-1" k3="1"/>
<feColorMatrix type="matrix" values="0 0 0 0 0 0 0 0 0 0 0 0 0 0 0 0 0 0 0.25 0"/>
<feBlend mode="normal" in2="shape" result="effect1_innerShadow_103_1934"/>
</filter>
<filter id="filter8_i_103_1934" x="204.992" y="663.162" width="688.34" height="65.8376" filterUnits="userSpaceOnUse" color-interpolation-filters="sRGB">
<feFlood flood-opacity="0" result="BackgroundImageFix"/>
<feBlend mode="normal" in="SourceGraphic" in2="BackgroundImageFix" result="shape"/>
<feColorMatrix in="SourceAlpha" type="matrix" values="0 0 0 0 0 0 0 0 0 0 0 0 0 0 0 0 0 0 127 0" result="hardAlpha"/>
<feOffset dx="23" dy="12"/>
<feGaussianBlur stdDeviation="8"/>
<feComposite in2="hardAlpha" operator="arithmetic" k2="-1" k3="1"/>
<feColorMatrix type="matrix" values="0 0 0 0 0.0244444 0 0 0 0 0.135667 0 0 0 0 0.183333 0 0 0 0.47 0"/>
<feBlend mode="normal" in2="shape" result="effect1_innerShadow_103_1934"/>
</filter>
<filter id="filter9_i_103_1934" x="485.755" y="503.458" width="51.5388" height="46.6423" filterUnits="userSpaceOnUse" color-interpolation-filters="sRGB">
<feFlood flood-opacity="0" result="BackgroundImageFix"/>
<feBlend mode="normal" in="SourceGraphic" in2="BackgroundImageFix" result="shape"/>
<feColorMatrix in="SourceAlpha" type="matrix" values="0 0 0 0 0 0 0 0 0 0 0 0 0 0 0 0 0 0 127 0" result="hardAlpha"/>
<feOffset dx="9" dy="2"/>
<feGaussianBlur stdDeviation="4.5"/>
<feComposite in2="hardAlpha" operator="arithmetic" k2="-1" k3="1"/>
<feColorMatrix type="matrix" values="0 0 0 0 0 0 0 0 0 0 0 0 0 0 0 0 0 0 0.25 0"/>
<feBlend mode="normal" in2="shape" result="effect1_innerShadow_103_1934"/>
</filter>
<filter id="filter10_i_103_1934" x="256.898" y="591.036" width="28.6201" height="21.8604" filterUnits="userSpaceOnUse" color-interpolation-filters="sRGB">
<feFlood flood-opacity="0" result="BackgroundImageFix"/>
<feBlend mode="normal" in="SourceGraphic" in2="BackgroundImageFix" result="shape"/>
<feColorMatrix in="SourceAlpha" type="matrix" values="0 0 0 0 0 0 0 0 0 0 0 0 0 0 0 0 0 0 127 0" result="hardAlpha"/>
<feOffset dx="6" dy="4"/>
<feGaussianBlur stdDeviation="3.5"/>
<feComposite in2="hardAlpha" operator="arithmetic" k2="-1" k3="1"/>
<feColorMatrix type="matrix" values="0 0 0 0 0 0 0 0 0 0 0 0 0 0 0 0 0 0 0.25 0"/>
<feBlend mode="normal" in2="shape" result="effect1_innerShadow_103_1934"/>
</filter>
<filter id="filter11_i_103_1934" x="792.516" y="574.54" width="32.5957" height="29.6541" filterUnits="userSpaceOnUse" color-interpolation-filters="sRGB">
<feFlood flood-opacity="0" result="BackgroundImageFix"/>
<feBlend mode="normal" in="SourceGraphic" in2="BackgroundImageFix" result="shape"/>
<feColorMatrix in="SourceAlpha" type="matrix" values="0 0 0 0 0 0 0 0 0 0 0 0 0 0 0 0 0 0 127 0" result="hardAlpha"/>
<feOffset dy="4"/>
<feGaussianBlur stdDeviation="3.5"/>
<feComposite in2="hardAlpha" operator="arithmetic" k2="-1" k3="1"/>
<feColorMatrix type="matrix" values="0 0 0 0 0 0 0 0 0 0 0 0 0 0 0 0 0 0 0.42 0"/>
<feBlend mode="normal" in2="shape" result="effect1_innerShadow_103_1934"/>
</filter>
<filter id="filter12_i_103_1934" x="663.958" y="449.919" width="17.4902" height="22.9539" filterUnits="userSpaceOnUse" color-interpolation-filters="sRGB">
<feFlood flood-opacity="0" result="BackgroundImageFix"/>
<feBlend mode="normal" in="SourceGraphic" in2="BackgroundImageFix" result="shape"/>
<feColorMatrix in="SourceAlpha" type="matrix" values="0 0 0 0 0 0 0 0 0 0 0 0 0 0 0 0 0 0 127 0" result="hardAlpha"/>
<feOffset dy="4"/>
<feGaussianBlur stdDeviation="5"/>
<feComposite in2="hardAlpha" operator="arithmetic" k2="-1" k3="1"/>
<feColorMatrix type="matrix" values="0 0 0 0 0 0 0 0 0 0 0 0 0 0 0 0 0 0 0.66 0"/>
<feBlend mode="normal" in2="shape" result="effect1_innerShadow_103_1934"/>
</filter>
<filter id="filter13_i_103_1934" x="390.378" y="515.018" width="12.9683" height="18.9722" filterUnits="userSpaceOnUse" color-interpolation-filters="sRGB">
<feFlood flood-opacity="0" result="BackgroundImageFix"/>
<feBlend mode="normal" in="SourceGraphic" in2="BackgroundImageFix" result="shape"/>
<feColorMatrix in="SourceAlpha" type="matrix" values="0 0 0 0 0 0 0 0 0 0 0 0 0 0 0 0 0 0 127 0" result="hardAlpha"/>
<feOffset dy="4"/>
<feGaussianBlur stdDeviation="7.5"/>
<feComposite in2="hardAlpha" operator="arithmetic" k2="-1" k3="1"/>
<feColorMatrix type="matrix" values="0 0 0 0 0 0 0 0 0 0 0 0 0 0 0 0 0 0 0.28 0"/>
<feBlend mode="normal" in2="shape" result="effect1_innerShadow_103_1934"/>
</filter>
<filter id="filter14_i_103_1934" x="490.236" y="445" width="17.5453" height="21.5227" filterUnits="userSpaceOnUse" color-interpolation-filters="sRGB">
<feFlood flood-opacity="0" result="BackgroundImageFix"/>
<feBlend mode="normal" in="SourceGraphic" in2="BackgroundImageFix" result="shape"/>
<feColorMatrix in="SourceAlpha" type="matrix" values="0 0 0 0 0 0 0 0 0 0 0 0 0 0 0 0 0 0 127 0" result="hardAlpha"/>
<feOffset dy="4"/>
<feGaussianBlur stdDeviation="2.5"/>
<feComposite in2="hardAlpha" operator="arithmetic" k2="-1" k3="1"/>
<feColorMatrix type="matrix" values="0 0 0 0 0 0 0 0 0 0 0 0 0 0 0 0 0 0 0.51 0"/>
<feBlend mode="normal" in2="shape" result="effect1_innerShadow_103_1934"/>
</filter>
<filter id="filter15_i_103_1934" x="468.467" y="132" width="187.692" height="306.271" filterUnits="userSpaceOnUse" color-interpolation-filters="sRGB">
<feFlood flood-opacity="0" result="BackgroundImageFix"/>
<feBlend mode="normal" in="SourceGraphic" in2="BackgroundImageFix" result="shape"/>
<feColorMatrix in="SourceAlpha" type="matrix" values="0 0 0 0 0 0 0 0 0 0 0 0 0 0 0 0 0 0 127 0" result="hardAlpha"/>
<feOffset dx="10" dy="-14"/>
<feGaussianBlur stdDeviation="10.5"/>
<feComposite in2="hardAlpha" operator="arithmetic" k2="-1" k3="1"/>
<feColorMatrix type="matrix" values="0 0 0 0 0.0858854 0 0 0 0 0.224623 0 0 0 0 0.404167 0 0 0 1 0"/>
<feBlend mode="normal" in2="shape" result="effect1_innerShadow_103_1934"/>
</filter>
<radialGradient id="paint0_radial_103_1934" cx="0" cy="0" r="1" gradientUnits="userSpaceOnUse" gradientTransform="translate(607.369 504.077) rotate(89.3525) scale(465.253 400.235)">
<stop stop-color="#8AC7FF" stop-opacity="0.61"/>
<stop offset="1" stop-color="#4187AE" stop-opacity="0"/>
</radialGradient>
<linearGradient id="paint1_linear_103_1934" x1="530.141" y1="489.364" x2="530.141" y2="691.889" gradientUnits="userSpaceOnUse">
<stop stop-color="#0B78D3"/>
<stop offset="1" stop-color="#D5ECFF"/>
</linearGradient>
<linearGradient id="paint2_linear_103_1934" x1="522.944" y1="601.855" x2="522.944" y2="673.759" gradientUnits="userSpaceOnUse">
<stop stop-color="#0B78D3"/>
<stop offset="1" stop-color="#D5ECFF"/>
</linearGradient>
<linearGradient id="paint3_linear_103_1934" x1="526.151" y1="657.637" x2="526.151" y2="709.982" gradientUnits="userSpaceOnUse">
<stop stop-color="#0B78D3"/>
<stop offset="1" stop-color="#D5ECFF"/>
</linearGradient>
<linearGradient id="paint4_linear_103_1934" x1="345.332" y1="671.18" x2="345.332" y2="690.04" gradientUnits="userSpaceOnUse">
<stop stop-color="white"/>
<stop offset="1" stop-color="white" stop-opacity="0"/>
</linearGradient>
<linearGradient id="paint5_linear_103_1934" x1="498.218" y1="668.338" x2="498.218" y2="699.757" gradientUnits="userSpaceOnUse">
<stop stop-color="white"/>
<stop offset="1" stop-color="white" stop-opacity="0"/>
</linearGradient>
<linearGradient id="paint6_linear_103_1934" x1="727.088" y1="668.843" x2="727.088" y2="675.235" gradientUnits="userSpaceOnUse">
<stop stop-color="white"/>
<stop offset="1" stop-color="white" stop-opacity="0"/>
</linearGradient>
<linearGradient id="paint7_linear_103_1934" x1="705.031" y1="659.239" x2="705.031" y2="667.344" gradientUnits="userSpaceOnUse">
<stop stop-color="white"/>
<stop offset="1" stop-color="white" stop-opacity="0"/>
</linearGradient>
<linearGradient id="paint8_linear_103_1934" x1="540.808" y1="484.613" x2="540.808" y2="690.772" gradientUnits="userSpaceOnUse">
<stop stop-color="#0B78D3"/>
<stop offset="1" stop-color="#D5ECFF"/>
</linearGradient>
<linearGradient id="paint9_linear_103_1934" x1="543.837" y1="606.178" x2="543.837" y2="656.167" gradientUnits="userSpaceOnUse">
<stop stop-color="white"/>
<stop offset="1" stop-color="white" stop-opacity="0"/>
</linearGradient>
<linearGradient id="paint10_linear_103_1934" x1="352.517" y1="525.759" x2="352.517" y2="565.556" gradientUnits="userSpaceOnUse">
<stop stop-color="white"/>
<stop offset="1" stop-color="white" stop-opacity="0"/>
</linearGradient>
<linearGradient id="paint11_linear_103_1934" x1="481.046" y1="559.812" x2="481.046" y2="577.497" gradientUnits="userSpaceOnUse">
<stop stop-color="white"/>
<stop offset="1" stop-color="white" stop-opacity="0"/>
</linearGradient>
<linearGradient id="paint12_linear_103_1934" x1="485.83" y1="584.453" x2="485.83" y2="593.421" gradientUnits="userSpaceOnUse">
<stop stop-color="white"/>
<stop offset="1" stop-color="white" stop-opacity="0"/>
</linearGradient>
<linearGradient id="paint13_linear_103_1934" x1="713.591" y1="487.23" x2="713.591" y2="518.723" gradientUnits="userSpaceOnUse">
<stop stop-color="white"/>
<stop offset="1" stop-color="white" stop-opacity="0"/>
</linearGradient>
<linearGradient id="paint14_linear_103_1934" x1="534.423" y1="667.254" x2="534.423" y2="690.655" gradientUnits="userSpaceOnUse">
<stop stop-color="#0B78D3"/>
<stop offset="1" stop-color="#D5ECFF"/>
</linearGradient>
<linearGradient id="paint15_linear_103_1934" x1="541.908" y1="663.162" x2="541.908" y2="713.023" gradientUnits="userSpaceOnUse">
<stop stop-color="#0B78D3"/>
<stop offset="1" stop-color="#D5ECFF"/>
</linearGradient>
<linearGradient id="paint16_linear_103_1934" x1="386.141" y1="674.719" x2="386.141" y2="705.756" gradientUnits="userSpaceOnUse">
<stop stop-color="white"/>
<stop offset="1" stop-color="white" stop-opacity="0"/>
</linearGradient>
<linearGradient id="paint17_linear_103_1934" x1="670.451" y1="668.327" x2="670.451" y2="707.288" gradientUnits="userSpaceOnUse">
<stop stop-color="white"/>
<stop offset="1" stop-color="white" stop-opacity="0"/>
</linearGradient>
<linearGradient id="paint18_linear_103_1934" x1="735.719" y1="690.338" x2="735.719" y2="711.797" gradientUnits="userSpaceOnUse">
<stop stop-color="white"/>
<stop offset="1" stop-color="white" stop-opacity="0"/>
</linearGradient>
<linearGradient id="paint19_linear_103_1934" x1="507.025" y1="503.458" x2="507.025" y2="548.1" gradientUnits="userSpaceOnUse">
<stop stop-color="#0B78D3"/>
<stop offset="1" stop-color="#D5ECFF"/>
</linearGradient>
<linearGradient id="paint20_linear_103_1934" x1="499.009" y1="445" x2="499.009" y2="462.523" gradientUnits="userSpaceOnUse">
<stop stop-color="#0B78D3"/>
<stop offset="1" stop-color="#D5ECFF"/>
</linearGradient>
<linearGradient id="paint21_linear_103_1934" x1="672.703" y1="449.919" x2="672.703" y2="468.872" gradientUnits="userSpaceOnUse">
<stop stop-color="#0B78D3"/>
<stop offset="1" stop-color="#D5ECFF"/>
</linearGradient>
<linearGradient id="paint22_linear_103_1934" x1="268.208" y1="591.036" x2="268.208" y2="608.896" gradientUnits="userSpaceOnUse">
<stop stop-color="#0B78D3"/>
<stop offset="1" stop-color="#D5ECFF"/>
</linearGradient>
<linearGradient id="paint23_linear_103_1934" x1="808.814" y1="574.54" x2="808.814" y2="600.194" gradientUnits="userSpaceOnUse">
<stop stop-color="#0B78D3"/>
<stop offset="1" stop-color="#D5ECFF"/>
</linearGradient>
<linearGradient id="paint24_linear_103_1934" x1="396.862" y1="515.018" x2="396.862" y2="529.991" gradientUnits="userSpaceOnUse">
<stop stop-color="#0B78D3"/>
<stop offset="1" stop-color="#D5ECFF"/>
</linearGradient>
<linearGradient id="paint25_linear_103_1934" x1="503.662" y1="506.244" x2="503.662" y2="521.364" gradientUnits="userSpaceOnUse">
<stop stop-color="white"/>
<stop offset="1" stop-color="white" stop-opacity="0"/>
</linearGradient>
<linearGradient id="paint26_linear_103_1934" x1="513.377" y1="535.23" x2="513.377" y2="545.124" gradientUnits="userSpaceOnUse">
<stop stop-color="white"/>
<stop offset="1" stop-color="white" stop-opacity="0"/>
</linearGradient>
<linearGradient id="paint27_linear_103_1934" x1="498.873" y1="454.532" x2="498.873" y2="460.484" gradientUnits="userSpaceOnUse">
<stop stop-color="white"/>
<stop offset="1" stop-color="white" stop-opacity="0"/>
</linearGradient>
<linearGradient id="paint28_linear_103_1934" x1="674.942" y1="451.758" x2="674.942" y2="460.341" gradientUnits="userSpaceOnUse">
<stop stop-color="white"/>
<stop offset="1" stop-color="white" stop-opacity="0"/>
</linearGradient>
<linearGradient id="paint29_linear_103_1934" x1="396.388" y1="516.844" x2="396.388" y2="523.664" gradientUnits="userSpaceOnUse">
<stop stop-color="white"/>
<stop offset="1" stop-color="white" stop-opacity="0"/>
</linearGradient>
<linearGradient id="paint30_linear_103_1934" x1="261.412" y1="592.945" x2="261.412" y2="599.977" gradientUnits="userSpaceOnUse">
<stop stop-color="white"/>
<stop offset="1" stop-color="white" stop-opacity="0"/>
</linearGradient>
<linearGradient id="paint31_linear_103_1934" x1="808.812" y1="577.238" x2="808.812" y2="593.394" gradientUnits="userSpaceOnUse">
<stop stop-color="white"/>
<stop offset="1" stop-color="white" stop-opacity="0"/>
</linearGradient>
<linearGradient id="paint32_linear_103_1934" x1="557.313" y1="146" x2="557.313" y2="438.271" gradientUnits="userSpaceOnUse">
<stop stop-color="#F7FBFF"/>
<stop offset="1" stop-color="#6CA1CD" stop-opacity="0"/>
</linearGradient>
<linearGradient id="paint33_linear_103_1934" x1="557.313" y1="146" x2="557" y2="441.5" gradientUnits="userSpaceOnUse">
<stop stop-color="#F7FBFF"/>
<stop offset="1" stop-color="#6CA1CD" stop-opacity="0"/>
</linearGradient>
<linearGradient id="paint34_linear_103_1934" x1="553.564" y1="148.407" x2="553.564" y2="424.873" gradientUnits="userSpaceOnUse">
<stop stop-color="#F7FBFF"/>
<stop offset="1" stop-color="#6CA1CD" stop-opacity="0"/>
</linearGradient>
<linearGradient id="paint35_linear_103_1934" x1="553.565" y1="148.407" x2="553.565" y2="424.894" gradientUnits="userSpaceOnUse">
<stop stop-color="#F7FBFF"/>
<stop offset="1" stop-color="#6CA1CD" stop-opacity="0"/>
</linearGradient>
<linearGradient id="paint36_linear_103_1934" x1="546.308" y1="153.454" x2="546.308" y2="404.697" gradientUnits="userSpaceOnUse">
<stop stop-color="#F7FBFF"/>
<stop offset="1" stop-color="#6CA1CD" stop-opacity="0"/>
</linearGradient>
<linearGradient id="paint37_linear_103_1934" x1="556.278" y1="402.817" x2="556.278" y2="434.603" gradientUnits="userSpaceOnUse">
<stop stop-color="#F7FBFF"/>
<stop offset="1" stop-color="#6CA1CD" stop-opacity="0"/>
</linearGradient>
<linearGradient id="paint38_linear_103_1934" x1="546.308" y1="153.454" x2="546.308" y2="404.697" gradientUnits="userSpaceOnUse">
<stop stop-color="#F7FBFF"/>
<stop offset="1" stop-color="#6CA1CD" stop-opacity="0"/>
</linearGradient>
<linearGradient id="paint39_linear_103_1934" x1="556.2" y1="402.375" x2="556.278" y2="434.603" gradientUnits="userSpaceOnUse">
<stop stop-color="#193C5C"/>
<stop offset="1" stop-color="white" stop-opacity="0"/>
</linearGradient>
<linearGradient id="paint40_linear_103_1934" x1="559.124" y1="258.59" x2="547.348" y2="397.002" gradientUnits="userSpaceOnUse">
<stop stop-color="#3E69D7"/>
<stop offset="0.545488" stop-color="#9D9D9D" stop-opacity="0.454512"/>
<stop offset="1" stop-color="white" stop-opacity="0"/>
</linearGradient>
<linearGradient id="paint41_linear_103_1934" x1="534.409" y1="305.316" x2="534.409" y2="333.356" gradientUnits="userSpaceOnUse">
<stop stop-color="#ACE1FF"/>
<stop offset="1" stop-color="#DADADA" stop-opacity="0"/>
</linearGradient>
<linearGradient id="paint42_linear_103_1934" x1="557.325" y1="413.206" x2="557.325" y2="426.921" gradientUnits="userSpaceOnUse">
<stop stop-color="#6DB1D7"/>
<stop offset="1" stop-color="white" stop-opacity="0"/>
</linearGradient>
</defs>
</svg>
