<svg width="463" height="355" viewBox="0 0 463 355" fill="none" xmlns="http://www.w3.org/2000/svg">
<g filter="url(#filter0_f_101_1440)">
<path d="M231.232 309C333.533 309 416.465 264.042 416.465 208.584C416.465 153.126 333.533 108.168 231.232 108.168C128.931 108.168 46 153.126 46 208.584C46 264.042 128.931 309 231.232 309Z" fill="#FBFBFB" fill-opacity="0.26"/>
</g>
<path opacity="0.7" d="M231.232 309C333.533 309 416.465 264.042 416.465 208.584C416.465 153.126 333.533 108.168 231.232 108.168C128.931 108.168 46 153.126 46 208.584C46 264.042 128.931 309 231.232 309Z" fill="#DBE7FD"/>
<path opacity="0.15" d="M148.889 281.896C150.964 283.131 152.413 284.348 154.585 284.45C157.747 284.472 160.81 283.306 163.219 281.164C162.393 282.488 161.282 283.591 159.975 284.385C158.668 285.179 157.201 285.642 155.692 285.736C154.327 285.832 152.964 285.523 151.761 284.843C150.557 284.164 149.561 283.142 148.889 281.896Z" fill="black"/>
<path opacity="0.15" d="M149.215 285.387C150.177 286.162 151.283 286.722 152.462 287.031C153.64 287.34 154.868 287.392 156.066 287.183C156.066 287.183 155.017 288.171 152.445 287.719C149.874 287.268 149.215 285.387 149.215 285.387Z" fill="black"/>
<path opacity="0.15" d="M194.857 252.645C199.74 254.493 202.8 256.672 202.181 258.17C201.563 259.669 198.544 262.044 198.544 262.044C198.544 262.044 202.71 259.669 203.841 258.332C204.972 256.995 203.768 255.727 200.586 254.305C198.762 253.469 196.833 252.91 194.857 252.645Z" fill="black"/>
<path opacity="0.1" d="M175.218 288.339C182.387 285.785 190.15 280.387 196.806 276.735C203.834 272.871 210.673 268.64 217.296 264.059C219.249 262.714 221.324 261.08 221.772 258.679C222.13 256.764 221.438 255.955 219.941 254.823C216.93 252.543 213.597 250.771 210.062 249.57C208.473 248.885 206.776 248.513 205.058 248.472C203.08 248.566 201.119 248.855 199.158 249.145C196.717 249.511 194.276 250.847 192.095 251.937C189.702 253.129 187.383 254.491 185.064 255.802L169.79 264.596C164.257 267.788 161.238 269.474 154.687 273.909C153.393 274.76 149.927 277.008 149.87 278.617C149.813 280.226 150.993 281.605 152.189 282.652C158.552 288.185 167.446 291.08 175.218 288.339Z" fill="black"/>
<path d="M184.214 229.257C180.959 227.325 176.687 227.35 171.869 229.776C160.477 235.523 150.313 252.54 149.215 267.787C148.596 276.419 151.005 282.634 155.277 285.367C156.376 286.065 160.623 288.585 161.64 289.214C164.895 291.241 169.241 291.258 174.148 288.789C185.54 283.051 195.696 266.033 196.794 250.778C197.429 242.01 194.931 235.736 190.528 233.079L184.214 229.257Z" fill="#B2B3B4"/>
<path opacity="0.25" d="M184.214 229.257C180.959 227.325 176.687 227.35 171.869 229.776C160.477 235.523 150.313 252.54 149.215 267.787C148.596 276.419 151.005 282.634 155.277 285.367C156.376 286.065 160.623 288.585 161.64 289.214C164.895 291.241 169.241 291.258 174.148 288.789C185.54 283.051 195.696 266.033 196.794 250.778C197.429 242.01 194.931 235.736 190.528 233.079L184.214 229.257Z" fill="black"/>
<path opacity="0.1" d="M195.085 260.117L160.721 239.354C154.488 247.186 149.931 257.87 149.215 267.796C148.596 276.428 151.005 282.643 155.277 285.375C156.376 286.073 160.623 288.593 161.64 289.223C164.895 291.249 169.241 291.266 174.148 288.797C183.262 284.217 191.554 272.435 195.085 260.117Z" fill="black"/>
<path opacity="0.1" d="M151.119 257.818C150.121 261.057 149.482 264.405 149.215 267.796C148.596 276.428 151.005 282.642 155.277 285.375C156.376 286.073 160.623 288.593 161.64 289.223C164.895 291.249 169.241 291.266 174.148 288.797C178.65 286.35 182.59 282.908 185.695 278.709L151.119 257.818Z" fill="black"/>
<path d="M178.127 233.565C166.734 239.311 156.579 256.329 155.48 271.584C154.382 286.839 162.739 294.569 174.148 288.797C185.556 283.026 195.696 266.042 196.794 250.787C197.893 235.531 189.536 227.827 178.127 233.565Z" fill="#B2B3B4"/>
<path opacity="0.2" d="M178.127 233.565C166.734 239.311 156.579 256.329 155.48 271.584C154.382 286.839 162.739 294.569 174.148 288.797C185.556 283.026 195.696 266.042 196.794 250.787C197.893 235.531 189.536 227.827 178.127 233.565Z" fill="black"/>
<path d="M189.43 254.269C188.732 259.421 186.984 264.357 184.303 268.741C181.528 273.397 178.111 277.058 174.685 279.042C171.047 281.153 167.792 281.144 165.506 279.042C163.219 276.939 162.251 273.082 162.845 268.128C163.542 262.975 165.29 258.039 167.971 253.656C170.746 248.991 174.164 245.338 177.598 243.346C181.219 241.252 184.474 241.252 186.761 243.346C189.047 245.441 189.975 249.34 189.43 254.269Z" fill="#B2B3B4"/>
<path opacity="0.4" d="M189.43 254.269C188.732 259.421 186.984 264.357 184.303 268.741C181.528 273.397 178.111 277.058 174.685 279.042C171.047 281.153 167.792 281.144 165.506 279.042C163.219 276.939 162.251 273.082 162.845 268.128C163.542 262.975 165.29 258.039 167.971 253.656C170.746 248.991 174.164 245.338 177.598 243.346C181.219 241.252 184.474 241.252 186.761 243.346C189.047 245.441 189.975 249.34 189.43 254.269Z" fill="black"/>
<path d="M191.456 235.471C188.299 232.56 183.75 232.381 178.639 234.944C173.318 237.634 168.061 242.946 163.927 249.927C159.901 256.515 157.419 264.006 156.685 271.788C156.196 278.599 157.661 283.979 160.818 286.89C163.976 289.802 168.525 289.989 173.635 287.418C178.965 284.736 184.214 279.424 188.347 272.444C192.382 265.844 194.862 258.337 195.582 250.54C196.078 243.729 194.613 238.383 191.456 235.471ZM186.761 243.355C189.039 245.457 190.016 249.314 189.43 254.268C188.732 259.421 186.984 264.357 184.303 268.74C181.528 273.397 178.111 277.058 174.685 279.041C171.047 281.152 167.792 281.144 165.506 279.041C163.219 276.939 162.251 273.082 162.845 268.128C163.542 262.975 165.29 258.039 167.971 253.655C170.746 248.99 174.164 245.338 177.598 243.346C181.219 241.252 184.474 241.252 186.761 243.355Z" fill="#B2B3B4"/>
<path opacity="0.2" d="M184.618 266C189.681 256.298 189.989 246.266 185.307 243.592C180.624 240.918 172.725 246.615 167.662 256.317C162.599 266.019 162.291 276.052 166.973 278.726C171.656 281.4 179.556 275.702 184.618 266Z" fill="black"/>
<path d="M184.618 266C189.681 256.298 189.989 246.266 185.307 243.592C180.624 240.918 172.725 246.615 167.662 256.317C162.599 266.019 162.291 276.052 166.973 278.726C171.656 281.4 179.556 275.702 184.618 266Z" fill="#B2B3B4"/>
<path opacity="0.6" d="M184.618 266C189.681 256.298 189.989 246.266 185.307 243.592C180.624 240.918 172.725 246.615 167.662 256.317C162.599 266.019 162.291 276.052 166.973 278.726C171.656 281.4 179.556 275.702 184.618 266Z" fill="black"/>
<path d="M186.525 252.242C185.475 261.505 179.095 272.205 172.276 276.147C169.46 277.782 167.011 277.994 165.18 277.041C163.911 275.134 163.365 272.154 163.797 268.324C164.846 259.07 171.226 248.36 178.045 244.419C180.861 242.784 183.31 242.572 185.141 243.568C186.411 245.432 186.956 248.412 186.525 252.242Z" fill="#B2B3B4"/>
<path opacity="0.5" d="M186.525 252.242C185.475 261.505 179.095 272.205 172.276 276.147C169.46 277.782 167.011 277.994 165.18 277.041C163.911 275.134 163.365 272.154 163.797 268.324C164.846 259.07 171.226 248.36 178.045 244.419C180.861 242.784 183.31 242.572 185.141 243.568C186.411 245.432 186.956 248.412 186.525 252.242Z" fill="black"/>
<path d="M182.871 253.613C182.334 253.204 180.999 252.498 180.356 252.089C180.086 251.895 179.765 251.791 179.437 251.791C179.109 251.791 178.788 251.895 178.517 252.089L179.095 250.242C178.229 249.795 177.392 249.289 176.589 248.726C176.269 248.692 175.946 248.736 175.645 248.854C174.985 249.145 174.397 249.59 173.928 250.157C172.825 251.45 171.9 252.896 171.177 254.456L169.81 253.689L167.703 258.644L167.988 258.857L168.956 259.615C168.141 261.436 167.665 263.404 167.556 265.412C167.556 265.557 167.556 265.684 167.556 265.812C167.499 267.242 167.792 268.315 168.5 268.851C169.029 269.251 170.665 270.137 171.007 270.358C171.682 270.869 172.414 270.664 173.163 270.035L172.675 271.609L175.189 273.125C176.719 273.065 178.493 271.133 180.365 267.421L181.626 268.374L183.758 263.377L182.48 262.458C183.184 260.668 183.639 258.781 183.831 256.856V256.814C183.913 255.29 183.611 254.175 182.871 253.613Z" fill="#B2B3B4"/>
<path d="M170.494 260.398L171.47 261.147C170.651 262.968 170.174 264.936 170.063 266.944C170.063 267.089 170.063 267.217 170.063 267.353C170.014 268.783 170.307 269.847 171.007 270.384C171.763 270.954 172.585 270.639 173.448 269.839C173.521 269.771 173.594 269.677 173.667 269.617L173.895 269.362C173.967 269.283 174.035 269.201 174.099 269.115C174.124 269.079 174.151 269.045 174.18 269.013C174.229 268.945 174.286 268.885 174.335 268.809C174.793 268.199 175.223 267.565 175.62 266.91C175.824 266.57 176.027 266.229 176.223 265.872C176.516 265.369 176.8 264.859 177.036 264.365C177.142 264.161 177.248 263.973 177.354 263.786C177.882 262.749 178.477 261.75 179.136 260.798C179.421 260.423 179.657 260.211 179.86 260.176C179.971 260.159 180.085 260.186 180.177 260.253C180.552 260.543 180.552 261.547 179.665 263.658C178.778 265.77 177.842 266.851 177.167 266.732L175.148 273.21C176.678 273.15 178.452 271.218 180.324 267.506L181.585 268.46L183.717 263.462L182.48 262.458C183.184 260.668 183.639 258.781 183.831 256.856V256.814C183.912 255.29 183.611 254.175 182.871 253.613C181.243 252.344 179.307 255.111 177.516 258.261C175.889 261.215 174.603 264.007 173.798 263.369C173.301 262.977 173.537 261.666 174.237 260.066C175.352 257.461 176.41 256.907 176.955 257.052L179.095 250.242C178.775 250.213 178.454 250.257 178.151 250.369C177.491 250.66 176.903 251.106 176.434 251.672C175.299 253.035 174.341 254.549 173.586 256.175L172.325 255.205L170.209 260.159L170.494 260.398Z" fill="#B2B3B4"/>
<path d="M170.209 260.176L172.455 255.843L173.586 256.192L172.325 255.222L170.209 260.176Z" fill="#F5F5F5"/>
<path d="M178.517 250.795L176.955 257.078L179.095 250.267C178.775 250.239 178.454 250.282 178.151 250.395C177.491 250.686 176.904 251.131 176.434 251.698C176.028 252.157 175.652 252.647 175.311 253.162L175.328 253.094C176.146 252.01 177.258 251.209 178.517 250.795Z" fill="#F5F5F5"/>
<path d="M177.191 266.714L175.173 273.193L177.313 267.132C178.229 266.637 178.939 265.807 179.307 264.799C179.64 264.082 179.912 263.335 180.12 262.569C180.015 262.892 179.884 263.233 179.714 263.633C178.745 265.812 177.866 266.8 177.191 266.714Z" fill="#F5F5F5"/>
<path d="M180.348 267.455L181.536 268.111L183.742 263.412L181.61 268.409L180.348 267.455Z" fill="#F5F5F5"/>
<path opacity="0.3" d="M170.046 267.353C170.046 267.217 170.046 267.089 170.046 266.944C170.157 264.935 170.635 262.967 171.454 261.147L170.478 260.398L170.193 260.176L172.309 255.222L173.57 256.192C174.325 254.566 175.282 253.052 176.418 251.689C176.887 251.123 177.475 250.677 178.135 250.386C178.437 250.274 178.759 250.23 179.079 250.259L178.802 251.161L179.079 250.259C178.213 249.812 177.375 249.306 176.573 248.743C176.253 248.709 175.93 248.753 175.629 248.871C174.968 249.162 174.381 249.607 173.912 250.174C172.809 251.467 171.883 252.913 171.161 254.473L169.794 253.706L167.686 258.661L167.971 258.874L168.94 259.631C168.124 261.453 167.649 263.421 167.54 265.429C167.54 265.574 167.54 265.701 167.54 265.829C167.483 267.259 167.776 268.332 168.484 268.868C169.013 269.268 170.649 270.154 170.99 270.375C170.29 269.847 169.998 268.783 170.046 267.353Z" fill="black"/>
<path opacity="0.3" d="M179.689 263.607C180.576 261.521 180.576 260.525 180.202 260.202C180.109 260.135 179.996 260.107 179.885 260.125C179.681 260.125 179.445 260.372 179.16 260.747C178.502 261.699 177.906 262.697 177.378 263.735C177.272 263.922 177.167 264.109 177.061 264.314C176.784 264.807 176.499 265.318 176.247 265.821C176.052 266.178 175.848 266.519 175.645 266.859C175.247 267.514 174.818 268.148 174.359 268.758C174.31 268.834 174.253 268.894 174.205 268.962C174.175 268.994 174.148 269.028 174.123 269.064C174.059 269.15 173.992 269.232 173.92 269.311L173.692 269.566C173.619 269.626 173.545 269.719 173.472 269.788L173.212 270.009L172.724 271.584L175.238 273.099L177.256 266.621C177.866 266.8 178.745 265.812 179.689 263.607Z" fill="black"/>
<path opacity="0.3" d="M174.237 260.091C173.537 261.726 173.301 263.003 173.798 263.394C174.611 264.007 175.856 261.215 177.517 258.287C179.307 255.137 181.211 252.37 182.871 253.638C182.334 253.23 180.999 252.523 180.356 252.115C180.086 251.921 179.765 251.817 179.437 251.817C179.109 251.817 178.788 251.921 178.517 252.115L176.955 257.078C176.41 256.933 175.328 257.486 174.237 260.091Z" fill="black"/>
<path opacity="0.1" d="M174.237 260.091C173.537 261.726 173.301 263.003 173.798 263.394C174.611 264.007 175.856 261.215 177.517 258.287C179.307 255.137 181.211 252.37 182.871 253.638C182.334 253.23 180.999 252.523 180.356 252.115C180.086 251.921 179.765 251.817 179.437 251.817C179.109 251.817 178.788 251.921 178.517 252.115L176.955 257.078C176.41 256.933 175.328 257.486 174.237 260.091Z" fill="black"/>
<path opacity="0.4" d="M167.703 258.661L170.209 260.177L171.47 261.147L168.956 259.632L167.703 258.661Z" fill="black"/>
<path opacity="0.1" d="M170.063 266.944C170.174 264.935 170.651 262.967 171.47 261.147L168.956 259.632C168.141 261.453 167.665 263.421 167.556 265.429C167.556 265.574 167.556 265.701 167.556 265.829C167.499 267.259 167.792 268.332 168.5 268.868C169.029 269.268 170.665 270.154 171.007 270.375C170.307 269.839 170.014 268.775 170.063 267.344C170.054 267.217 170.054 267.089 170.063 266.944Z" fill="black"/>
<path opacity="0.1" d="M175.604 266.893C175.206 267.548 174.777 268.182 174.318 268.792C174.27 268.868 174.213 268.928 174.164 268.996C174.135 269.028 174.108 269.063 174.083 269.098C174.019 269.184 173.951 269.267 173.879 269.345L173.651 269.601C173.578 269.66 173.505 269.754 173.432 269.822L173.171 270.043L172.683 271.618L175.197 273.134L177.215 266.655L176.141 266.034L175.604 266.893Z" fill="black"/>
<path d="M173.448 286.924C181.365 283.204 188.347 272.452 188.347 272.452C184.189 279.433 178.965 284.745 173.635 287.427C168.525 289.98 163.976 289.81 160.818 286.899C160.818 286.89 165.392 290.713 173.448 286.924Z" fill="#F5F5F5"/>
<path d="M161.738 251.119C165.953 243.304 171.845 236.731 178.127 233.565C184.637 230.279 190.186 231.402 193.515 235.821C193.515 235.821 187.916 228.917 178.094 234.237C168.272 239.558 161.738 251.119 161.738 251.119Z" fill="#F5F5F5"/>
<path opacity="0.15" d="M86.6301 201.487C83.1961 204.738 82.2359 205.624 82.6672 206.841C83.0985 208.059 88.103 211.047 88.103 211.047C88.103 211.047 83.5623 209.719 81.9837 208.442C80.405 207.165 80.5108 206.126 81.9837 204.415C83.4565 202.704 86.6301 201.487 86.6301 201.487Z" fill="black"/>
<path opacity="0.15" d="M129.636 178.135C134.34 181.89 137.554 184.461 134.999 187.406C132.444 190.352 122.948 195.349 122.948 195.349C122.948 195.349 132.566 192.301 136.667 188.658C140.768 185.014 135.902 181.447 129.636 178.135Z" fill="black"/>
<path opacity="0.15" d="M80.3806 203.981C79.4448 205.368 79.0135 207.207 80.6165 208.799C80.6165 208.799 78.7205 208.144 78.7368 206.39C78.7773 205.871 78.9515 205.372 79.2409 204.948C79.5304 204.524 79.9242 204.19 80.3806 203.981Z" fill="black"/>
<path opacity="0.1" d="M97.876 215.039C105.053 212.485 112.808 207.097 119.465 203.445C126.495 199.58 133.298 195.332 139.963 190.769C141.908 189.415 143.983 187.781 144.43 185.38C144.788 183.464 144.097 182.664 142.599 181.532C139.59 179.248 136.256 177.473 132.721 176.271C131.133 175.59 129.44 175.217 127.724 175.173C125.747 175.275 123.777 175.556 121.825 175.854C119.383 176.22 116.942 177.556 114.753 178.646C112.369 179.838 110.042 181.2 107.722 182.511L92.4565 191.305C86.9149 194.489 83.9041 196.174 77.3453 200.618C76.0596 201.47 72.5849 203.708 72.528 205.317C72.471 206.926 73.6509 208.314 74.8471 209.353C81.2106 214.886 90.1048 217.789 97.876 215.039Z" fill="black"/>
<path d="M119.481 159.901C116.226 157.968 111.954 157.985 107.128 160.42C95.7359 166.158 85.5804 183.175 84.4818 198.431C83.8552 207.063 86.2639 213.277 90.5442 216.002C91.6428 216.7 95.8905 219.219 96.8995 219.849C100.155 221.884 104.508 221.901 109.407 219.432C120.799 213.686 130.963 196.668 132.061 181.422C132.688 172.653 130.198 166.379 125.796 163.723C124.746 163.093 120.555 160.539 119.481 159.901Z" fill="#B2B3B4"/>
<path opacity="0.25" d="M119.481 159.901C116.226 157.968 111.954 157.985 107.128 160.42C95.7359 166.158 85.5804 183.175 84.4818 198.431C83.8552 207.063 86.2639 213.277 90.5442 216.002C91.6428 216.7 95.8905 219.219 96.8995 219.849C100.155 221.884 104.508 221.901 109.407 219.432C120.799 213.686 130.963 196.668 132.061 181.422C132.688 172.653 130.198 166.379 125.796 163.723C124.746 163.093 120.555 160.539 119.481 159.901Z" fill="black"/>
<path opacity="0.1" d="M130.353 190.743L95.9881 169.988C89.7467 177.846 85.1816 188.496 84.4818 198.43C83.8552 207.063 86.2639 213.277 90.5442 216.001C91.6428 216.699 95.8905 219.219 96.8995 219.849C100.155 221.884 104.508 221.901 109.407 219.432C118.545 214.844 126.821 203.07 130.353 190.743Z" fill="black"/>
<path opacity="0.1" d="M86.3778 188.453C85.3869 191.693 84.7508 195.04 84.4818 198.43C83.8552 207.063 86.2639 213.277 90.5442 216.001C91.6427 216.699 95.8905 219.219 96.8995 219.849C100.155 221.884 104.508 221.901 109.407 219.432C113.921 216.989 117.873 213.547 120.986 209.344L86.3778 188.453Z" fill="black"/>
<path d="M113.394 164.225C102.002 169.963 91.8381 186.98 90.7395 202.236C89.641 217.491 97.9981 225.221 109.407 219.458C120.815 213.694 130.963 196.694 132.061 181.447C133.16 166.2 124.803 158.453 113.394 164.225Z" fill="#B2B3B4"/>
<path opacity="0.2" d="M113.394 164.225C102.002 169.963 91.8381 186.98 90.7395 202.236C89.641 217.491 97.9981 225.221 109.407 219.458C120.815 213.694 130.963 196.694 132.061 181.447C133.16 166.2 124.803 158.453 113.394 164.225Z" fill="black"/>
<path d="M124.697 184.895C123.994 190.048 122.243 194.983 119.562 199.367C116.787 204.024 113.37 207.684 109.944 209.668C106.314 211.771 103.051 211.771 100.773 209.668C98.4944 207.565 97.5179 203.709 98.112 198.754C98.8025 193.601 100.548 188.664 103.23 184.282C106.005 179.617 109.423 175.965 112.857 173.981C116.486 171.878 119.741 171.878 122.02 173.981C124.298 176.084 125.25 179.966 124.697 184.895Z" fill="#B2B3B4"/>
<path opacity="0.4" d="M124.697 184.895C123.994 190.048 122.243 194.983 119.562 199.367C116.787 204.024 113.37 207.684 109.944 209.668C106.314 211.771 103.051 211.771 100.773 209.668C98.4944 207.565 97.5179 203.709 98.112 198.754C98.8025 193.601 100.548 188.664 103.23 184.282C106.005 179.617 109.423 175.965 112.857 173.981C116.486 171.878 119.741 171.878 122.02 173.981C124.298 176.084 125.25 179.966 124.697 184.895Z" fill="black"/>
<path d="M126.683 166.106C123.533 163.195 118.976 163.008 113.866 165.578C108.544 168.26 103.287 173.581 99.1617 180.561C95.0361 187.542 92.5053 195.297 91.952 202.414C91.4556 209.225 92.9285 214.614 96.0777 217.517C99.2268 220.419 103.784 220.624 108.894 218.044C114.224 215.363 119.473 210.051 123.607 203.078C127.74 196.106 130.336 188.325 130.849 181.208C131.337 174.381 129.881 169.018 126.683 166.106ZM121.987 173.981C124.274 176.084 125.242 179.94 124.664 184.895C123.962 190.047 122.211 194.982 119.53 199.367C116.755 204.023 113.337 207.684 109.911 209.668C106.282 211.77 103.019 211.77 100.74 209.668C98.4619 207.565 97.4854 203.708 98.0795 198.754C98.77 193.601 100.516 188.664 103.198 184.282C105.973 179.616 109.39 175.964 112.824 173.981C116.486 171.887 119.741 171.887 122.02 173.981H121.987Z" fill="#B2B3B4"/>
<path opacity="0.2" d="M119.884 196.644C124.946 186.942 125.255 176.909 120.572 174.235C115.89 171.561 107.99 177.258 102.927 186.96C97.8649 196.662 97.5566 206.695 102.239 209.369C106.921 212.043 114.821 206.346 119.884 196.644Z" fill="black"/>
<path d="M119.884 196.644C124.946 186.942 125.255 176.909 120.572 174.235C115.89 171.561 107.99 177.258 102.927 186.96C97.8649 196.662 97.5566 206.695 102.239 209.369C106.921 212.043 114.821 206.346 119.884 196.644Z" fill="#B2B3B4"/>
<path opacity="0.6" d="M119.884 196.644C124.946 186.942 125.255 176.909 120.572 174.235C115.89 171.561 107.99 177.258 102.927 186.96C97.8649 196.662 97.5566 206.695 102.239 209.369C106.921 212.043 114.821 206.346 119.884 196.644Z" fill="black"/>
<path d="M121.8 182.869C120.75 192.131 114.371 202.832 107.56 206.782C104.736 208.408 102.286 208.629 100.456 207.633C99.1861 205.735 98.6409 202.755 99.0722 198.924C100.13 189.662 106.502 178.961 113.321 175.011C116.136 173.385 118.594 173.164 120.425 174.16C121.678 176.058 122.223 179.038 121.8 182.869Z" fill="#B2B3B4"/>
<path opacity="0.5" d="M121.8 182.869C120.75 192.131 114.371 202.832 107.56 206.782C104.736 208.408 102.286 208.629 100.456 207.633C99.1861 205.735 98.6409 202.755 99.0722 198.924C100.13 189.662 106.502 178.961 113.321 175.011C116.136 173.385 118.594 173.164 120.425 174.16C121.678 176.058 122.223 179.038 121.8 182.869Z" fill="black"/>
<path d="M118.13 184.239C117.593 183.831 116.267 183.124 115.624 182.724C115.353 182.53 115.032 182.426 114.704 182.426C114.376 182.426 114.056 182.53 113.785 182.724L114.362 180.877C113.494 180.428 112.654 179.922 111.848 179.361C111.529 179.326 111.206 179.366 110.904 179.481C110.247 179.778 109.661 180.223 109.187 180.783C108.088 182.063 107.162 183.495 106.437 185.04L105.078 184.273L102.962 189.228L103.247 189.449L104.223 190.199C103.404 192.019 102.926 193.987 102.815 195.996C102.815 196.141 102.815 196.277 102.815 196.405C102.767 197.835 103.06 198.907 103.759 199.435C104.288 199.827 105.932 200.712 106.274 200.933C106.949 201.436 107.682 201.231 108.43 200.61L107.942 202.185L110.448 203.7C111.986 203.641 113.752 201.708 115.624 197.988L116.885 198.95L119.017 193.953L117.731 193.093C118.435 191.3 118.89 189.411 119.082 187.483V187.44C119.18 185.916 118.879 184.81 118.13 184.239Z" fill="#B2B3B4"/>
<path d="M105.761 191.024L106.73 191.773C105.916 193.595 105.441 195.563 105.33 197.571C105.33 197.724 105.33 197.852 105.33 197.979C105.281 199.41 105.566 200.482 106.274 201.01C107.022 201.572 107.853 201.257 108.715 200.457L108.927 200.235L109.163 199.98C109.232 199.901 109.297 199.819 109.358 199.733L109.447 199.631L109.602 199.435C110.033 198.865 110.465 198.201 110.88 197.528C111.083 197.196 111.287 196.847 111.49 196.49C111.783 195.987 112.068 195.477 112.304 194.991L112.629 194.404C113.159 193.368 113.755 192.369 114.411 191.416C114.688 191.05 114.924 190.837 115.136 190.803C115.189 190.791 115.245 190.791 115.298 190.804C115.352 190.818 115.402 190.843 115.445 190.88C115.827 191.169 115.819 192.165 114.94 194.242C113.996 196.456 113.117 197.435 112.434 197.315L110.408 203.794C111.946 203.734 113.711 201.802 115.583 198.082L116.844 199.044L118.976 194.046L117.731 193.093C118.435 191.3 118.89 189.411 119.082 187.483V187.44C119.164 185.916 118.862 184.81 118.114 184.239C116.486 182.971 114.55 185.738 112.768 188.896C111.14 191.842 109.854 194.634 109.049 194.004C108.544 193.621 108.788 192.344 109.488 190.709C110.595 188.096 111.653 187.551 112.206 187.687L114.346 180.877C114.027 180.84 113.704 180.881 113.402 180.996C112.743 181.293 112.157 181.741 111.685 182.307C110.549 183.668 109.589 185.179 108.829 186.802L107.568 185.84L105.46 190.786L105.761 191.024Z" fill="#B2B3B4"/>
<path d="M105.476 190.803L107.722 186.47L108.845 186.819L107.584 185.857L105.476 190.803Z" fill="#F5F5F5"/>
<path d="M113.785 181.422L112.222 187.704L114.362 180.894C114.043 180.857 113.72 180.898 113.418 181.013C112.76 181.31 112.173 181.758 111.701 182.324C111.29 182.788 110.912 183.283 110.57 183.805L110.627 183.737C111.434 182.651 112.534 181.845 113.785 181.422Z" fill="#F5F5F5"/>
<path d="M112.45 197.307L110.408 203.794L112.548 197.732C113.464 197.238 114.174 196.407 114.542 195.4C114.876 194.68 115.148 193.931 115.355 193.161C115.249 193.484 115.119 193.833 114.957 194.225C114.013 196.447 113.134 197.426 112.45 197.307Z" fill="#F5F5F5"/>
<path d="M115.607 198.082L116.804 198.737L119.001 194.046L116.869 199.044L115.607 198.082Z" fill="#F5F5F5"/>
<path opacity="0.3" d="M105.314 197.98C105.314 197.852 105.314 197.724 105.314 197.571C105.424 195.563 105.899 193.596 106.713 191.774L105.745 191.024L105.46 190.803L107.568 185.857L108.829 186.819C109.589 185.196 110.549 183.685 111.685 182.324C112.157 181.758 112.743 181.31 113.402 181.013C113.704 180.898 114.027 180.857 114.346 180.894L114.061 181.788L114.346 180.894C113.478 180.445 112.638 179.939 111.832 179.379C111.512 179.343 111.19 179.384 110.888 179.498C110.231 179.795 109.645 180.24 109.171 180.8C108.071 182.08 107.146 183.512 106.42 185.057L105.061 184.291L102.946 189.245L103.23 189.466L104.207 190.216C103.388 192.036 102.91 194.004 102.799 196.013C102.799 196.158 102.799 196.294 102.799 196.422C102.75 197.852 103.043 198.924 103.743 199.452C104.272 199.844 105.916 200.729 106.258 200.951C105.525 200.482 105.265 199.41 105.314 197.98Z" fill="black"/>
<path opacity="0.3" d="M114.957 194.234C115.835 192.156 115.843 191.16 115.461 190.871C115.418 190.835 115.368 190.809 115.315 190.796C115.261 190.782 115.206 190.782 115.152 190.794C114.94 190.794 114.704 191.041 114.428 191.407C113.771 192.361 113.175 193.359 112.645 194.395L112.32 194.983C112.051 195.468 111.767 195.979 111.506 196.481C111.303 196.839 111.099 197.188 110.896 197.52C110.481 198.192 110.082 198.856 109.618 199.427L109.464 199.622L109.374 199.725C109.313 199.81 109.248 199.893 109.179 199.971L108.943 200.227L108.731 200.448L108.471 200.678L107.983 202.253L110.489 203.768L112.507 197.281C113.134 197.426 114.013 196.447 114.957 194.234Z" fill="black"/>
<path opacity="0.3" d="M109.504 190.726C108.805 192.361 108.56 193.638 109.065 194.021C109.879 194.634 111.124 191.842 112.784 188.913C114.566 185.755 116.47 182.954 118.13 184.256C117.593 183.848 116.267 183.141 115.624 182.741C115.353 182.547 115.032 182.443 114.704 182.443C114.376 182.443 114.055 182.547 113.785 182.741L112.222 187.704C111.669 187.568 110.611 188.113 109.504 190.726Z" fill="black"/>
<path opacity="0.1" d="M109.504 190.726C108.805 192.361 108.56 193.638 109.065 194.021C109.879 194.634 111.124 191.842 112.784 188.913C114.566 185.755 116.47 182.954 118.13 184.256C117.593 183.848 116.267 183.141 115.624 182.741C115.353 182.547 115.032 182.443 114.704 182.443C114.376 182.443 114.055 182.547 113.785 182.741L112.222 187.704C111.669 187.568 110.611 188.113 109.504 190.726Z" fill="black"/>
<path opacity="0.4" d="M102.962 189.287L105.476 190.803L106.73 191.773L104.223 190.258L102.962 189.287Z" fill="black"/>
<path opacity="0.1" d="M105.33 197.571C105.441 195.563 105.916 193.596 106.73 191.773L104.223 190.258C103.404 192.079 102.926 194.047 102.815 196.056C102.815 196.2 102.815 196.336 102.815 196.464C102.767 197.894 103.06 198.967 103.759 199.495C104.288 199.886 105.932 200.772 106.274 200.993C105.566 200.465 105.281 199.393 105.33 197.962C105.314 197.852 105.322 197.724 105.33 197.571Z" fill="black"/>
<path opacity="0.1" d="M110.863 197.52C110.448 198.192 110.05 198.856 109.586 199.427L109.431 199.622L109.342 199.725C109.281 199.81 109.215 199.893 109.146 199.971L108.91 200.227L108.699 200.448L108.438 200.678L107.95 202.253L110.456 203.768L112.475 197.281L111.392 196.643C111.221 196.958 111.034 197.247 110.863 197.52Z" fill="black"/>
<path d="M108.715 217.56C116.633 213.831 123.607 203.087 123.607 203.087C119.448 210.06 114.224 215.372 108.894 218.053C103.784 220.607 99.2431 220.445 96.0776 217.526C96.0776 217.517 100.643 221.348 108.715 217.56Z" fill="#F5F5F5"/>
<path d="M97.0053 181.745C101.22 173.93 107.112 167.358 113.394 164.199C119.904 160.913 125.454 162.029 128.782 166.447C128.782 166.447 123.175 159.543 113.321 164.872C103.466 170.201 97.0053 181.745 97.0053 181.745Z" fill="#F5F5F5"/>
<path opacity="0.15" d="M137.725 182.043C139.654 183.745 141.086 186.367 139.263 188.147C139.263 188.147 141.411 186.938 141.192 185.439C140.972 183.941 137.725 182.043 137.725 182.043Z" fill="black"/>
<path opacity="0.1" d="M321.251 266.274C327.191 264.172 333.628 259.694 339.153 256.663C344.979 253.462 350.643 249.96 356.144 246.158C357.771 245.043 359.472 243.681 359.846 241.689C360.147 240.105 359.57 239.441 358.333 238.496C355.837 236.604 353.072 235.136 350.138 234.146C348.823 233.58 347.419 233.272 345.996 233.235C344.361 233.337 342.732 233.525 341.114 233.797C339.112 234.095 337.045 235.202 335.255 236.104C333.278 237.1 331.349 238.207 329.429 239.313L316.767 246.601C312.177 249.248 309.679 250.644 304.243 254.322C303.177 255.046 300.297 256.876 300.256 258.221C300.215 259.566 301.184 260.698 302.176 261.567C307.417 266.155 314.822 268.556 321.251 266.274Z" fill="black"/>
<path d="M338.32 220.36C335.065 218.419 330.793 218.445 325.968 220.871C314.575 226.617 304.42 243.635 303.321 258.89C302.694 267.523 305.103 273.729 309.383 276.461C310.482 277.159 314.73 279.679 315.739 280.309C318.994 282.335 323.347 282.352 328.246 279.892C339.638 274.146 349.802 257.128 350.901 241.873C351.527 233.104 349.037 226.839 344.635 224.174C343.585 223.544 339.394 220.999 338.32 220.36Z" fill="#B2B3B4"/>
<path opacity="0.25" d="M338.32 220.36C335.065 218.419 330.793 218.445 325.968 220.871C314.575 226.617 304.42 243.635 303.321 258.89C302.694 267.523 305.103 273.729 309.383 276.461C310.482 277.159 314.73 279.679 315.739 280.309C318.994 282.335 323.347 282.352 328.246 279.892C339.638 274.146 349.802 257.128 350.901 241.873C351.527 233.104 349.037 226.839 344.635 224.174C343.585 223.544 339.394 220.999 338.32 220.36Z" fill="black"/>
<path opacity="0.1" d="M349.192 251.203L314.827 230.448C308.586 238.272 304.037 248.956 303.321 258.89C302.694 267.523 305.103 273.729 309.383 276.461C310.482 277.159 314.73 279.679 315.739 280.309C318.994 282.335 323.347 282.352 328.246 279.892C337.352 275.303 345.66 263.504 349.192 251.203Z" fill="black"/>
<path opacity="0.1" d="M305.217 248.904C304.226 252.147 303.59 255.497 303.321 258.89C302.694 267.522 305.103 273.729 309.383 276.461C310.482 277.159 314.73 279.679 315.739 280.309C318.994 282.335 323.347 282.352 328.246 279.892C332.749 277.442 336.69 273.997 339.793 269.795L305.217 248.904Z" fill="black"/>
<path d="M332.233 224.659C320.841 230.397 310.677 247.415 309.579 262.67C308.48 277.925 316.837 285.655 328.246 279.892C339.655 274.129 349.802 257.128 350.901 241.873C351.999 226.617 343.642 218.913 332.233 224.659Z" fill="#B2B3B4"/>
<path opacity="0.2" d="M332.233 224.659C320.841 230.397 310.677 247.415 309.579 262.67C308.48 277.925 316.837 285.655 328.246 279.892C339.655 274.129 349.802 257.128 350.901 241.873C351.999 226.617 343.642 218.913 332.233 224.659Z" fill="black"/>
<path d="M343.536 245.354C342.836 250.507 341.085 255.443 338.402 259.826C335.627 264.483 332.209 268.144 328.783 270.136C325.154 272.238 321.891 272.23 319.612 270.136C317.334 268.041 316.357 264.177 316.951 259.222C317.642 254.069 319.388 249.132 322.07 244.75C324.845 240.085 328.262 236.433 331.696 234.44C335.326 232.346 338.581 232.346 340.859 234.44C343.138 236.535 344.09 240.425 343.536 245.354Z" fill="#B2B3B4"/>
<path opacity="0.4" d="M343.536 245.354C342.836 250.507 341.085 255.443 338.402 259.826C335.627 264.483 332.209 268.144 328.783 270.136C325.154 272.238 321.891 272.23 319.612 270.136C317.334 268.041 316.357 264.177 316.951 259.222C317.642 254.069 319.388 249.132 322.07 244.75C324.845 240.085 328.262 236.433 331.696 234.44C335.326 232.346 338.581 232.346 340.859 234.44C343.138 236.535 344.09 240.425 343.536 245.354Z" fill="black"/>
<path d="M345.554 226.558C342.405 223.655 337.848 223.467 332.738 226.03C327.416 228.72 322.159 234.041 318.034 241.013C313.908 247.985 311.304 255.757 310.791 262.874C310.295 269.685 311.768 275.065 314.917 277.977C318.066 280.888 322.623 281.075 327.733 278.504C333.063 275.823 338.312 270.511 342.446 263.53C346.58 256.549 349.176 248.785 349.688 241.66C350.176 234.841 348.744 229.452 345.554 226.558ZM340.859 234.441C343.146 236.544 344.114 240.4 343.536 245.355C342.836 250.508 341.085 255.443 338.402 259.827C335.627 264.483 332.209 268.144 328.783 270.136C325.154 272.239 321.891 272.23 319.612 270.136C317.334 268.042 316.357 264.177 316.951 259.222C317.642 254.069 319.388 249.132 322.07 244.75C324.845 240.085 328.262 236.433 331.696 234.441C335.326 232.338 338.581 232.338 340.859 234.441Z" fill="#B2B3B4"/>
<path opacity="0.2" d="M332.144 235.505C338.963 231.564 343.634 235.871 342.584 245.133C341.534 254.396 335.155 265.097 328.335 269.038C321.516 272.98 316.845 268.672 317.895 259.41C318.945 250.148 325.325 239.447 332.144 235.505Z" fill="black"/>
<path d="M332.144 235.505C338.963 231.564 343.634 235.871 342.584 245.133C341.534 254.396 335.155 265.097 328.335 269.038C321.516 272.98 316.845 268.672 317.895 259.41C318.945 250.148 325.325 239.447 332.144 235.505Z" fill="#B2B3B4"/>
<path opacity="0.6" d="M332.144 235.505C338.963 231.564 343.634 235.871 342.584 245.133C341.534 254.396 335.155 265.097 328.335 269.038C321.516 272.98 316.845 268.672 317.895 259.41C318.945 250.148 325.325 239.447 332.144 235.505Z" fill="black"/>
<path d="M340.607 243.328C339.557 252.59 333.177 263.291 326.366 267.233C323.543 268.867 321.093 269.08 319.262 268.127C317.993 266.22 317.448 263.24 317.879 259.409C318.937 250.156 325.308 239.446 332.128 235.505C334.943 233.87 337.401 233.657 339.232 234.654C340.517 236.518 341.063 239.497 340.607 243.328Z" fill="#B2B3B4"/>
<path opacity="0.5" d="M340.607 243.328C339.557 252.59 333.177 263.291 326.366 267.233C323.543 268.867 321.093 269.08 319.262 268.127C317.993 266.22 317.448 263.24 317.879 259.409C318.937 250.156 325.308 239.446 332.128 235.505C334.943 233.87 337.401 233.657 339.232 234.654C340.517 236.518 341.063 239.497 340.607 243.328Z" fill="black"/>
<path d="M336.969 244.699C336.432 244.291 335.106 243.584 334.463 243.184C334.192 242.99 333.872 242.886 333.544 242.886C333.215 242.886 332.895 242.99 332.624 243.184L333.202 241.337C332.333 240.886 331.493 240.377 330.687 239.813C330.368 239.784 330.046 239.828 329.743 239.94C329.083 240.231 328.496 240.677 328.026 241.243C326.924 242.536 325.998 243.983 325.276 245.542L323.917 244.776L321.801 249.73L322.086 249.952L323.063 250.701C322.244 252.522 321.766 254.489 321.655 256.498C321.655 256.643 321.655 256.771 321.655 256.907C321.606 258.337 321.899 259.401 322.599 259.938C323.128 260.338 324.771 261.223 325.113 261.444C325.789 261.947 326.521 261.742 327.27 261.121L326.781 262.687L329.288 264.203C330.826 264.152 332.591 262.211 334.463 258.499L335.724 259.452L337.856 254.464L336.595 253.502C337.3 251.712 337.755 249.825 337.946 247.9V247.858C338.019 246.376 337.718 245.27 336.969 244.699Z" fill="#B2B3B4"/>
<path d="M324.6 251.484L325.569 252.233C324.755 254.055 324.28 256.023 324.169 258.031C324.169 258.175 324.169 258.312 324.169 258.439C324.12 259.869 324.405 260.934 325.113 261.47C325.862 262.032 326.692 261.717 327.554 260.917L327.766 260.695L328.002 260.44C328.071 260.361 328.136 260.279 328.197 260.193L328.287 260.091L328.441 259.895C328.873 259.325 329.304 258.661 329.719 257.988C329.922 257.656 330.126 257.307 330.329 256.95C330.622 256.447 330.907 255.936 331.143 255.451L331.468 254.864C331.998 253.828 332.594 252.829 333.251 251.876C333.527 251.501 333.763 251.288 333.975 251.254C334.083 251.238 334.194 251.265 334.284 251.331C334.667 251.629 334.658 252.625 333.78 254.736C332.836 256.95 331.957 257.929 331.273 257.809L329.255 264.288C330.793 264.237 332.559 262.296 334.431 258.584L335.692 259.537L337.824 254.549L336.563 253.587C337.267 251.797 337.722 249.911 337.913 247.985V247.943C337.995 246.419 337.694 245.312 336.945 244.742C335.317 243.473 333.381 246.24 331.599 249.398C329.971 252.344 328.685 255.136 327.88 254.506C327.375 254.123 327.619 252.846 328.319 251.212C329.426 248.598 330.484 248.053 331.037 248.19L333.177 241.379C332.858 241.342 332.535 241.383 332.233 241.498C331.575 241.792 330.988 242.237 330.516 242.801C329.378 244.163 328.417 245.677 327.66 247.304L326.399 246.334L324.332 251.263L324.6 251.484Z" fill="#B2B3B4"/>
<path d="M324.316 251.263L326.562 246.929L327.685 247.278L326.423 246.308L324.316 251.263Z" fill="#F5F5F5"/>
<path d="M332.624 241.881L331.062 248.181L333.202 241.371C332.882 241.334 332.559 241.374 332.258 241.49C331.599 241.784 331.012 242.229 330.541 242.792C330.132 243.255 329.754 243.747 329.41 244.265C329.433 244.243 329.452 244.217 329.467 244.188C330.275 243.107 331.375 242.303 332.624 241.881Z" fill="#F5F5F5"/>
<path d="M331.289 257.767L329.271 264.245L331.411 258.192C332.328 257.698 333.037 256.867 333.405 255.86C333.739 255.14 334.012 254.391 334.219 253.621C334.113 253.944 333.983 254.285 333.82 254.685C332.852 256.907 331.973 257.886 331.289 257.767Z" fill="#F5F5F5"/>
<path d="M334.447 258.541L335.643 259.197L337.84 254.506L335.716 259.495L334.447 258.541Z" fill="#F5F5F5"/>
<path opacity="0.3" d="M324.153 258.439C324.153 258.311 324.153 258.175 324.153 258.031C324.264 256.023 324.739 254.055 325.552 252.233L324.584 251.484L324.299 251.263L326.407 246.308L327.668 247.279C328.425 245.652 329.386 244.137 330.524 242.775C330.996 242.212 331.583 241.766 332.241 241.473C332.543 241.357 332.866 241.317 333.185 241.353L332.901 242.205L333.185 241.353C332.317 240.902 331.477 240.393 330.671 239.83C330.351 239.801 330.029 239.845 329.727 239.957C329.067 240.248 328.479 240.694 328.01 241.26C326.907 242.553 325.982 244 325.26 245.559L323.901 244.793L321.785 249.747L322.07 249.969L323.046 250.718C322.227 252.538 321.749 254.506 321.638 256.515C321.638 256.66 321.638 256.788 321.638 256.924C321.59 258.354 321.883 259.418 322.582 259.954C323.111 260.355 324.755 261.24 325.097 261.461C324.389 260.951 324.104 259.869 324.153 258.439Z" fill="black"/>
<path opacity="0.3" d="M333.796 254.694C334.675 252.616 334.683 251.62 334.3 251.288C334.21 251.223 334.1 251.195 333.991 251.212C333.779 251.212 333.543 251.459 333.267 251.833C332.61 252.787 332.015 253.785 331.485 254.821L331.159 255.409C330.891 255.894 330.606 256.405 330.345 256.907C330.142 257.265 329.939 257.614 329.735 257.946C329.32 258.618 328.921 259.282 328.458 259.852L328.303 260.048L328.213 260.15C328.152 260.236 328.087 260.319 328.018 260.397L327.782 260.653L327.571 260.874L327.31 261.104L326.822 262.67L329.328 264.186L331.346 257.707C331.973 257.886 332.852 256.907 333.796 254.694Z" fill="black"/>
<path opacity="0.3" d="M328.344 251.186C327.644 252.821 327.4 254.098 327.904 254.481C328.718 255.094 329.963 252.301 331.623 249.373C333.405 246.214 335.309 243.414 336.969 244.716C336.432 244.308 335.106 243.601 334.463 243.201C334.192 243.007 333.872 242.903 333.544 242.903C333.215 242.903 332.895 243.007 332.624 243.201L331.062 248.181C330.508 248.028 329.45 248.573 328.344 251.186Z" fill="black"/>
<path opacity="0.1" d="M328.344 251.186C327.644 252.821 327.4 254.098 327.904 254.481C328.718 255.094 329.963 252.301 331.623 249.373C333.405 246.214 335.309 243.414 336.969 244.716C336.432 244.308 335.106 243.601 334.463 243.201C334.192 243.007 333.872 242.903 333.544 242.903C333.215 242.903 332.895 243.007 332.624 243.201L331.062 248.181C330.508 248.028 329.45 248.573 328.344 251.186Z" fill="black"/>
<path opacity="0.4" d="M321.801 249.747L324.316 251.263L325.569 252.233L323.062 250.718L321.801 249.747Z" fill="black"/>
<path opacity="0.1" d="M324.169 258.03C324.28 256.023 324.755 254.055 325.569 252.233L323.063 250.735C322.244 252.555 321.766 254.523 321.655 256.532C321.655 256.677 321.655 256.805 321.655 256.941C321.606 258.371 321.899 259.435 322.599 259.971C323.128 260.372 324.771 261.257 325.113 261.478C324.405 260.942 324.12 259.878 324.169 258.448C324.153 258.311 324.161 258.175 324.169 258.03Z" fill="black"/>
<path opacity="0.1" d="M329.703 257.979C329.288 258.652 328.889 259.316 328.425 259.886L328.27 260.082L328.181 260.184C328.12 260.27 328.055 260.352 327.986 260.431L327.75 260.686L327.538 260.908L327.278 261.138L326.789 262.704L329.296 264.219L331.314 257.741L330.232 257.094C330.028 257.417 329.874 257.698 329.703 257.979Z" fill="black"/>
<path d="M327.587 278.019C335.505 274.29 342.478 263.547 342.478 263.547C338.32 270.528 333.096 275.84 327.766 278.521C322.656 281.075 318.115 280.905 314.949 277.994C314.917 277.977 319.498 281.807 327.587 278.019Z" fill="#F5F5F5"/>
<path d="M315.845 242.222C320.06 234.407 325.951 227.835 332.233 224.676C338.743 221.39 344.293 222.505 347.621 226.924C347.621 226.924 342.015 220.02 332.16 225.34C322.306 230.661 315.845 242.222 315.845 242.222Z" fill="#F5F5F5"/>
<path opacity="0.15" d="M309.533 256.458C307.295 257.974 306.847 258.629 309.256 260.485C311.838 262.236 314.517 263.825 317.28 265.244C317.28 265.244 311.583 263.933 308.019 261.251C304.455 258.57 306.188 257.472 309.533 256.458Z" fill="black"/>
<path opacity="0.1" d="M252.707 276.546C249.395 279.151 245.505 281.22 241.363 281.288C243.106 283.594 245.215 285.569 247.597 287.128C250.004 288.688 252.852 289.334 255.661 288.958C258.916 288.413 261.658 286.208 263.871 283.689C266.085 281.169 267.94 278.283 270.137 275.788C272.058 273.635 274.605 271.668 277.404 271.949C275.509 270.232 273.424 268.757 271.195 267.556C268.079 266.024 264.84 265.896 262.065 268.212C258.875 270.876 255.978 273.967 252.707 276.546Z" fill="black"/>
<path d="M277.225 268.408C262.358 272.034 267.533 282.65 252.666 286.285L241.974 278.257C255.571 277.406 252.447 265.488 265.963 264.202L277.225 268.408Z" fill="#909D93"/>
<path opacity="0.3" d="M270.853 269.089C263.489 273.533 263.424 279.5 256.06 283.944C255.122 283.656 254.135 283.592 253.171 283.757L247.475 279.662C247.764 279.556 248.004 279.336 248.142 279.049C248.188 278.932 248.201 278.804 248.181 278.679C248.161 278.554 248.108 278.437 248.028 278.342C257.06 275.039 254.107 269.106 263.139 265.803C263.592 266.009 264.081 266.116 264.575 266.116C265.07 266.116 265.559 266.009 266.012 265.803L271.464 267.982C271.179 268.073 270.932 268.262 270.764 268.518C270.713 268.605 270.694 268.708 270.71 268.809C270.726 268.909 270.778 268.999 270.853 269.063V269.089ZM271.911 269.021C271.244 268.748 271.496 268.212 272.668 267.931L266.052 265.377C265.648 265.609 265.199 265.743 264.739 265.77C264.278 265.796 263.818 265.715 263.391 265.53C253.447 268.68 256.955 275.099 247.011 278.249C247.678 278.717 247.45 279.364 246.327 279.594L252.813 284.259C253.863 283.944 254.986 284.035 255.978 284.514C264.156 279.96 263.766 273.609 271.952 269.055L271.911 269.021Z" fill="black"/>
<g opacity="0.3">
<path opacity="0.3" d="M256.165 272.452C256.838 271.63 257.747 271.058 258.757 270.824C259.766 270.589 260.822 270.703 261.764 271.149C263.562 272 263.937 274.231 262.765 276.112C262.159 277.016 261.253 277.651 260.224 277.894C259.195 278.136 258.116 277.968 257.199 277.423C256.783 277.203 256.419 276.889 256.134 276.504C255.849 276.118 255.65 275.671 255.551 275.195C255.452 274.719 255.456 274.225 255.562 273.751C255.668 273.276 255.874 272.832 256.165 272.452ZM262.114 275.763C262.35 275.455 262.518 275.096 262.606 274.711C262.694 274.327 262.699 273.927 262.621 273.54C262.543 273.153 262.384 272.789 262.156 272.475C261.927 272.16 261.635 271.902 261.3 271.72C260.542 271.362 259.694 271.274 258.884 271.469C258.074 271.665 257.348 272.132 256.816 272.801C256.583 273.112 256.418 273.474 256.334 273.86C256.25 274.246 256.249 274.647 256.331 275.034C256.413 275.42 256.575 275.783 256.807 276.096C257.038 276.409 257.333 276.665 257.671 276.844C258.41 277.267 259.273 277.388 260.093 277.185C260.913 276.982 261.633 276.47 262.114 275.746V275.763Z" fill="black"/>
</g>
<path opacity="0.1" d="M161.454 205.258H161.356C161.527 207.59 161.804 210.246 162.984 212.281C163.84 214.119 165.128 215.701 166.727 216.878C168.812 218.31 171.311 218.933 173.79 218.64C177.322 218.266 180.487 216.291 183.742 214.809C188.389 212.698 193.589 211.549 198.536 212.673C196.705 206.756 190.635 204.159 185.158 203.972C183.449 203.913 181.643 204.491 179.934 204.747C178.013 205.036 176.077 205.249 174.14 205.394C170.264 205.688 166.372 205.688 162.495 205.394L161.454 205.258Z" fill="black"/>
<path d="M198.528 209.625C183.881 205.249 183.449 217.15 168.769 212.775L163.138 200.32C175.434 206.458 178.225 194.489 190.643 200.226L198.528 209.625Z" fill="#909D93"/>
<path opacity="0.3" d="M192.645 206.995C184.149 207.131 181.187 212.026 172.683 212.171C171.996 211.443 171.162 210.884 170.242 210.536C169.005 207.982 168.525 206.944 167.296 204.356C167.6 204.408 167.911 204.338 168.167 204.16C168.261 204.081 168.332 203.976 168.372 203.857C168.412 203.739 168.42 203.61 168.395 203.487C177.826 205.19 177.997 198.499 187.428 200.201C187.724 200.614 188.098 200.958 188.526 201.213C188.954 201.468 189.428 201.628 189.918 201.682L193.678 206.356C193.387 206.292 193.083 206.331 192.815 206.467C192.731 206.519 192.666 206.6 192.634 206.696C192.601 206.793 192.602 206.899 192.636 206.995H192.645ZM193.58 207.488C193.133 206.91 193.58 206.569 194.752 206.918L190.171 201.299C189.707 201.289 189.252 201.171 188.838 200.953C188.424 200.735 188.062 200.423 187.778 200.039C177.623 197.741 177.712 205.147 167.557 202.84C167.915 203.589 167.418 204.041 166.328 203.692C167.72 206.646 168.273 207.837 169.656 210.791C170.718 211.058 171.657 211.706 172.309 212.622C181.569 212.801 184.32 207.344 193.58 207.514V207.488Z" fill="black"/>
<g opacity="0.3">
<path opacity="0.3" d="M178.502 202.534C179.457 202.196 180.485 202.161 181.46 202.432C182.434 202.703 183.31 203.268 183.978 204.058C185.126 205.59 184.442 207.463 182.546 208.442C181.604 208.883 180.547 208.972 179.55 208.695C178.553 208.418 177.677 207.79 177.07 206.918C176.817 206.55 176.652 206.123 176.588 205.675C176.525 205.226 176.565 204.769 176.705 204.339C176.845 203.91 177.081 203.523 177.394 203.209C177.706 202.894 178.086 202.663 178.502 202.534ZM182.164 207.88C183.693 207.122 184.23 205.556 183.303 204.296C182.765 203.656 182.057 203.2 181.27 202.986C180.482 202.772 179.651 202.81 178.884 203.096C178.547 203.205 178.24 203.397 177.988 203.655C177.736 203.914 177.547 204.231 177.435 204.582C177.324 204.932 177.294 205.305 177.348 205.67C177.402 206.035 177.538 206.381 177.745 206.68C178.241 207.376 178.95 207.874 179.753 208.09C180.557 208.307 181.408 208.23 182.164 207.871V207.88Z" fill="black"/>
</g>
<path opacity="0.1" d="M366.069 183.915C361.651 185.873 357.59 187.516 352.651 186.827C354.05 187.023 355.377 189.738 356.125 190.837C358.453 194.284 361.48 197.409 365.76 197.545C368.498 197.529 371.188 196.791 373.58 195.4C376.022 194.097 378.251 192.454 380.595 190.998C383.85 188.972 388.032 186.81 391.881 188.444C391.54 188.3 390.872 186.418 390.628 186.027C390.085 185.166 389.464 184.362 388.773 183.626C387.447 182.198 385.894 181.023 384.183 180.153C382.67 179.386 380.814 178.493 379.097 178.544C377.226 178.595 375.273 179.633 373.58 180.383C371.05 181.489 368.6 182.792 366.069 183.915Z" fill="black"/>
<path d="M391.865 183.575C375.834 182.801 380.066 195.451 364.035 194.642C360.007 189.807 357.997 187.389 353.977 182.545C368.275 184.401 366.428 173.504 380.733 175.352L391.865 183.575Z" fill="#909D93"/>
<g opacity="0.3">
<path opacity="0.3" d="M385.632 182.519C377.242 184.699 375.053 191.543 366.851 192.854C366.009 192.296 365.072 191.911 364.092 191.722C362.188 189.287 360.731 187.849 358.827 185.414C359.111 185.373 359.368 185.217 359.543 184.98C359.609 184.869 359.651 184.744 359.663 184.614C359.676 184.484 359.66 184.353 359.616 184.23C369.284 183.788 368.356 176.909 378.023 176.467C378.905 176.879 379.835 177.165 380.79 177.318C382.865 179.021 384.346 179.829 386.421 181.574C386.146 181.598 385.887 181.722 385.689 181.923C385.626 182.005 385.588 182.104 385.578 182.208C385.568 182.313 385.586 182.418 385.632 182.511V182.519ZM387.04 182.937C386.421 182.417 386.787 181.932 388.032 182.043C385.55 180.008 383.874 179.08 381.384 177.045C380.267 176.947 379.188 176.574 378.235 175.956C367.445 175.803 369.072 183.703 358.282 183.549C358.86 184.282 358.493 184.886 357.297 184.733C359.543 187.636 361.163 189.313 363.408 192.207C364.582 192.269 365.699 192.757 366.566 193.586C376.266 192.675 377.535 184.937 387.04 182.937Z" fill="black"/>
</g>
<g opacity="0.3">
<path opacity="0.3" d="M375.224 186.512C374.02 187.798 371.814 187.61 370.399 186.172C368.983 184.733 368.869 182.715 370.081 181.592C371.294 180.468 373.491 180.664 374.907 181.941C375.234 182.205 375.505 182.538 375.701 182.919C375.897 183.3 376.013 183.721 376.043 184.152C376.073 184.584 376.016 185.017 375.875 185.424C375.733 185.83 375.512 186.201 375.224 186.512ZM375.818 187.091C376.177 186.715 376.456 186.263 376.635 185.765C376.815 185.268 376.891 184.736 376.859 184.205C376.826 183.674 376.686 183.157 376.448 182.687C376.21 182.218 375.878 181.806 375.476 181.481C373.735 179.932 370.976 179.668 369.479 181.021C367.982 182.375 368.071 184.827 369.821 186.623C371.57 188.419 374.337 188.7 375.818 187.091Z" fill="black"/>
</g>
<path opacity="0.15" d="M265.434 187.67C265.434 187.67 259.599 191.543 261.894 198.158C261.894 198.158 258.2 194.923 260.169 190.913C260.683 189.924 261.445 189.1 262.372 188.529C263.299 187.958 264.358 187.661 265.434 187.67Z" fill="black"/>
<path opacity="0.15" d="M328.491 200.609C328.491 200.609 330.053 207.828 322.371 209.786C322.371 209.786 327.425 209.88 329.386 206.645C330.932 204.142 328.491 200.609 328.491 200.609Z" fill="black"/>
<path opacity="0.15" d="M298.439 183.175C298.439 183.175 319.369 180.357 331.485 190.879C343.602 201.401 337.645 209.965 337.645 209.965C337.645 209.965 347.142 198.813 333.731 188.895C315.609 175.496 298.439 183.175 298.439 183.175Z" fill="black"/>
<path opacity="0.15" d="M253.838 196.906C253.838 196.906 248.597 207.394 264.531 214.929C279.023 221.79 295.583 217.849 295.583 217.849C295.583 217.849 282.563 225.672 263.985 217.499C245.79 209.506 253.838 196.906 253.838 196.906Z" fill="black"/>
<path d="M257.297 64.75C259.811 58.7909 259.201 55.7772 251.535 57.897C246.726 59.225 242.861 62.8005 242.145 74.9231C241.933 78.3964 242.063 82.4146 242.145 90.5445C242.185 99.3893 242.778 108.222 243.919 116.986C244.286 120.459 245.259 123.833 246.791 126.938C255.531 144.33 267.761 155.942 273.645 167.162C281.042 166.643 291.319 153.899 285.851 145.922C279.561 143.138 262.212 123.115 259.811 113.572C258.696 109.171 257.5 104.778 256.491 100.343C255.921 97.8317 255.4 95.3033 254.994 92.7494C254.587 90.1955 253.814 87.5735 254.774 85.1983C255.421 83.8269 256.172 82.5117 257.02 81.2653C257.921 79.8262 258.656 78.2802 259.209 76.6597C259.631 75.1113 260.134 73.5881 260.714 72.0967C260.999 71.4242 261.308 70.7517 261.642 70.0962C261.902 69.5854 262.293 69.0065 262.032 68.3936C261.569 67.2698 259.51 68.0275 258.851 68.5809C257.804 69.6177 256.917 70.8181 256.222 72.1393C256.043 72.4117 255.742 72.7182 255.457 72.565C255.173 72.4117 255.221 72.0967 255.254 71.8243C255.409 70.5263 255.709 69.2519 256.149 68.0275C256.556 66.9464 256.833 65.8311 257.297 64.75Z" fill="#EAB1A9"/>
<path d="M256.784 101.765C256.784 101.765 259.526 111.674 260.527 114.824C261.528 117.974 267.289 127.159 276.411 137.239C283.361 144.9 287.372 145.513 287.372 145.513L273.539 170.346C273.197 166.234 259.835 149.191 254.09 140.746C248.345 132.301 244.521 125.125 243.56 118.612C242.908 113.638 242.56 108.625 242.519 103.604C242.519 103.604 250.16 105.332 256.784 101.765Z" fill="#F5F5F5"/>
<path d="M302.451 146.347C309.124 147.411 316.757 147.965 321.436 148.637C326.546 149.361 328.369 153.745 328.369 162.88C328.369 176.347 321.786 198.796 321.786 198.796C321.786 205.266 277.461 209.693 273.417 195.774C273.417 195.774 273.205 175.896 273.62 168.2C274.344 154.656 281.831 145.99 286.64 145.607C286.583 145.641 290.953 144.559 302.451 146.347Z" fill="white"/>
<path d="M315.626 106.634C315.626 106.634 319.117 107.903 319.898 111.01C320.573 113.709 319.027 119.523 316.268 125.721C313.51 131.918 311.329 135.476 310.092 137.085C309.281 138.057 308.146 138.666 306.919 138.788L308.546 131.126L309.824 125.831C309.824 125.831 307.439 120.451 307.805 116.535C308.286 111.487 309.661 109.673 309.661 109.673L315.626 106.634Z" fill="#263238"/>
<path d="M316.285 107.749L321.802 106.387C321.635 105.581 321.175 104.875 320.518 104.419C319.862 103.963 319.061 103.792 318.286 103.944C317.913 104.051 317.565 104.236 317.261 104.487C316.957 104.738 316.704 105.05 316.518 105.405C316.331 105.759 316.214 106.149 316.174 106.552C316.134 106.955 316.172 107.362 316.285 107.749Z" fill="#263238"/>
<path d="M308.416 112.866C307.867 115.701 306.527 118.302 304.565 120.34C302.603 122.378 300.107 123.762 297.394 124.316C294.68 124.87 291.87 124.571 289.319 123.454C286.769 122.338 284.592 120.456 283.063 118.045C281.535 115.635 280.725 112.804 280.734 109.912C280.744 107.019 281.573 104.195 283.116 101.795C284.66 99.3955 286.85 97.5288 289.408 96.4308C291.966 95.3329 294.777 95.0532 297.487 95.6269C299.287 96.0069 300.998 96.7545 302.522 97.8268C304.046 98.8991 305.353 100.275 306.368 101.876C307.383 103.477 308.086 105.272 308.437 107.158C308.789 109.043 308.782 110.983 308.416 112.866Z" fill="#263238"/>
<path d="M309.815 124.971C310.833 126.351 312.387 123.66 313.64 122.741C314.893 121.822 318.571 120.996 319.54 125.074C320.508 129.151 316.285 133.825 313.526 134.387C310.125 135.076 308.424 131.833 308.424 131.833L308.294 146.535C302.996 153.073 295.355 155.797 293.492 158.904C293.329 155.772 287.633 148.629 290.937 145.956L291.059 139.537C291.059 139.537 286.778 139.316 284.817 138.567C281.562 137.307 280.293 134.31 280.008 130.25C279.552 123.771 280.863 113.317 285.387 101.876C289.74 99.6026 302.736 102.838 309.653 109.742C307.089 120.153 308.79 123.592 309.815 124.971Z" fill="#EAB1A9"/>
<path d="M285.135 93.0049C285.198 92.9093 285.283 92.8324 285.383 92.7817C285.483 92.731 285.593 92.7081 285.704 92.7154C285.87 92.7686 286.016 92.876 286.119 93.0219C286.917 94.006 287.787 94.9226 288.723 95.7631C288.711 94.2919 288.971 92.8322 289.488 91.464C289.797 90.6127 290.416 88.6632 291.49 88.6632C292.125 88.6632 292.556 89.3102 292.93 89.8465C296.283 94.7415 302.012 93.9924 306.951 95.1927C311.069 96.1973 315.748 99.0065 316.814 103.621C317.31 105.732 317.066 107.801 315.121 108.78C313.4 109.529 311.536 109.846 309.677 109.707C301.125 109.486 288.593 110.559 284.012 101.194C283.343 99.8041 283.176 98.2085 283.54 96.6995C283.784 95.362 284.319 94.1009 285.102 93.0134L285.135 93.0049Z" fill="#263238"/>
<path d="M291.059 139.537C291.059 139.537 298.879 139.537 301.792 138.643C303.502 138.128 305.022 137.083 306.154 135.646C305.446 137.171 304.452 138.532 303.232 139.648C300.791 141.81 291.026 141.64 291.026 141.64L291.059 139.537Z" fill="#F28F8F"/>
<path d="M296.674 119.752C296.627 120.064 296.669 120.383 296.794 120.67C296.919 120.957 297.122 121.199 297.377 121.366C297.633 121.533 297.93 121.618 298.231 121.61C298.532 121.602 298.825 121.502 299.072 121.322C299.319 121.142 299.51 120.89 299.622 120.597C299.733 120.304 299.76 119.983 299.699 119.674C299.637 119.366 299.491 119.083 299.277 118.86C299.063 118.638 298.792 118.487 298.496 118.424C298.087 118.35 297.665 118.448 297.324 118.696C296.983 118.945 296.749 119.325 296.674 119.752Z" fill="#263238"/>
<path d="M302.972 116.552L300.531 113.564C300.153 113.922 299.923 114.418 299.886 114.949C299.85 115.48 300.011 116.005 300.335 116.416C300.497 116.61 300.695 116.768 300.917 116.881C301.138 116.994 301.38 117.058 301.626 117.071C301.872 117.084 302.118 117.044 302.349 116.955C302.581 116.866 302.792 116.729 302.972 116.552Z" fill="#263238"/>
<path d="M287.804 110.244L284.272 111.666C284.349 111.911 284.473 112.137 284.637 112.33C284.8 112.523 284.999 112.68 285.223 112.79C285.446 112.9 285.688 112.961 285.934 112.97C286.181 112.978 286.427 112.934 286.656 112.84C287.13 112.646 287.514 112.267 287.728 111.783C287.942 111.299 287.969 110.748 287.804 110.244Z" fill="#263238"/>
<path d="M284.329 116.637C284.284 116.847 284.278 117.064 284.313 117.276C284.349 117.487 284.424 117.69 284.534 117.871C284.645 118.052 284.788 118.209 284.957 118.332C285.126 118.455 285.316 118.541 285.517 118.587C285.834 118.674 286.168 118.659 286.476 118.544C286.785 118.429 287.053 118.22 287.246 117.943C287.438 117.666 287.547 117.335 287.557 116.993C287.568 116.651 287.479 116.313 287.303 116.024C287.127 115.736 286.872 115.509 286.571 115.375C286.27 115.24 285.937 115.203 285.616 115.269C285.295 115.335 285 115.501 284.771 115.745C284.541 115.989 284.387 116.3 284.329 116.637Z" fill="#263238"/>
<path d="M291.864 117.803L289.651 126.699L285.249 124.009L291.864 117.803Z" fill="#F28F8F"/>
<path d="M292.287 132.403C294.932 131.978 295.819 132.403 295.542 131.228C295.221 130.372 294.624 129.658 293.855 129.211C293.086 128.764 292.193 128.61 291.327 128.777C290.564 128.931 289.882 129.374 289.41 130.021C288.939 130.668 288.712 131.473 288.772 132.284C288.927 133.578 289.911 132.795 292.287 132.403Z" fill="#B16668"/>
<path d="M292.287 132.403C294.558 132.037 295.542 132.301 295.542 131.629C295.541 131.494 295.524 131.36 295.494 131.229C295.455 131.085 295.403 130.945 295.339 130.812C295.298 130.743 295.258 130.667 295.209 130.599C295.176 130.537 295.141 130.478 295.103 130.42C294.513 130.272 293.893 130.343 293.348 130.621C292.803 130.899 292.368 131.367 292.116 131.944C292.049 132.113 292 132.29 291.97 132.472L292.287 132.403Z" fill="#F28F8F"/>
<path d="M301.426 156.512C296.869 161.229 295.363 162.131 293.329 162.242C291.295 162.352 287.82 157.304 288.048 154.58L286.778 156.717C286.778 156.717 287.975 164.012 292.743 165.017C297.512 166.021 303.818 157.926 303.818 157.926L301.426 156.512Z" fill="#37474F"/>
<path d="M295.941 162.42C295.941 164.123 296.56 164.344 296.56 164.344C296.56 164.344 294.696 167.409 292.971 167.809C292.971 167.809 291.864 166.055 289.464 167.119C289.065 166.42 288.826 165.633 288.765 164.821C288.705 164.009 288.824 163.193 289.114 162.437C289.496 161.58 290.144 160.884 290.953 160.462C292.475 159.926 294.208 160.36 296.234 161.254C295.996 161.588 295.891 162.006 295.941 162.42Z" fill="#455A64"/>
<path d="M292.938 167.809C292.678 172.423 292.938 190.65 293.752 198.03C294.379 203.989 292.531 206.016 285.566 211.847C284.565 212.698 278.177 213.362 273.36 213.013C271.488 212.886 269.12 212.162 270.438 209.966C271.757 207.769 274.076 203.649 274.873 203.291C277.225 202.21 281.977 199.929 283.54 197.988C285.102 196.047 286.697 174.015 289.447 167.119C292.198 160.224 292.938 167.809 292.938 167.809Z" fill="#455A64"/>
<path d="M308.334 141.895C309.311 141.972 309.807 142.125 310.605 143.785C311.508 145.675 312.289 147.395 312.289 147.395C311.683 150.041 310.577 152.533 309.034 154.725C307.376 157.181 305.351 159.342 303.037 161.126C301.967 159.816 300.82 158.576 299.603 157.415C299.041 156.862 298.321 156.518 297.553 156.435C296.786 156.352 296.014 156.535 295.355 156.955C295.945 155.738 296.666 154.595 297.504 153.55C298.098 152.894 300.514 152.128 303.818 149.957C305.875 148.51 307.449 146.427 308.318 143.998L308.334 141.895Z" fill="#F0F0F0"/>
<path d="M292.743 156.351C292.743 154.495 291.636 153.107 291.344 152.503C290.489 150.8 290.945 149.421 290.937 147.965C290.928 146.509 290.994 143.24 290.994 143.24C290.376 143.239 289.775 143.452 289.286 143.846C288.797 144.241 288.447 144.794 288.292 145.42C287.592 147.242 286.119 149.481 286.119 153.584C286.119 157.278 286.445 157.951 286.445 157.951C287.482 156.967 288.604 156.087 289.797 155.32C290.048 155.151 290.332 155.042 290.628 155.002C290.924 154.963 291.224 154.994 291.508 155.093C291.791 155.192 292.049 155.356 292.263 155.574C292.477 155.792 292.641 156.057 292.743 156.351Z" fill="#F0F0F0"/>
<path d="M346.019 79.5031C345.778 76.1627 345.048 72.8809 343.854 69.7727C341.332 63.8136 341.95 60.7999 349.616 62.9197C354.417 64.2392 358.567 68.1722 359.324 80.2523C359.593 85.357 359.569 90.4741 359.25 95.5757C358.437 104.872 357.322 113.385 356.223 121.115C355.567 125.306 354.408 129.393 352.773 133.28C342.194 155.771 334.325 162.071 327.132 176.186C318.669 175.147 317.855 154.605 319.759 149.387C319.759 149.387 337.239 131.356 340.192 122.009C342.91 113.394 346.833 98.351 346.629 91.1404" fill="#EAB1A9"/>
<path d="M318.995 148.356C324.52 144.236 333.577 131.526 336.083 128.606C338.589 125.686 344.042 108.115 344.042 108.115C344.042 108.115 349.477 111.657 357.875 109.069C357.858 113.626 357.546 118.177 356.939 122.69C355.906 130.837 353.098 136.413 347.492 146.441C341.885 156.469 326.57 178.859 326.57 178.859C324.085 177.344 321.987 175.222 320.458 172.673C318.928 170.124 318.013 167.225 317.79 164.225C317.099 153.881 318.995 148.356 318.995 148.356Z" fill="#F5F5F5"/>
<path d="M332.267 2.1706C336.547 -0.383317 342.178 -0.383315 348.541 2.85164C363.563 10.4112 376.909 32.8176 378.357 52.8913C379.171 64.2562 376.005 72.4713 370.374 76.0213C368.926 76.9492 363.343 80.2778 362.009 81.1291C357.704 83.8022 351.992 83.8192 345.539 80.5757C330.517 73.0162 317.172 50.6098 315.723 30.5361C314.909 18.9924 318.164 10.7347 323.975 7.23586C325.333 6.37604 330.851 3.01339 332.267 2.1706Z" fill="#B2B3B4"/>
<path opacity="0.25" d="M332.267 2.1706C336.547 -0.383317 342.178 -0.383315 348.541 2.85164C363.563 10.4112 376.909 32.8176 378.357 52.8913C379.171 64.2562 376.005 72.4713 370.374 76.0213C368.926 76.9492 363.343 80.2778 362.009 81.1291C357.704 83.8022 351.992 83.8192 345.539 80.5757C330.517 73.0162 317.172 50.6098 315.723 30.5361C314.909 18.9924 318.164 10.7347 323.975 7.23586C325.333 6.37604 330.851 3.01339 332.267 2.1706Z" fill="black"/>
<path opacity="0.1" d="M317.953 42.7779L363.197 15.451C371.408 25.7603 377.397 39.8154 378.341 52.9085C379.155 64.2734 375.989 72.4884 370.358 76.0384C368.909 76.9663 363.327 80.2949 361.993 81.1462C357.688 83.8193 351.975 83.8363 345.522 80.5929C333.528 74.506 322.607 59.0038 317.953 42.7779Z" fill="black"/>
<path opacity="0.1" d="M375.843 39.7557C377.149 44.0208 377.988 48.4278 378.341 52.8914C379.155 64.2563 375.989 72.4714 370.358 76.0213C368.91 76.9492 363.327 80.2778 361.993 81.1291C357.688 83.8022 351.976 83.8193 345.523 80.5758C340.07 77.8261 334.838 73.1184 330.322 67.2869L375.843 39.7557Z" fill="black"/>
<path d="M315.707 30.5021C317.155 50.5758 330.501 72.9821 345.522 80.5417C360.544 88.1013 371.562 77.9878 370.098 57.8715C368.633 37.7552 355.344 15.3914 340.282 7.83183C325.22 0.272243 314.258 10.4198 315.707 30.5021Z" fill="#B2B3B4"/>
<path opacity="0.2" d="M315.707 30.5021C317.155 50.5758 330.501 72.9821 345.522 80.5417C360.544 88.1013 371.562 77.9878 370.098 57.8715C368.633 37.7552 355.344 15.3914 340.282 7.83183C325.22 0.272243 314.258 10.4198 315.707 30.5021Z" fill="black"/>
<path d="M325.407 35.0736C326.329 41.8474 328.63 48.3355 332.153 54.1002C335.806 60.2296 340.29 65.048 344.823 67.6615C349.599 70.4368 353.888 70.4283 356.89 67.6615C359.893 64.8948 361.138 59.7869 360.398 53.2915C359.478 46.5208 357.181 40.0354 353.66 34.2733C349.998 28.1354 345.522 23.3171 340.982 20.7036C336.205 17.9453 331.925 17.9453 328.922 20.7036C325.919 23.4618 324.666 28.5866 325.407 35.0736Z" fill="#B2B3B4"/>
<path opacity="0.4" d="M325.407 35.0736C326.329 41.8474 328.63 48.3355 332.153 54.1002C335.806 60.2296 340.29 65.048 344.823 67.6615C349.599 70.4368 353.888 70.4283 356.89 67.6615C359.893 64.8948 361.138 59.7869 360.398 53.2915C359.478 46.5208 357.181 40.0354 353.66 34.2733C349.998 28.1354 345.522 23.3171 340.982 20.7036C336.205 17.9453 331.925 17.9453 328.922 20.7036C325.919 23.4618 324.666 28.5866 325.407 35.0736Z" fill="black"/>
<path d="M317.302 30.221C317.977 39.5854 321.371 49.801 326.831 59.0122C332.291 68.2233 339.184 75.1869 346.198 78.7199C352.928 82.1251 358.909 81.8612 363.067 78.0218C367.225 74.1824 369.178 67.1762 368.511 58.1438C367.827 48.7795 364.442 38.5638 358.974 29.3697C353.505 20.1756 346.621 13.1949 339.607 9.64501C332.885 6.23979 326.896 6.51221 322.738 10.3431C318.58 14.1739 316.659 21.2057 317.302 30.221ZM340.982 20.7035C345.506 23.317 349.998 28.1353 353.66 34.2732C357.181 40.0353 359.478 46.5207 360.398 53.2914C361.138 59.7868 359.893 64.8862 356.891 67.6614C353.888 70.4367 349.567 70.4367 344.823 67.6614C340.307 65.0479 335.806 60.2295 332.153 54.1001C328.63 48.3354 326.329 41.8473 325.407 35.0735C324.666 28.5865 325.92 23.4787 328.922 20.712C331.925 17.9452 336.205 17.9452 340.982 20.7035Z" fill="#B2B3B4"/>
<path opacity="0.2" d="M354.97 67.322C361.132 63.8031 360.724 50.5965 354.059 37.8241C347.394 25.0518 336.997 17.5504 330.835 21.0692C324.673 24.5881 325.081 37.7947 331.746 50.567C338.411 63.3394 348.809 70.8408 354.97 67.322Z" fill="black"/>
<path d="M354.97 67.322C361.132 63.8031 360.724 50.5965 354.059 37.8241C347.394 25.0518 336.997 17.5504 330.835 21.0692C324.673 24.5881 325.081 37.7947 331.746 50.567C338.411 63.3394 348.809 70.8408 354.97 67.322Z" fill="#B2B3B4"/>
<path opacity="0.6" d="M354.97 67.322C361.132 63.8031 360.724 50.5965 354.059 37.8241C347.394 25.0518 336.997 17.5504 330.835 21.0692C324.673 24.5881 325.081 37.7947 331.746 50.567C338.411 63.3394 348.809 70.8408 354.97 67.322Z" fill="black"/>
<path d="M329.231 32.409C330.615 44.5997 338.996 58.6973 347.947 63.9073C351.658 66.0611 354.889 66.342 357.297 65.0821C358.966 62.5707 359.69 58.6548 359.112 53.615C357.729 41.4244 349.347 27.3267 340.396 22.1168C336.685 19.9715 333.463 19.682 331.046 20.942C329.378 23.4533 328.662 27.3693 329.231 32.409Z" fill="#B2B3B4"/>
<path opacity="0.5" d="M329.231 32.409C330.615 44.5997 338.996 58.6973 347.947 63.9073C351.658 66.0611 354.889 66.342 357.297 65.0821C358.966 62.5707 359.69 58.6548 359.112 53.615C357.729 41.4244 349.347 27.3267 340.396 22.1168C336.685 19.9715 333.463 19.682 331.046 20.942C329.378 23.4533 328.662 27.3693 329.231 32.409Z" fill="black"/>
<path d="M352.789 52.5422C352.643 48.4729 350.625 45.6296 348.24 43.2715L349.38 43.578L352.683 41.5859C352.539 40.8343 352.344 40.0946 352.098 39.3725C351.661 38.1665 351.081 37.0225 350.372 35.9673C349.212 34.2585 347.781 32.77 346.141 31.566L346.011 27.9821L341.942 25.5048L338.63 27.5053V28.4162V28.612C338.346 28.7066 338.073 28.8351 337.816 28.9951L337.564 29.1824C337.182 29.4718 335.277 30.5104 334.513 30.9957C334.415 31.0553 334.342 31.1149 334.26 31.1744C333.39 31.847 332.918 33.1324 332.991 35.133C333.061 37.0948 333.622 39.0029 334.618 40.6665L334.871 41.0666L335.147 41.4837L335.408 41.8413C335.445 41.8846 335.481 41.9301 335.513 41.9775C335.575 42.0708 335.643 42.159 335.717 42.2414C336.287 42.9605 336.899 43.6427 337.548 44.2845C337.833 44.5655 338.126 44.8464 338.419 45.1358L336.913 44.7442L333.683 46.7448C334.623 50.5365 336.821 53.8553 339.883 56.1092L340.022 59.6846L344.147 62.0768L347.451 60.0762L347.41 58.961C347.645 58.898 347.869 58.8005 348.078 58.6716C348.574 58.3311 350.787 57.0626 351.333 56.688C352.374 55.9985 352.903 54.6619 352.789 52.5422Z" fill="#B2B3B4"/>
<path opacity="0.3" d="M352.789 52.5422C352.643 48.4729 350.625 45.6296 348.24 43.2715L349.38 43.578L352.683 41.5859C352.539 40.8343 352.344 40.0946 352.098 39.3725C351.661 38.1665 351.081 37.0225 350.372 35.9673C349.212 34.2585 347.781 32.77 346.141 31.566L346.011 27.9821L341.942 25.5048L338.63 27.5053V28.4162V28.612C338.346 28.7066 338.073 28.8351 337.816 28.9951L337.564 29.1824C337.182 29.4718 335.277 30.5104 334.513 30.9957C334.415 31.0553 334.342 31.1149 334.26 31.1744C333.39 31.847 332.918 33.1324 332.991 35.133C333.061 37.0948 333.622 39.0029 334.618 40.6665L334.871 41.0666L335.147 41.4837L335.408 41.8413C335.445 41.8846 335.481 41.9301 335.513 41.9775C335.575 42.0708 335.643 42.159 335.717 42.2414C336.287 42.9605 336.899 43.6427 337.548 44.2845C337.833 44.5655 338.126 44.8464 338.419 45.1358L336.913 44.7442L333.683 46.7448C334.623 50.5365 336.821 53.8553 339.883 56.1092L340.022 59.6846L344.147 62.0768L347.451 60.0762L347.41 58.961C347.645 58.898 347.869 58.8005 348.078 58.6716C348.574 58.3311 350.787 57.0626 351.333 56.688C352.374 55.9985 352.903 54.6619 352.789 52.5422Z" fill="black"/>
<path opacity="0.1" d="M344.172 62.0599L344.041 58.4844L347.435 58.9441L347.475 60.0678L344.172 62.0599Z" fill="black"/>
<path opacity="0.1" d="M341.926 46.0384L338.622 48.0304L333.682 46.7364L336.986 44.7444L341.926 46.0384Z" fill="black"/>
<path opacity="0.1" d="M342.707 29.9571L346.011 27.9565L346.141 31.5405L342.837 33.5326L342.707 29.9571Z" fill="black"/>
<path d="M338.646 28.3907L338.736 31.1575C338.124 30.7147 337.405 30.4621 336.662 30.4289C335.919 30.3958 335.182 30.5835 334.537 30.9702C334.439 31.0298 334.366 31.0894 334.285 31.149C333.414 31.8215 332.942 33.107 333.015 35.1075C333.085 37.0693 333.647 38.9774 334.643 40.641L334.895 41.0411L335.172 41.4583L335.432 41.8158C335.47 41.8591 335.505 41.9046 335.538 41.952C335.599 42.0453 335.667 42.1335 335.741 42.2159C336.312 42.935 336.923 43.6173 337.572 44.259C337.881 44.5655 338.199 44.872 338.524 45.1614C338.98 45.5871 339.444 46.0127 339.875 46.3788L340.404 46.83C341.396 47.6299 342.316 48.5217 343.155 49.4946C343.5 49.9025 343.76 50.3807 343.919 50.8992C343.993 51.1593 344.034 51.4283 344.042 51.6994C344.082 52.7806 343.488 53.3169 341.771 52.3294C340.961 51.9001 340.254 51.2866 339.701 50.5338C339.147 49.781 338.762 48.9081 338.573 47.9792L333.683 46.7449C334.623 50.5365 336.821 53.8554 339.883 56.1092L340.022 59.6847L344.147 62.0768L344.017 58.5014C345.734 59.2079 347.134 59.2846 348.086 58.6716C349.03 58.0246 349.518 56.6881 349.445 54.5683C349.274 49.8606 346.589 46.7874 343.749 44.2165C341.088 41.8328 338.744 40.3516 338.663 38.0616C338.614 36.6399 339.476 36.5207 340.852 37.3039C341.704 37.8223 342.437 38.5301 343 39.3773C343.562 40.2246 343.94 41.1907 344.107 42.2074L349.315 43.6121C349.173 42.8618 348.974 42.1245 348.721 41.4072C348.293 40.1984 347.716 39.0535 347.004 38.002C345.841 36.2926 344.41 34.8016 342.772 33.5922L342.642 30.0082L338.573 27.5394L338.646 28.3907Z" fill="#B2B3B4"/>
<path d="M338.614 27.48L342.333 30.1616L342.837 33.5328L342.707 29.9573L338.614 27.48Z" fill="#FAFAFA"/>
<path d="M334.667 40.6497L334.919 41.0498L335.196 41.4669L335.457 41.8245C335.494 41.8678 335.53 41.9133 335.562 41.9607C335.624 42.054 335.692 42.1422 335.766 42.2246C335.896 42.3949 336.034 42.5481 336.173 42.7099C332.918 38.5895 332.999 33.2008 334.285 31.8302C336.026 29.9488 338.711 31.1151 338.711 31.1151C338.1 30.6723 337.381 30.4197 336.638 30.3866C335.895 30.3534 335.158 30.5411 334.513 30.9278C334.415 30.9874 334.342 31.047 334.26 31.1066C333.39 31.7791 332.918 33.0646 332.991 35.0651C333.067 37.0491 333.646 38.9763 334.667 40.6497Z" fill="#FAFAFA"/>
<path d="M343.618 52.8401C344.001 52.755 344.766 52.0825 344.188 50.6352C343.61 49.188 342.764 48.6347 340.933 47.3066C341.75 47.9764 342.508 48.723 343.195 49.5371C343.54 49.945 343.801 50.4232 343.96 50.9417C344.034 51.2018 344.075 51.4708 344.082 51.7419C344.115 52.2868 343.952 52.7039 343.618 52.8401Z" fill="#FAFAFA"/>
<path d="M339.908 56.0923L340.38 59.4464L344.172 62.0599L340.046 59.6678L339.908 56.0923Z" fill="#FAFAFA"/>
<path d="M334.268 47.3067L338.622 48.0303L333.682 46.7449C334.218 48.9641 335.212 51.0332 336.596 52.8062C335.422 51.1873 334.625 49.3042 334.268 47.3067Z" fill="#FAFAFA"/>
<path d="M336.832 53.1051L336.71 52.9596L336.832 53.1051Z" fill="#FAFAFA"/>
<path d="M346.442 78.0729C336.018 73.1353 326.863 59.0122 326.863 59.0122C332.34 68.1978 339.216 75.187 346.23 78.7199C352.96 82.1251 358.941 81.8612 363.099 78.0218C363.067 78.0218 357.045 83.0616 346.442 78.0729Z" fill="#F5F5F5"/>
<path d="M361.854 30.9362C356.305 20.644 348.55 11.9947 340.282 7.83184C331.689 3.50721 324.406 4.97996 320.028 10.7944C320.028 10.7944 327.4 1.70245 340.331 8.71719C353.261 15.7319 361.854 30.9362 361.854 30.9362Z" fill="#F5F5F5"/>
<path d="M346.564 93.3284C346.702 92.1365 344.587 88.9697 343.944 87.9737C342.072 85.0877 341.885 82.321 340.86 79.2989C340.046 76.9493 338.947 75.8937 339.363 75.5021C339.908 74.9487 341.454 74.3528 343.049 75.8085C343.863 76.5406 345.49 79.4606 346.564 81.1547C348.346 83.4532 346.564 93.3284 346.564 93.3284Z" fill="#EAB1A9"/>
<defs>
<filter id="filter0_f_101_1440" x="0" y="62.1685" width="462.465" height="292.832" filterUnits="userSpaceOnUse" color-interpolation-filters="sRGB">
<feFlood flood-opacity="0" result="BackgroundImageFix"/>
<feBlend mode="normal" in="SourceGraphic" in2="BackgroundImageFix" result="shape"/>
<feGaussianBlur stdDeviation="23" result="effect1_foregroundBlur_101_1440"/>
</filter>
</defs>
</svg>
