<svg width="25" height="25" viewBox="0 0 25 25" fill="none" xmlns="http://www.w3.org/2000/svg">
<path fill-rule="evenodd" clip-rule="evenodd" d="M0.724983 0.724921C0.988655 0.461576 1.34608 0.313659 1.71873 0.313659C2.09139 0.313659 2.44881 0.461576 2.71248 0.724921L12.5 10.5124L22.2875 0.724921C22.4162 0.586758 22.5715 0.475942 22.744 0.399082C22.9165 0.322222 23.1027 0.280894 23.2915 0.277563C23.4803 0.274231 23.6679 0.308964 23.843 0.379691C24.0181 0.450418 24.1771 0.555689 24.3107 0.689224C24.4442 0.82276 24.5495 0.981823 24.6202 1.15693C24.6909 1.33203 24.7257 1.51958 24.7223 1.7084C24.719 1.89722 24.6777 2.08343 24.6008 2.25593C24.524 2.42843 24.4131 2.58368 24.275 2.71242L14.4875 12.4999L24.275 22.2874C24.4131 22.4162 24.524 22.5714 24.6008 22.7439C24.6777 22.9164 24.719 23.1026 24.7223 23.2914C24.7257 23.4803 24.6909 23.6678 24.6202 23.8429C24.5495 24.018 24.4442 24.1771 24.3107 24.3106C24.1771 24.4442 24.0181 24.5494 23.843 24.6202C23.6679 24.6909 23.4803 24.7256 23.2915 24.7223C23.1027 24.7189 22.9165 24.6776 22.744 24.6008C22.5715 24.5239 22.4162 24.4131 22.2875 24.2749L12.5 14.4874L2.71248 24.2749C2.44591 24.5233 2.09332 24.6586 1.729 24.6521C1.36469 24.6457 1.01709 24.4981 0.759442 24.2405C0.501793 23.9828 0.354208 23.6352 0.34778 23.2709C0.341352 22.9066 0.476583 22.554 0.724983 22.2874L10.5125 12.4999L0.724983 2.71242C0.461638 2.44875 0.313721 2.09133 0.313721 1.71867C0.313721 1.34601 0.461638 0.988594 0.724983 0.724921Z" fill="white"/>
</svg>
