<svg width="162" height="43" viewBox="0 0 162 43" fill="none" xmlns="http://www.w3.org/2000/svg">
<g filter="url(#filter0_d_103_2005)">
<path d="M12.2172 0H4V35H12.2172V21.9701H21.8819L38.4636 5.5163V0H29.6516V13.125H12.2172V0Z" fill="white"/>
<path d="M29.8411 26.1549V35H38.4636V17.7853L29.8411 26.1549Z" fill="white"/>
<path d="M56.0875 0L38.8426 17.5L56.0875 35H68.5L51.0656 17.5L68.5 0H56.0875Z" fill="white"/>
</g>
<g filter="url(#filter1_d_103_2005)">
<path d="M82.041 15V5.69434H83.2725V9.51562H88.1094V5.69434H89.3408V15H88.1094V10.6138H83.2725V15H82.041ZM90.8262 11.6294C90.8262 10.381 91.1732 9.45638 91.8672 8.85547C92.4469 8.35612 93.1536 8.10645 93.9873 8.10645C94.9141 8.10645 95.6715 8.41113 96.2598 9.02051C96.848 9.62565 97.1421 10.4635 97.1421 11.5342C97.1421 12.4017 97.0109 13.0851 96.7485 13.5845C96.4904 14.0796 96.1117 14.4647 95.6123 14.7397C95.1172 15.0148 94.5755 15.1523 93.9873 15.1523C93.0436 15.1523 92.2798 14.8498 91.6958 14.2446C91.116 13.6395 90.8262 12.7677 90.8262 11.6294ZM92.0005 11.6294C92.0005 12.4927 92.1888 13.1401 92.5654 13.5718C92.9421 13.9992 93.416 14.2129 93.9873 14.2129C94.5544 14.2129 95.0262 13.9971 95.4028 13.5654C95.7795 13.1338 95.9678 12.4757 95.9678 11.5913C95.9678 10.7576 95.7773 10.1271 95.3965 9.69971C95.0199 9.26807 94.5501 9.05225 93.9873 9.05225C93.416 9.05225 92.9421 9.26595 92.5654 9.69336C92.1888 10.1208 92.0005 10.7661 92.0005 11.6294ZM98.4941 8.25879H101.128C101.776 8.25879 102.256 8.3138 102.569 8.42383C102.887 8.52962 103.158 8.7264 103.382 9.01416C103.61 9.30192 103.725 9.64681 103.725 10.0488C103.725 10.3704 103.657 10.6519 103.521 10.8931C103.39 11.13 103.191 11.3289 102.925 11.4897C103.242 11.5955 103.505 11.7944 103.712 12.0864C103.924 12.3742 104.029 12.717 104.029 13.1147C103.987 13.7537 103.758 14.2277 103.344 14.5366C102.929 14.8455 102.326 15 101.535 15H98.4941V8.25879ZM99.6367 11.0962H100.855C101.342 11.0962 101.676 11.0708 101.858 11.02C102.04 10.9692 102.203 10.8677 102.347 10.7153C102.491 10.5588 102.563 10.3726 102.563 10.1567C102.563 9.80127 102.436 9.55371 102.182 9.41406C101.932 9.27441 101.503 9.20459 100.894 9.20459H99.6367V11.0962ZM99.6367 14.0605H101.141C101.789 14.0605 102.233 13.9865 102.474 13.8384C102.715 13.686 102.842 13.4258 102.855 13.0576C102.855 12.8418 102.785 12.6429 102.646 12.4609C102.506 12.2747 102.324 12.1584 102.1 12.1118C101.875 12.061 101.516 12.0356 101.021 12.0356H99.6367V14.0605ZM105.394 8.25879H106.537V13.4004L109.704 8.25879H110.936V15H109.793V9.89014L106.625 15H105.394V8.25879ZM112.675 8.25879H113.817V14.0605H116.979V8.25879H118.121V14.0605H118.857V16.9106H117.918V15H112.675V8.25879ZM120.102 8.25879H121.244V11.1724C121.608 11.1724 121.862 11.1025 122.006 10.9629C122.154 10.8232 122.37 10.417 122.653 9.74414C122.878 9.21094 123.06 8.8597 123.199 8.69043C123.339 8.52116 123.5 8.4069 123.682 8.34766C123.864 8.28841 124.156 8.25879 124.558 8.25879H124.786V9.20459L124.469 9.19824C124.168 9.19824 123.976 9.24268 123.891 9.33154C123.802 9.42464 123.667 9.70182 123.485 10.1631C123.311 10.6032 123.153 10.9079 123.009 11.0771C122.865 11.2464 122.643 11.4009 122.342 11.5405C122.833 11.6717 123.316 12.1287 123.79 12.9116L125.04 15H123.783L122.564 12.9116C122.315 12.4927 122.097 12.2176 121.911 12.0864C121.724 11.951 121.502 11.8833 121.244 11.8833V15H120.102V8.25879ZM130.486 14.1685C130.063 14.5282 129.655 14.7821 129.261 14.9302C128.872 15.0783 128.453 15.1523 128.004 15.1523C127.264 15.1523 126.695 14.9725 126.297 14.6128C125.899 14.2489 125.7 13.7855 125.7 13.2227C125.7 12.8926 125.774 12.5921 125.922 12.3213C126.075 12.0462 126.271 11.8262 126.513 11.6611C126.758 11.4961 127.033 11.3713 127.338 11.2866C127.562 11.2274 127.901 11.1702 128.354 11.1152C129.276 11.0052 129.955 10.874 130.391 10.7217C130.395 10.5651 130.397 10.4657 130.397 10.4233C130.397 9.95785 130.29 9.62988 130.074 9.43945C129.782 9.18132 129.348 9.05225 128.772 9.05225C128.235 9.05225 127.837 9.14746 127.579 9.33789C127.325 9.52409 127.137 9.85628 127.014 10.3345L125.897 10.1821C125.999 9.70394 126.166 9.31885 126.398 9.02686C126.631 8.73063 126.968 8.50423 127.408 8.34766C127.848 8.18685 128.358 8.10645 128.938 8.10645C129.513 8.10645 129.981 8.17415 130.34 8.30957C130.7 8.44499 130.965 8.61637 131.134 8.82373C131.303 9.02686 131.422 9.28499 131.489 9.59814C131.527 9.79281 131.546 10.144 131.546 10.6519V12.1753C131.546 13.2375 131.57 13.9103 131.616 14.1938C131.667 14.4731 131.764 14.7419 131.908 15H130.715C130.596 14.763 130.52 14.4858 130.486 14.1685ZM130.391 11.6167C129.976 11.786 129.354 11.9299 128.525 12.0483C128.055 12.116 127.723 12.1922 127.528 12.2769C127.334 12.3615 127.183 12.4863 127.078 12.6514C126.972 12.8122 126.919 12.992 126.919 13.1909C126.919 13.4956 127.033 13.7495 127.262 13.9526C127.494 14.1558 127.833 14.2573 128.277 14.2573C128.717 14.2573 129.109 14.1621 129.452 13.9717C129.794 13.777 130.046 13.5125 130.207 13.1782C130.33 12.9201 130.391 12.5392 130.391 12.0356V11.6167ZM138.63 8.25879V15H137.494V12.3721H136.834C136.432 12.3721 136.132 12.425 135.933 12.5308C135.738 12.6323 135.452 12.9645 135.076 13.5273L134.079 15H132.664L133.895 13.1846C134.272 12.6302 134.646 12.3171 135.019 12.2451C134.367 12.1562 133.882 11.9214 133.565 11.5405C133.252 11.1597 133.095 10.7217 133.095 10.2266C133.095 9.64258 133.3 9.16862 133.711 8.80469C134.126 8.44076 134.724 8.25879 135.507 8.25879H138.63ZM137.494 9.20459H135.869C135.188 9.20459 134.748 9.31038 134.549 9.52197C134.354 9.73356 134.257 9.98112 134.257 10.2646C134.257 10.6667 134.401 10.9629 134.688 11.1533C134.98 11.3395 135.495 11.4326 136.231 11.4326H137.494V9.20459ZM81.8569 23.2588H82.9995V28.4004L86.167 23.2588H87.3984V30H86.2559V24.8901L83.0884 30H81.8569V23.2588ZM92.7432 23.2588H98.0625V30H96.9199V24.2046H93.8857V30H92.7432V23.2588ZM104.182 29.1685C103.758 29.5282 103.35 29.7821 102.957 29.9302C102.567 30.0783 102.148 30.1523 101.7 30.1523C100.959 30.1523 100.39 29.9725 99.9922 29.6128C99.5944 29.2489 99.3955 28.7855 99.3955 28.2227C99.3955 27.8926 99.4696 27.5921 99.6177 27.3213C99.77 27.0462 99.9668 26.8262 100.208 26.6611C100.453 26.4961 100.729 26.3713 101.033 26.2866C101.257 26.2274 101.596 26.1702 102.049 26.1152C102.971 26.0052 103.651 25.874 104.086 25.7217C104.091 25.5651 104.093 25.4657 104.093 25.4233C104.093 24.9578 103.985 24.6299 103.769 24.4395C103.477 24.1813 103.043 24.0522 102.468 24.0522C101.93 24.0522 101.533 24.1475 101.274 24.3379C101.021 24.5241 100.832 24.8563 100.709 25.3345L99.5923 25.1821C99.6938 24.7039 99.861 24.3188 100.094 24.0269C100.326 23.7306 100.663 23.5042 101.103 23.3477C101.543 23.1868 102.053 23.1064 102.633 23.1064C103.208 23.1064 103.676 23.1742 104.036 23.3096C104.395 23.445 104.66 23.6164 104.829 23.8237C104.998 24.0269 105.117 24.285 105.185 24.5981C105.223 24.7928 105.242 25.144 105.242 25.6519V27.1753C105.242 28.2375 105.265 28.9103 105.312 29.1938C105.362 29.4731 105.46 29.7419 105.604 30H104.41C104.292 29.763 104.215 29.4858 104.182 29.1685ZM104.086 26.6167C103.672 26.786 103.05 26.9299 102.22 27.0483C101.75 27.116 101.418 27.1922 101.224 27.2769C101.029 27.3615 100.879 27.4863 100.773 27.6514C100.667 27.8122 100.614 27.992 100.614 28.1909C100.614 28.4956 100.729 28.7495 100.957 28.9526C101.19 29.1558 101.528 29.2573 101.973 29.2573C102.413 29.2573 102.804 29.1621 103.147 28.9717C103.49 28.777 103.742 28.5125 103.902 28.1782C104.025 27.9201 104.086 27.5392 104.086 27.0356V26.6167ZM107.019 32.5835V23.2588H108.06V24.1348C108.306 23.792 108.583 23.536 108.892 23.3667C109.201 23.1932 109.575 23.1064 110.015 23.1064C110.591 23.1064 111.098 23.2546 111.539 23.5508C111.979 23.847 112.311 24.266 112.535 24.8076C112.759 25.3451 112.872 25.9354 112.872 26.5786C112.872 27.2684 112.747 27.8905 112.497 28.4448C112.252 28.995 111.892 29.4181 111.418 29.7144C110.948 30.0063 110.453 30.1523 109.933 30.1523C109.552 30.1523 109.209 30.0719 108.904 29.9111C108.604 29.7503 108.356 29.5472 108.162 29.3018V32.5835H107.019ZM108.054 26.6675C108.054 27.535 108.229 28.1761 108.581 28.5908C108.932 29.0055 109.357 29.2129 109.856 29.2129C110.364 29.2129 110.798 28.9992 111.158 28.5718C111.522 28.1401 111.704 27.4736 111.704 26.5723C111.704 25.7132 111.526 25.07 111.17 24.6426C110.819 24.2152 110.398 24.0015 109.907 24.0015C109.421 24.0015 108.989 24.23 108.612 24.687C108.24 25.1398 108.054 25.8 108.054 26.6675ZM113.348 23.2588H118.826V24.2046H116.655V30H115.519V24.2046H113.348V23.2588ZM119.924 23.2588H121.066V26.0645H124.234V23.2588H125.376V30H124.234V27.0103H121.066V30H119.924V23.2588ZM131.718 27.8291L132.898 27.9751C132.712 28.6649 132.367 29.2002 131.864 29.5811C131.36 29.9619 130.717 30.1523 129.934 30.1523C128.948 30.1523 128.165 29.8498 127.585 29.2446C127.01 28.6353 126.722 27.7826 126.722 26.6865C126.722 25.5524 127.014 24.6722 127.598 24.0459C128.182 23.4196 128.94 23.1064 129.871 23.1064C130.772 23.1064 131.508 23.4132 132.08 24.0269C132.651 24.6405 132.937 25.5037 132.937 26.6167C132.937 26.6844 132.934 26.786 132.93 26.9214H127.903C127.945 27.6619 128.155 28.229 128.531 28.6226C128.908 29.0161 129.378 29.2129 129.94 29.2129C130.359 29.2129 130.717 29.1029 131.013 28.8828C131.309 28.6628 131.544 28.3115 131.718 27.8291ZM127.966 25.9819H131.73C131.68 25.4149 131.536 24.9896 131.299 24.7061C130.935 24.266 130.463 24.0459 129.883 24.0459C129.359 24.0459 128.916 24.2215 128.557 24.5728C128.201 24.924 128.004 25.3937 127.966 25.9819ZM134.339 32.5835V23.2588H135.38V24.1348C135.626 23.792 135.903 23.536 136.212 23.3667C136.521 23.1932 136.895 23.1064 137.335 23.1064C137.911 23.1064 138.419 23.2546 138.859 23.5508C139.299 23.847 139.631 24.266 139.855 24.8076C140.08 25.3451 140.192 25.9354 140.192 26.5786C140.192 27.2684 140.067 27.8905 139.817 28.4448C139.572 28.995 139.212 29.4181 138.738 29.7144C138.269 30.0063 137.773 30.1523 137.253 30.1523C136.872 30.1523 136.529 30.0719 136.225 29.9111C135.924 29.7503 135.677 29.5472 135.482 29.3018V32.5835H134.339ZM135.374 26.6675C135.374 27.535 135.55 28.1761 135.901 28.5908C136.252 29.0055 136.677 29.2129 137.177 29.2129C137.685 29.2129 138.118 28.9992 138.478 28.5718C138.842 28.1401 139.024 27.4736 139.024 26.5723C139.024 25.7132 138.846 25.07 138.491 24.6426C138.139 24.2152 137.718 24.0015 137.228 24.0015C136.741 24.0015 136.309 24.23 135.933 24.687C135.56 25.1398 135.374 25.8 135.374 26.6675ZM147.993 23.2588H149.136V30H147.993V23.2588ZM141.601 23.2588H142.744V25.8931H144.191C145.135 25.8931 145.86 26.0771 146.368 26.4453C146.88 26.8092 147.136 27.3128 147.136 27.9561C147.136 28.5189 146.923 29.0013 146.495 29.4033C146.072 29.8011 145.393 30 144.458 30H141.601V23.2588ZM142.744 29.0605H143.943C144.667 29.0605 145.183 28.9717 145.492 28.7939C145.801 28.6162 145.956 28.339 145.956 27.9624C145.956 27.6704 145.841 27.4102 145.613 27.1816C145.384 26.9531 144.879 26.8389 144.096 26.8389H142.744V29.0605Z" fill="white"/>
</g>
<defs>
<filter id="filter0_d_103_2005" x="0" y="0" width="72.5" height="43" filterUnits="userSpaceOnUse" color-interpolation-filters="sRGB">
<feFlood flood-opacity="0" result="BackgroundImageFix"/>
<feColorMatrix in="SourceAlpha" type="matrix" values="0 0 0 0 0 0 0 0 0 0 0 0 0 0 0 0 0 0 127 0" result="hardAlpha"/>
<feOffset dy="4"/>
<feGaussianBlur stdDeviation="2"/>
<feComposite in2="hardAlpha" operator="out"/>
<feColorMatrix type="matrix" values="0 0 0 0 0 0 0 0 0 0 0 0 0 0 0 0 0 0 0.25 0"/>
<feBlend mode="normal" in2="BackgroundImageFix" result="effect1_dropShadow_103_2005"/>
<feBlend mode="normal" in="SourceGraphic" in2="effect1_dropShadow_103_2005" result="shape"/>
</filter>
<filter id="filter1_d_103_2005" x="77.8569" y="5.69434" width="75.2788" height="34.8892" filterUnits="userSpaceOnUse" color-interpolation-filters="sRGB">
<feFlood flood-opacity="0" result="BackgroundImageFix"/>
<feColorMatrix in="SourceAlpha" type="matrix" values="0 0 0 0 0 0 0 0 0 0 0 0 0 0 0 0 0 0 127 0" result="hardAlpha"/>
<feOffset dy="4"/>
<feGaussianBlur stdDeviation="2"/>
<feComposite in2="hardAlpha" operator="out"/>
<feColorMatrix type="matrix" values="0 0 0 0 0 0 0 0 0 0 0 0 0 0 0 0 0 0 0.25 0"/>
<feBlend mode="normal" in2="BackgroundImageFix" result="effect1_dropShadow_103_2005"/>
<feBlend mode="normal" in="SourceGraphic" in2="effect1_dropShadow_103_2005" result="shape"/>
</filter>
</defs>
</svg>
